<svg width="27" height="24" viewBox="0 0 27 24" fill="none" xmlns="http://www.w3.org/2000/svg">
<g clip-path="url(#clip0_655_58968)">
<path d="M17.3492 14.4477C16.3366 14.0615 15.5586 13.1019 14.4861 12.9538C12.3754 12.6624 10.8253 15.6233 8.72034 15.2927C7.92381 15.1674 7.28646 14.5852 6.57068 14.2113C5.85664 13.8386 5.3506 13.9708 4.68652 14.1101C5.61785 17.7345 8.88651 20.411 12.7762 20.411C16.939 20.411 20.3901 17.3454 21.0269 13.3336C20.1258 14.3775 18.6274 14.9351 17.3492 14.4471V14.4477Z" fill="#FE85A3"/>
<path d="M17.8298 13.3691C16.7206 13.0256 15.8242 12.0525 14.6668 11.9676C12.8896 11.8371 11.6114 13.8027 10.0549 14.5721C11.5428 13.9425 12.8449 12.2029 14.4867 12.4293C15.5592 12.5773 16.3372 13.537 17.3499 13.9232C18.7739 14.4662 20.4721 13.7125 21.3122 12.434C21.3587 12.3638 21.4023 12.2918 21.4441 12.2192C20.5273 13.2163 19.1103 13.7664 17.8303 13.3696L17.8298 13.3691Z" fill="#FE85A3"/>
<path d="M25.6568 7.51452H24.0509C24.4715 8.72461 24.5006 9.85337 24.5006 9.85337C24.3554 9.04235 24.1288 8.26 23.8301 7.51452C22.0662 3.1095 17.782 0 12.7762 0C6.19648 0 0.861816 5.37286 0.861816 11.9997C0.861816 18.6266 6.19648 23.9994 12.7762 23.9994C17.782 23.9994 22.0662 20.8899 23.8301 16.4849H25.6568C25.9229 16.4849 26.1384 16.2678 26.1384 15.9998V7.99902C26.1384 7.73102 25.9229 7.51393 25.6568 7.51393V7.51452ZM12.7762 22.155C7.2074 22.155 2.6931 17.6084 2.6931 11.9997C2.6931 6.39103 7.20798 1.84498 12.7762 1.84498C18.3444 1.84498 22.8593 6.39161 22.8593 12.0003C22.8593 17.609 18.345 22.1556 12.7762 22.1556V22.155ZM25.192 15.9975C24.9549 15.9975 24.7626 15.8038 24.7626 15.565C24.7626 15.3263 24.9549 15.1326 25.192 15.1326C25.429 15.1326 25.6213 15.3263 25.6213 15.565C25.6213 15.8038 25.429 15.9975 25.192 15.9975ZM25.192 8.86797C24.9549 8.86797 24.7626 8.67429 24.7626 8.43555C24.7626 8.19681 24.9549 8.00312 25.192 8.00312C25.429 8.00312 25.6213 8.19681 25.6213 8.43555C25.6213 8.67429 25.429 8.86797 25.192 8.86797Z" fill="#1C3867"/>
<path d="M12.7762 2.26855C7.44272 2.26855 3.11841 6.62325 3.11841 11.9955C3.11841 17.3678 7.44214 21.7225 12.7762 21.7225C18.1103 21.7225 22.434 17.3678 22.434 11.9955C22.434 6.62325 18.1103 2.26855 12.7762 2.26855ZM12.7762 21.4574C7.58739 21.4574 3.38102 17.2209 3.38102 11.9949C3.38102 6.76896 7.58797 2.53246 12.7762 2.53246C17.9645 2.53246 22.1714 6.76896 22.1714 11.9949C22.1714 17.2209 17.9651 21.4574 12.7762 21.4574Z" fill="#1C3867"/>
<path d="M5.65906 11.2559C5.38832 11.2559 5.1687 11.477 5.1687 11.7497C5.1687 11.9715 5.31395 12.1593 5.51381 12.2214C5.38773 12.1476 5.30291 12.0107 5.30291 11.8533C5.30291 11.6181 5.49231 11.4279 5.72529 11.4279C5.94374 11.4279 6.12327 11.5947 6.14535 11.8082C6.14767 11.7889 6.14883 11.7696 6.14883 11.7497C6.14883 11.477 5.92922 11.2559 5.65848 11.2559H5.65906Z" fill="#FE85A3"/>
<path d="M8.36249 13.4093C8.34738 13.4093 8.33286 13.4104 8.31891 13.4122C8.4781 13.4292 8.60243 13.5649 8.60243 13.7299C8.60243 13.9067 8.46009 14.0494 8.28521 14.0494C8.16785 14.0494 8.0656 13.9851 8.01099 13.8897C8.05747 14.0412 8.19748 14.1507 8.36307 14.1507C8.56641 14.1507 8.73141 13.9845 8.73141 13.7797C8.73141 13.5749 8.56641 13.4087 8.36307 13.4087L8.36249 13.4093Z" fill="#FE85A3"/>
<path d="M9.85097 9.00146C9.4896 9.00146 9.19678 9.29638 9.19678 9.66035C9.19678 9.68668 9.19852 9.71301 9.20201 9.73876C9.23164 9.45379 9.47159 9.23143 9.76266 9.23143C10.0741 9.23143 10.3262 9.48539 10.3262 9.79903C10.3262 10.0091 10.2129 10.1917 10.0444 10.29C10.3111 10.2069 10.5052 9.95643 10.5052 9.66035C10.5052 9.29638 10.2123 9.00146 9.85097 9.00146Z" fill="#FE85A3"/>
</g>
<defs>
<clipPath id="clip0_655_58968">
<rect width="25.2766" height="24" fill="white" transform="translate(0.861816)"/>
</clipPath>
</defs>
</svg>
