<svg width="53" height="60" viewBox="0 0 53 60" fill="none" xmlns="http://www.w3.org/2000/svg">
<path d="M33.0815 28.8949C31.0496 28.1225 29.4887 26.2032 27.3367 25.9071C23.1016 25.3243 19.9914 31.2461 15.7679 30.5848C14.1696 30.3344 12.8908 29.1699 11.4546 28.4221C10.0219 27.6766 9.00652 27.9411 7.67407 28.2196C9.54276 35.4685 16.1013 40.8215 23.9059 40.8215C32.2585 40.8215 39.183 34.6903 40.4607 26.6667C38.6526 28.7545 35.6462 29.8698 33.0815 28.8937V28.8949Z" fill="#DADBDF"/>
<path d="M34.0456 26.7381C31.8202 26.0512 30.0214 24.1049 27.6993 23.9352C24.1332 23.6743 21.5686 27.6053 18.4456 29.1443C21.431 27.885 24.0435 24.4057 27.3379 24.8586C29.4898 25.1547 31.0508 27.074 33.0827 27.8464C35.9399 28.9324 39.3474 27.4251 41.0331 24.868C41.1263 24.7275 41.2138 24.5836 41.2977 24.4385C39.4581 26.4327 36.6149 27.5328 34.0467 26.7393L34.0456 26.7381Z" fill="#DADBDF"/>
<path d="M49.7506 15.029H46.5285C47.3725 17.4492 47.4307 19.7067 47.4307 19.7067C47.1393 18.0847 46.6847 16.52 46.0855 15.029C42.5463 6.21899 33.95 0 23.906 0C10.7039 0 0 10.7457 0 23.9994C0 37.2531 10.7039 47.9988 23.906 47.9988C33.95 47.9988 42.5463 41.7798 46.0855 32.9698H49.7506C50.2845 32.9698 50.717 32.5356 50.717 31.9996V15.998C50.717 15.462 50.2845 15.0279 49.7506 15.0279V15.029ZM23.906 44.31C12.7323 44.31 3.67443 35.2168 3.67443 23.9994C3.67443 12.7821 12.7335 3.68997 23.906 3.68997C35.0785 3.68997 44.1375 12.7832 44.1375 24.0006C44.1375 35.2179 35.0797 44.3112 23.906 44.3112V44.31ZM48.818 31.9949C48.3424 31.9949 47.9565 31.6076 47.9565 31.1301C47.9565 30.6526 48.3424 30.2652 48.818 30.2652C49.2936 30.2652 49.6795 30.6526 49.6795 31.1301C49.6795 31.6076 49.2936 31.9949 48.818 31.9949ZM48.818 17.7359C48.3424 17.7359 47.9565 17.3486 47.9565 16.8711C47.9565 16.3936 48.3424 16.0062 48.818 16.0062C49.2936 16.0062 49.6795 16.3936 49.6795 16.8711C49.6795 17.3486 49.2936 17.7359 48.818 17.7359Z" fill="#DADBDF"/>
<path d="M23.906 4.53711C13.2045 4.53711 4.52783 13.2465 4.52783 23.9911C4.52783 34.7356 13.2033 43.445 23.906 43.445C34.6088 43.445 43.2842 34.7356 43.2842 23.9911C43.2842 13.2465 34.6088 4.53711 23.906 4.53711ZM23.906 42.9149C13.4948 42.9149 5.05475 34.4419 5.05475 23.9899C5.05475 13.5379 13.4959 5.06492 23.906 5.06492C34.3162 5.06492 42.7573 13.5379 42.7573 23.9899C42.7573 34.4419 34.3173 42.9149 23.906 42.9149Z" fill="#DADBDF"/>
<path d="M9.62549 22.5122C9.08225 22.5122 8.6416 22.9546 8.6416 23.4999C8.6416 23.9435 8.93304 24.3192 9.33406 24.4432C9.08109 24.2957 8.91089 24.0219 8.91089 23.7071C8.91089 23.2366 9.29092 22.8563 9.75839 22.8563C10.1967 22.8563 10.5569 23.1898 10.6012 23.617C10.6059 23.5784 10.6082 23.5397 10.6082 23.4999C10.6082 22.9546 10.1676 22.5122 9.62433 22.5122H9.62549Z" fill="#DADBDF"/>
<path d="M15.0498 26.819C15.0195 26.819 14.9903 26.8214 14.9623 26.8249C15.2817 26.8588 15.5312 27.1303 15.5312 27.4604C15.5312 27.8138 15.2456 28.0994 14.8947 28.0994C14.6592 28.0994 14.4541 27.9706 14.3445 27.7799C14.4377 28.083 14.7187 28.3018 15.0509 28.3018C15.4589 28.3018 15.79 27.9695 15.79 27.5598C15.79 27.1502 15.4589 26.8179 15.0509 26.8179L15.0498 26.819Z" fill="#DADBDF"/>
<path d="M18.0363 18.0029C17.3112 18.0029 16.7236 18.5928 16.7236 19.3207C16.7236 19.3734 16.7271 19.426 16.7341 19.4775C16.7936 18.9076 17.275 18.4629 17.8591 18.4629C18.4839 18.4629 18.9898 18.9708 18.9898 19.5981C18.9898 20.0182 18.7625 20.3833 18.4245 20.5799C18.9595 20.4138 19.3489 19.9129 19.3489 19.3207C19.3489 18.5928 18.7614 18.0029 18.0363 18.0029Z" fill="#DADBDF"/>
<g filter="url(#filter0_d_4846_361)">
<rect x="25" y="30" width="24" height="24" rx="12" fill="white" shape-rendering="crispEdges"/>
<path d="M37 36.5C37.3984 36.5 37.75 36.8516 37.75 37.25V37.7188C39.4609 38.0469 40.75 39.5703 40.75 41.375V41.8203C40.75 42.9219 41.1484 44 41.875 44.8203L42.0391 45.0078C42.25 45.2422 42.2969 45.5469 42.1797 45.8281C42.0625 46.0859 41.7812 46.25 41.5 46.25H32.5C32.1953 46.25 31.9141 46.0859 31.7969 45.8281C31.6797 45.5469 31.7266 45.2422 31.9375 45.0078L32.1016 44.8203C32.8281 44 33.25 42.9219 33.25 41.8203V41.375C33.25 39.5703 34.5391 38.0469 36.25 37.7188V37.25C36.25 36.8516 36.5781 36.5 37 36.5ZM38.0547 48.0781C37.7734 48.3594 37.3984 48.5 37 48.5C36.6016 48.5 36.2031 48.3594 35.9219 48.0781C35.6406 47.7969 35.5 47.3984 35.5 47H37H38.5C38.5 47.3984 38.3359 47.7969 38.0547 48.0781Z" fill="#FE85A3"/>
</g>
<defs>
<filter id="filter0_d_4846_361" x="21" y="28" width="32" height="32" filterUnits="userSpaceOnUse" color-interpolation-filters="sRGB">
<feFlood flood-opacity="0" result="BackgroundImageFix"/>
<feColorMatrix in="SourceAlpha" type="matrix" values="0 0 0 0 0 0 0 0 0 0 0 0 0 0 0 0 0 0 127 0" result="hardAlpha"/>
<feOffset dy="2"/>
<feGaussianBlur stdDeviation="2"/>
<feComposite in2="hardAlpha" operator="out"/>
<feColorMatrix type="matrix" values="0 0 0 0 0 0 0 0 0 0 0 0 0 0 0 0 0 0 0.1 0"/>
<feBlend mode="normal" in2="BackgroundImageFix" result="effect1_dropShadow_4846_361"/>
<feBlend mode="normal" in="SourceGraphic" in2="effect1_dropShadow_4846_361" result="shape"/>
</filter>
</defs>
</svg>
