<svg width="15" height="15" viewBox="0 0 15 15" fill="none" xmlns="http://www.w3.org/2000/svg">
<mask id="mask0_658_7227" style="mask-type:luminance" maskUnits="userSpaceOnUse" x="0" y="0" width="15" height="15">
<path d="M0 1.90735e-06H15V15H0V1.90735e-06Z" fill="white"/>
</mask>
<g mask="url(#mask0_658_7227)">
<path d="M9.78149 5.16782V5.09824C9.78149 4.19232 10.368 3.41681 11.1799 3.13236M12.5517 3.13406C13.3612 3.41985 13.9453 4.19411 13.9453 5.09824V7.87412C13.9453 8.25577 13.633 8.56808 13.2514 8.56808L12.9044 14.0131C12.8727 14.3934 12.592 14.707 12.2104 14.707H11.5164C11.1348 14.707 10.8541 14.3934 10.8224 14.0131C10.7068 12.6252 10.5911 9.95602 10.4754 8.56808C10.0938 8.56808 9.78149 8.2558 9.78149 7.87412V7.80454" stroke="#667085" stroke-width="0.75" stroke-miterlimit="22.926" stroke-linecap="round" stroke-linejoin="round"/>
<path d="M11.8634 0.292774C12.533 0.292774 13.0809 0.840625 13.0809 1.51023V2.11896C13.0809 2.78854 12.533 3.33643 11.8634 3.33643C11.1938 3.33643 10.6459 2.78854 10.6459 2.11896V1.51023C10.6459 0.840625 11.1938 0.292774 11.8634 0.292774Z" stroke="#667085" stroke-width="0.75" stroke-miterlimit="22.926" stroke-linecap="round" stroke-linejoin="round"/>
<path d="M7.6299 5.44907C8.32933 5.69733 8.83374 6.36694 8.83374 7.14867V9.29839C8.83374 9.62883 8.56336 9.89921 8.23292 9.89921L7.93248 14.1062C7.90506 14.4355 7.66198 14.707 7.33166 14.707H6.73081C6.40046 14.707 6.15738 14.4354 6.12996 14.1062C6.02991 12.9045 5.92966 11.1009 5.82952 9.89921C5.49908 9.89921 5.2287 9.62883 5.2287 9.29839V7.14867C5.2287 6.36642 5.73375 5.69648 6.43383 5.4486" stroke="#667085" stroke-width="0.75" stroke-miterlimit="22.926" stroke-linecap="round" stroke-linejoin="round"/>
<path d="M7.03124 2.98831C7.611 2.98831 8.08535 3.46266 8.08535 4.04238V4.56943C8.08535 5.14919 7.611 5.62354 7.03124 5.62354C6.45152 5.62354 5.97717 5.14919 5.97717 4.56943V4.04238C5.97717 3.46266 6.45152 2.98831 7.03124 2.98831Z" stroke="#667085" stroke-width="0.75" stroke-miterlimit="22.926" stroke-linecap="round" stroke-linejoin="round"/>
<path d="M3.20218 7.8963C3.8269 8.11849 4.27734 8.71679 4.27734 9.41525V11.044C4.27734 11.3394 4.03564 11.5811 3.74024 11.5811L3.47168 14.1699C3.44716 14.4643 3.2298 14.707 2.93458 14.707H2.39745C2.1022 14.707 1.88484 14.4642 1.86035 14.1699C1.77094 13.0958 1.68129 12.6553 1.59179 11.5811C1.29639 11.5811 1.05469 11.3394 1.05469 11.044V9.41525C1.05469 8.71644 1.50557 8.11787 2.13079 7.89595" stroke="#667085" stroke-width="0.75" stroke-miterlimit="22.926" stroke-linecap="round" stroke-linejoin="round"/>
<path d="M2.66603 5.69608C3.18429 5.69608 3.60831 6.1201 3.60831 6.63836V7.10951C3.60831 7.62774 3.18429 8.05176 2.66603 8.05176C2.14777 8.05176 1.72375 7.62774 1.72375 7.10951V6.63836C1.72375 6.1201 2.14777 5.69608 2.66603 5.69608Z" stroke="#667085" stroke-width="0.75" stroke-miterlimit="22.926" stroke-linecap="round" stroke-linejoin="round"/>
<path d="M9.78131 6.48633H9.78247" stroke="#667085" stroke-width="0.75" stroke-miterlimit="2.613" stroke-linecap="round" stroke-linejoin="round"/>
</g>
</svg>
