<svg width="46" height="48" viewBox="0 0 46 48" fill="none" xmlns="http://www.w3.org/2000/svg">
<g clip-path="url(#clip0_17_675)">
<path d="M23.204 34.8752H22.7959C20.1823 34.8752 18.0155 32.7425 17.8629 30.02L16.4863 5.45728C16.4073 4.04588 16.895 2.64675 17.8247 1.61831C18.7543 0.589781 20.0645 0 21.4193 0H24.5805C25.9353 0 27.2455 0.589781 28.1751 1.61822C29.1048 2.64666 29.5926 4.04597 29.5136 5.45719L28.1371 30.02C27.9844 32.7426 25.8174 34.8752 23.204 34.8752Z" fill="#FF674F"/>
<path d="M23.204 34.8752C25.8176 34.8752 27.9844 32.7426 28.1371 30.02L29.5136 5.45719C29.5926 4.04588 29.1048 2.64666 28.1752 1.61822C27.2456 0.589781 25.9354 0 24.5806 0H23V34.8752H23.204Z" fill="#F2472C"/>
<path d="M23 48C20.2753 48 18.0586 45.6869 18.0586 42.8438C18.0586 40.0007 20.2753 37.6876 23 37.6876C25.7247 37.6876 27.9414 40.0007 27.9414 42.8437C27.9414 45.6869 25.7247 48 23 48Z" fill="#FF674F"/>
<path d="M23 37.6876V48C25.7247 48 27.9414 45.6869 27.9414 42.8437C27.9414 40.0007 25.7247 37.6876 23 37.6876Z" fill="#F2472C"/>
<path d="M13.6036 37.6648C13.1398 37.6648 12.6886 37.415 12.4381 36.9668C11.3542 35.0273 10.7812 32.8125 10.7812 30.5618C10.7812 28.3111 11.3542 26.0963 12.4381 24.1568C12.8131 23.4861 13.6381 23.259 14.2812 23.6506C14.9241 24.0418 15.1414 24.9028 14.7664 25.5738C13.9225 27.0836 13.4766 28.8084 13.4766 30.5618C13.4766 32.3152 13.9225 34.0401 14.7664 35.5499C15.1414 36.2208 14.9241 37.0819 14.2812 37.4732C14.0677 37.603 13.8341 37.6648 13.6036 37.6648Z" fill="#FF9300"/>
<path d="M8.9435 40.4896C8.47972 40.4896 8.02853 40.2398 7.77804 39.7916C6.2162 36.9968 5.39062 33.8052 5.39062 30.5619C5.39062 27.3185 6.2162 24.1269 7.77813 21.3322C8.15296 20.6613 8.97818 20.4345 9.62119 20.8258C10.2642 21.2171 10.4814 22.0781 10.1064 22.7491C8.78456 25.1142 8.08594 27.8158 8.08594 30.5619C8.08594 33.3079 8.78456 36.0095 10.1064 38.3747C10.4814 39.0456 10.2641 39.9067 9.62119 40.298C9.40763 40.4278 9.17404 40.4896 8.9435 40.4896Z" fill="#FFB500"/>
<path d="M4.27665 43.3186C3.81252 43.3186 3.36105 43.0683 3.11066 42.6196C1.0757 38.9721 0 34.8026 0 30.5618C0 26.3213 1.0757 22.1516 3.11066 18.5041C3.48513 17.8329 4.31016 17.6054 4.95336 17.9963C5.59655 18.3871 5.81442 19.248 5.44004 19.9192C3.64442 23.1376 2.69531 26.8178 2.69531 30.5618C2.69531 34.3059 3.64442 37.9861 5.44004 41.2044C5.81451 41.8756 5.59664 42.7365 4.95336 43.1273C4.74016 43.2568 4.50683 43.3186 4.27665 43.3186Z" fill="#FFE645"/>
<path d="M32.4079 37.6447C32.1782 37.6447 31.9456 37.5834 31.7327 37.4544C31.0889 37.0646 30.87 36.204 31.2436 35.5323C32.0808 34.0269 32.5234 32.3081 32.5234 30.5619C32.5234 28.8155 32.0808 27.0968 31.2436 25.5913C30.87 24.9196 31.0889 24.059 31.7327 23.6692C32.3763 23.2794 33.2012 23.5077 33.5747 24.1795C34.6503 26.1133 35.2187 28.3203 35.2187 30.5619C35.2187 32.8034 34.6503 35.0103 33.5747 36.944C33.3247 37.3935 32.8726 37.6447 32.4079 37.6447Z" fill="#FF9300"/>
<path d="M37.0681 40.4695C36.8381 40.4695 36.6052 40.408 36.3921 40.2787C35.7486 39.8884 35.5301 39.0277 35.9042 38.3562C37.2191 35.9958 37.9141 33.3006 37.9141 30.5619C37.9141 27.8231 37.2191 25.1279 35.9042 22.7675C35.5301 22.096 35.7486 21.2353 36.3921 20.845C37.0352 20.4547 37.8604 20.6825 38.2344 21.3541C39.7882 24.1433 40.6094 27.3272 40.6094 30.5619C40.6094 33.7965 39.7882 36.9805 38.2344 39.7696C37.9842 40.2187 37.5324 40.4695 37.0681 40.4695Z" fill="#FFB500"/>
<path d="M41.7349 43.2984C41.5051 43.2984 41.2723 43.2369 41.0593 43.1078C40.4156 42.7178 40.1969 41.8571 40.5707 41.1856C42.3594 37.9721 43.3047 34.2985 43.3047 30.5618C43.3047 26.8253 42.3594 23.1516 40.5708 19.9382C40.197 19.2667 40.4156 18.4059 41.0594 18.0159C41.7027 17.6258 42.5277 17.8538 42.9015 18.5258C44.9286 22.1676 46.0001 26.3297 46.0001 30.5618C46.0001 34.794 44.9286 38.9561 42.9015 42.598C42.6514 43.0474 42.1994 43.2984 41.7349 43.2984Z" fill="#FFE645"/>
</g>
<defs>
<clipPath id="clip0_17_675">
<rect width="46" height="48" fill="white"/>
</clipPath>
</defs>
</svg>
