<svg width="10" height="13" viewBox="0 0 10 13" fill="none" xmlns="http://www.w3.org/2000/svg">
<path d="M5 12.9998C4.12 12.9998 0 8.99982 0 5.74268C0 4.41659 0.526784 3.14482 1.46447 2.20714C2.40215 1.26946 3.67392 0.742676 5 0.742676C6.32608 0.742676 7.59785 1.26946 8.53553 2.20714C9.47322 3.14482 10 4.41659 10 5.74268C10 9.01125 5.88 12.9998 5 12.9998ZM5 1.5941C3.90072 1.59562 2.84698 2.03337 2.07021 2.81121C1.29344 3.58906 0.857142 4.6434 0.857143 5.74268C0.857143 8.45125 4.23429 11.7655 5 12.1255C5.76571 11.7655 9.14286 8.45125 9.14286 5.74268C9.14286 4.6434 8.70656 3.58906 7.92979 2.81121C7.15302 2.03337 6.09928 1.59562 5 1.5941Z" fill="#667085"/>
<path d="M4.99998 8.14279C4.51966 8.14279 4.05012 8.00035 3.65074 7.7335C3.25136 7.46665 2.94009 7.08735 2.75628 6.64359C2.57246 6.19983 2.52437 5.71152 2.61808 5.24043C2.71178 4.76933 2.94308 4.3366 3.28272 3.99696C3.62237 3.65732 4.0551 3.42602 4.52619 3.33231C4.99729 3.2386 5.48559 3.2867 5.92936 3.47051C6.37312 3.65432 6.75241 3.9656 7.01927 4.36497C7.28612 4.76435 7.42856 5.23389 7.42856 5.71422C7.42705 6.35785 7.17069 6.97469 6.71558 7.42981C6.26046 7.88493 5.64362 8.14128 4.99998 8.14279ZM4.99998 4.14279C4.68918 4.14279 4.38536 4.23495 4.12694 4.40762C3.86852 4.58029 3.66711 4.82572 3.54817 5.11286C3.42924 5.4 3.39812 5.71596 3.45875 6.02079C3.51938 6.32561 3.66905 6.60562 3.88882 6.82538C4.10858 7.04515 4.38859 7.19482 4.69341 7.25545C4.99824 7.31608 5.3142 7.28497 5.60134 7.16603C5.88848 7.04709 6.13391 6.84568 6.30658 6.58726C6.47925 6.32884 6.57141 6.02502 6.57141 5.71422C6.57141 5.29745 6.40585 4.89775 6.11115 4.60305C5.81645 4.30835 5.41675 4.14279 4.99998 4.14279Z" fill="#667085"/>
</svg>
