<svg width="14" height="15" viewBox="0 0 14 15" fill="none" xmlns="http://www.w3.org/2000/svg">
<path d="M5.00035 14.0341C4.20284 14.0324 3.42366 13.7948 2.76098 13.3511C2.0983 12.9073 1.58178 12.2774 1.27648 11.5406C0.97119 10.8039 0.890788 9.99322 1.04541 9.21084C1.20003 8.42846 1.58275 7.70934 2.14535 7.14409L8.39535 0.894091C8.97252 0.444968 9.69387 0.22214 10.4238 0.267498C11.1537 0.312856 11.8419 0.623277 12.359 1.1404C12.8762 1.65753 13.1866 2.34574 13.2319 3.07566C13.2773 3.80557 13.0545 4.52692 12.6054 5.10409L6.85535 10.8541C6.49599 11.2135 6.00858 11.4154 5.50035 11.4154C4.99213 11.4154 4.50472 11.2135 4.14535 10.8541C3.78599 10.4947 3.58409 10.0073 3.58409 9.49909C3.58409 8.99087 3.78599 8.50346 4.14535 8.14409L7.64535 4.64409C7.73951 4.54994 7.8672 4.49705 8.00035 4.49705C8.1335 4.49705 8.2612 4.54994 8.35535 4.64409C8.4495 4.73824 8.5024 4.86594 8.5024 4.99909C8.5024 5.13224 8.4495 5.25994 8.35535 5.35409L4.85535 8.85409C4.68429 9.02516 4.58819 9.25717 4.58819 9.49909C4.58819 9.74101 4.68429 9.97303 4.85535 10.1441C5.02642 10.3152 5.25843 10.4113 5.50035 10.4113C5.74228 10.4113 5.97429 10.3152 6.14535 10.1441L11.8954 4.39409C12.2372 4.0186 12.4212 3.52589 12.4093 3.01826C12.3974 2.51063 12.1905 2.02708 11.8314 1.66803C11.4724 1.30899 10.9888 1.10202 10.4812 1.09011C9.97356 1.07821 9.48084 1.26227 9.10535 1.60409L2.85535 7.85409C2.5589 8.1324 2.32139 8.46744 2.15693 8.83933C1.99247 9.21121 1.90442 9.61235 1.898 10.0189C1.89158 10.4255 1.96693 10.8292 2.11957 11.2061C2.27221 11.583 2.49903 11.9254 2.78655 12.2129C3.07408 12.5004 3.41645 12.7272 3.79334 12.8799C4.17023 13.0325 4.57395 13.1079 4.98052 13.1014C5.38709 13.095 5.78823 13.007 6.16012 12.8425C6.532 12.6781 6.86704 12.4405 7.14535 12.1441L12.6454 6.64409C12.7395 6.54994 12.8672 6.49705 13.0004 6.49705C13.1335 6.49705 13.2612 6.54994 13.3554 6.64409C13.4495 6.73824 13.5024 6.86594 13.5024 6.99909C13.5024 7.13224 13.4495 7.25994 13.3554 7.35409L7.85535 12.8541C7.48146 13.2302 7.0365 13.5283 6.54637 13.7308C6.05623 13.9334 5.5307 14.0365 5.00035 14.0341Z" fill="#8B93A5"/>
</svg>
