<svg width="66" height="66" viewBox="0 0 66 66" fill="none" xmlns="http://www.w3.org/2000/svg">
<g clip-path="url(#clip0_244_5318)">
<path d="M0 0V66H33L34.9412 31.0588L33 0H0Z" fill="#C4E0FD"/>
<path d="M33 0H66V66H33V0Z" fill="#ABD3FF"/>
<path d="M34.9412 3.88232H62.1176V31.0588H34.9412V3.88232Z" fill="#C4E0FD"/>
<path d="M3.88232 3.88232H31.0588V31.0588H3.88232V3.88232Z" fill="#DDEEFD"/>
<path d="M3.88232 34.9414H31.0588V62.1179H3.88232V34.9414Z" fill="#DDEEFD"/>
<path d="M34.9412 34.9414H62.1176V62.1179H34.9412V34.9414Z" fill="#C4E0FD"/>
<path d="M15.5294 50.4708H7.76465V46.5884H11.647V42.7061H7.76465V38.8237H15.5294V50.4708Z" fill="#577095"/>
<path d="M7.76465 54.353H27.1764V58.2354H7.76465V54.353Z" fill="#ABD3FF"/>
<path d="M46.5882 19.4117H38.8235V15.5294H42.7058V11.647H38.8235V7.76465H46.5882V19.4117Z" fill="#577095"/>
<path d="M38.8235 23.2939H58.2353V27.1763H38.8235V23.2939Z" fill="#8DC5FF"/>
<path d="M15.5294 19.4117H7.76465V15.5294H11.647V11.647H7.76465V7.76465H15.5294V19.4117Z" fill="#577095"/>
<path d="M7.76465 23.2939H27.1764V27.1763H7.76465V23.2939Z" fill="#ABD3FF"/>
<path d="M52.4116 58.2352C50.2676 58.2352 48.5293 56.4969 48.5293 54.3529V43.3576C48.5293 41.1815 51.052 39.9768 52.7445 41.3449L54.8522 43.0486C55.7641 43.7857 56.294 44.8954 56.294 46.0679V54.3529C56.294 56.4969 54.5557 58.2352 52.4116 58.2352Z" fill="#FDA292"/>
<path d="M44.647 58.2352C42.5029 58.2352 40.7646 56.4969 40.7646 54.3529V46.0678C40.7646 44.8953 41.2946 43.7856 42.2064 43.0486L44.3142 41.3449C46.0066 39.9768 48.5294 41.1815 48.5294 43.3576V54.3529C48.5294 56.4969 46.7911 58.2352 44.647 58.2352Z" fill="#FDA292"/>
</g>
<defs>
<clipPath id="clip0_244_5318">
<rect width="66" height="66" fill="white"/>
</clipPath>
</defs>
</svg>
