<svg width="56" height="56" viewBox="0 0 56 56" fill="none" xmlns="http://www.w3.org/2000/svg">
<path d="M28.0001 0.00012207C12.5367 0.00012207 0.00012207 12.5323 0.00012207 28.0001C0.00012207 43.4679 12.5367 56.0001 28.0001 56.0001C43.4635 56.0001 56.0001 43.4603 56.0001 28.0001C56.0001 12.54 43.4635 0.00012207 28.0001 0.00012207Z" fill="#2AD352"/>
<path d="M2.60029e-05 28C-0.00629469 32.6282 1.13979 37.1851 3.33487 41.2596C6.13145 42.0806 9.03133 42.4965 11.946 42.4944C28.7788 42.4944 42.4244 28.8488 42.4244 12.016C42.4269 9.05513 41.998 6.10972 41.1513 3.27254C37.1035 1.11645 32.5862 -0.00759866 28 3.86597e-05C12.5366 3.86597e-05 2.60029e-05 12.5322 2.60029e-05 28Z" fill="#74DA7F"/>
<path d="M43.9687 23.3605L27.1392 41.0344C26.6806 41.5155 26.1295 41.8991 25.5191 42.1622C24.9087 42.4253 24.2514 42.5625 23.5867 42.5656H23.5648C22.9038 42.5658 22.2495 42.4331 21.6407 42.1755C21.032 41.9179 20.4812 41.5407 20.0211 41.0661L11.0906 31.8676C10.6292 31.4045 10.2643 30.8543 10.0173 30.2489C9.77019 29.6436 9.64579 28.9953 9.6513 28.3415C9.65681 27.6877 9.79211 27.0416 10.0493 26.4405C10.3066 25.8395 10.6806 25.2955 11.1498 24.8402C11.619 24.3848 12.1739 24.0272 12.7824 23.7881C13.3909 23.5489 14.0408 23.433 14.6944 23.4471C15.3481 23.4611 15.9924 23.6049 16.5901 23.8699C17.1877 24.135 17.7268 24.5162 18.1759 24.9912L23.5298 30.5059L36.8178 16.5519C37.2629 16.0746 37.7983 15.6902 38.3929 15.4212C38.9875 15.1521 39.6295 15.0035 40.2819 14.9842C40.9343 14.9648 41.584 15.075 42.1935 15.3083C42.803 15.5416 43.3603 15.8935 43.8329 16.3435C44.3056 16.7936 44.6844 17.3329 44.9473 17.9302C45.2102 18.5276 45.3521 19.1711 45.3647 19.8237C45.3773 20.4762 45.2605 21.1248 45.0209 21.7318C44.7812 22.3389 44.4236 22.8925 43.9687 23.3605Z" fill="white"/>
</svg>
