<svg width="233" height="233" viewBox="0 0 233 233" fill="none" xmlns="http://www.w3.org/2000/svg">
<path d="M233 116.5C233 155.669 213.687 190.322 184.026 211.442C164.302 225.466 140.701 233 116.5 233C92.2988 233 68.698 225.466 48.9736 211.442C19.3344 190.322 0 155.669 0 116.5C0 52.1591 52.1656 -6.10352e-05 116.505 -6.10352e-05C180.845 -6.10352e-05 233 52.1591 233 116.5Z" fill="url(#paint0_linear_26_3731)"/>
<path d="M116.506 18.7443C133.336 18.7518 149.879 23.1027 164.536 31.3763C179.192 39.6498 191.465 51.5659 200.168 65.9718C208.87 80.3777 213.708 96.7857 214.212 113.609C214.717 130.432 210.871 147.1 203.047 162.002C195.878 175.56 185.648 187.26 173.168 196.174C156.618 207.934 136.819 214.252 116.516 214.252C96.2141 214.252 76.415 207.934 59.8652 196.174C47.3852 187.26 37.1547 175.56 29.9855 162.002C22.157 147.102 18.307 130.435 18.8079 113.612C19.3089 96.7884 24.1438 80.3793 32.8449 65.9723C41.5459 51.5654 53.8185 39.6484 68.4748 31.3746C83.1312 23.1008 99.6751 18.7503 116.506 18.7443ZM116.506 2.76569C53.6925 2.76569 2.76575 53.6859 2.76575 116.5C2.76575 154.739 21.641 188.57 50.577 209.191C69.8335 222.88 92.8738 230.234 116.5 230.234C140.126 230.234 163.167 222.88 182.423 209.191C211.366 188.57 230.238 154.739 230.238 116.5C230.238 53.6859 179.319 2.76569 116.506 2.76569Z" fill="#A7A9AC"/>
<path style="mix-blend-mode:multiply" opacity="0.5" d="M116.506 18.7443C133.336 18.7518 149.879 23.1027 164.536 31.3763C179.192 39.6498 191.465 51.5659 200.168 65.9718C208.87 80.3777 213.708 96.7857 214.212 113.609C214.717 130.432 210.871 147.1 203.047 162.002C195.878 175.56 185.648 187.26 173.168 196.174C156.618 207.934 136.819 214.252 116.516 214.252C96.2141 214.252 76.415 207.934 59.8652 196.174C47.3852 187.26 37.1547 175.56 29.9855 162.002C22.157 147.102 18.307 130.435 18.8079 113.612C19.3089 96.7884 24.1438 80.3793 32.8449 65.9723C41.5459 51.5654 53.8185 39.6484 68.4748 31.3746C83.1312 23.1008 99.6751 18.7503 116.506 18.7443ZM116.506 2.76569C53.6925 2.76569 2.76575 53.6859 2.76575 116.5C2.76575 154.739 21.641 188.57 50.577 209.191C69.8335 222.88 92.8738 230.234 116.5 230.234C140.126 230.234 163.167 222.88 182.423 209.191C211.366 188.57 230.238 154.739 230.238 116.5C230.238 53.6859 179.319 2.76569 116.506 2.76569Z" fill="url(#paint1_linear_26_3731)"/>
<path d="M116.505 16.3685C133.744 16.3772 150.689 20.8345 165.701 29.3092C180.713 37.784 193.283 49.9894 202.197 64.7449C211.111 79.5004 216.066 96.3065 216.583 113.538C217.101 130.769 213.163 147.842 205.15 163.106C197.805 176.994 187.325 188.98 174.541 198.113C157.59 210.16 137.309 216.632 116.513 216.632C95.7166 216.632 75.436 210.16 58.4841 198.113C45.6999 188.981 35.2199 176.995 27.8756 163.106C19.8558 147.844 15.9115 130.771 16.4246 113.538C16.9376 96.3049 21.8906 79.4963 30.8042 64.7388C39.7177 49.9814 52.2899 37.7749 67.3039 29.3009C82.3179 20.8269 99.2652 16.3724 116.505 16.3685ZM116.505 -6.10352e-05C52.1656 -6.10352e-05 0 52.1591 0 116.5C0 155.669 19.3344 190.322 48.9736 211.442C68.698 225.466 92.2988 233 116.5 233C140.701 233 164.302 225.466 184.026 211.442C213.673 190.308 233 155.669 233 116.5C233 52.1591 180.845 -6.10352e-05 116.505 -6.10352e-05Z" fill="url(#paint2_linear_26_3731)"/>
<g filter="url(#filter0_d_26_3731)">
<path d="M77.7768 122.024H71.4888L70.4808 125H66.1848L72.2808 108.152H77.0328L83.1288 125H78.7848L77.7768 122.024ZM76.7208 118.856L74.6328 112.688L72.5688 118.856H76.7208ZM84.2881 116.552C84.2881 114.888 84.6481 113.408 85.3681 112.112C86.0881 110.8 87.0881 109.784 88.3681 109.064C89.6641 108.328 91.1281 107.96 92.7601 107.96C94.7601 107.96 96.4721 108.488 97.8961 109.544C99.3201 110.6 100.272 112.04 100.752 113.864H96.2401C95.9041 113.16 95.4241 112.624 94.8001 112.256C94.1921 111.888 93.4961 111.704 92.7121 111.704C91.4481 111.704 90.4241 112.144 89.6401 113.024C88.8561 113.904 88.4641 115.08 88.4641 116.552C88.4641 118.024 88.8561 119.2 89.6401 120.08C90.4241 120.96 91.4481 121.4 92.7121 121.4C93.4961 121.4 94.1921 121.216 94.8001 120.848C95.4241 120.48 95.9041 119.944 96.2401 119.24H100.752C100.272 121.064 99.3201 122.504 97.8961 123.56C96.4721 124.6 94.7601 125.12 92.7601 125.12C91.1281 125.12 89.6641 124.76 88.3681 124.04C87.0881 123.304 86.0881 122.288 85.3681 120.992C84.6481 119.696 84.2881 118.216 84.2881 116.552ZM102.569 116.552C102.569 114.888 102.929 113.408 103.649 112.112C104.369 110.8 105.369 109.784 106.649 109.064C107.945 108.328 109.409 107.96 111.041 107.96C113.041 107.96 114.753 108.488 116.177 109.544C117.601 110.6 118.553 112.04 119.033 113.864H114.521C114.185 113.16 113.705 112.624 113.081 112.256C112.473 111.888 111.777 111.704 110.993 111.704C109.729 111.704 108.705 112.144 107.921 113.024C107.137 113.904 106.745 115.08 106.745 116.552C106.745 118.024 107.137 119.2 107.921 120.08C108.705 120.96 109.729 121.4 110.993 121.4C111.777 121.4 112.473 121.216 113.081 120.848C113.705 120.48 114.185 119.944 114.521 119.24H119.033C118.553 121.064 117.601 122.504 116.177 123.56C114.753 124.6 113.041 125.12 111.041 125.12C109.409 125.12 107.945 124.76 106.649 124.04C105.369 123.304 104.369 122.288 103.649 120.992C102.929 119.696 102.569 118.216 102.569 116.552ZM125.651 111.44V114.848H131.147V118.016H125.651V121.712H131.867V125H121.547V108.152H131.867V111.44H125.651ZM147.371 113.576C147.371 114.552 147.147 115.448 146.699 116.264C146.251 117.064 145.563 117.712 144.635 118.208C143.707 118.704 142.555 118.952 141.179 118.952H138.635V125H134.531V108.152H141.179C142.523 108.152 143.659 108.384 144.587 108.848C145.515 109.312 146.211 109.952 146.675 110.768C147.139 111.584 147.371 112.52 147.371 113.576ZM140.867 115.688C141.651 115.688 142.235 115.504 142.619 115.136C143.003 114.768 143.195 114.248 143.195 113.576C143.195 112.904 143.003 112.384 142.619 112.016C142.235 111.648 141.651 111.464 140.867 111.464H138.635V115.688H140.867ZM161.628 108.152V111.44H157.164V125H153.06V111.44H148.596V108.152H161.628Z" fill="white"/>
</g>
<defs>
<filter id="filter0_d_26_3731" x="62.1848" y="107.96" width="103.443" height="25.16" filterUnits="userSpaceOnUse" color-interpolation-filters="sRGB">
<feFlood flood-opacity="0" result="BackgroundImageFix"/>
<feColorMatrix in="SourceAlpha" type="matrix" values="0 0 0 0 0 0 0 0 0 0 0 0 0 0 0 0 0 0 127 0" result="hardAlpha"/>
<feOffset dy="4"/>
<feGaussianBlur stdDeviation="2"/>
<feComposite in2="hardAlpha" operator="out"/>
<feColorMatrix type="matrix" values="0 0 0 0 0 0 0 0 0 0 0 0 0 0 0 0 0 0 0.25 0"/>
<feBlend mode="normal" in2="BackgroundImageFix" result="effect1_dropShadow_26_3731"/>
<feBlend mode="normal" in="SourceGraphic" in2="effect1_dropShadow_26_3731" result="shape"/>
</filter>
<linearGradient id="paint0_linear_26_3731" x1="116.502" y1="-6.10352e-05" x2="116.502" y2="233" gradientUnits="userSpaceOnUse">
<stop stop-color="#FE1500"/>
<stop offset="0.12" stop-color="#F81400"/>
<stop offset="0.27" stop-color="#E81200"/>
<stop offset="0.44" stop-color="#CE0D00"/>
<stop offset="0.63" stop-color="#AA0800"/>
<stop offset="0.82" stop-color="#7B0000"/>
<stop offset="0.83" stop-color="#790000"/>
</linearGradient>
<linearGradient id="paint1_linear_26_3731" x1="116.502" y1="-8.49405" x2="116.502" y2="290.093" gradientUnits="userSpaceOnUse">
<stop stop-color="white"/>
<stop offset="0.02" stop-color="#F9F9F9"/>
<stop offset="0.39" stop-color="#909090"/>
<stop offset="0.69" stop-color="#434343"/>
<stop offset="0.9" stop-color="#121212"/>
<stop offset="1"/>
</linearGradient>
<linearGradient id="paint2_linear_26_3731" x1="113.27" y1="-18.4711" x2="119.399" y2="237.548" gradientUnits="userSpaceOnUse">
<stop offset="0.07" stop-color="#F1F2F2"/>
<stop offset="0.16" stop-color="#EEEFF0"/>
<stop offset="0.22" stop-color="#E6E7E8"/>
<stop offset="0.4" stop-color="#E3E4E5"/>
<stop offset="0.51" stop-color="#DBDCDD"/>
<stop offset="0.58" stop-color="#D1D3D4"/>
<stop offset="0.77" stop-color="#A7A9AC"/>
<stop offset="0.92" stop-color="#808285"/>
<stop offset="0.98" stop-color="#7D7F82"/>
<stop offset="1" stop-color="#7A7C7F"/>
</linearGradient>
</defs>
</svg>
