<svg width="62" height="62" viewBox="0 0 62 62" fill="none" xmlns="http://www.w3.org/2000/svg">
<g clip-path="url(#clip0_27_5340)">
<path d="M57.597 47.7425C57.5851 47.7255 57.574 47.7082 57.5629 47.6906L34.0055 10.3543C32.6092 8.14194 29.3853 8.14557 27.9912 10.3544L4.33264 47.8512C2.84137 50.2149 4.54395 53.3041 7.33976 53.3041H54.6608C57.5186 53.3041 59.2016 50.0881 57.597 47.7425Z" fill="#C6271A"/>
<path d="M7.06197 51.466C6.43652 50.3317 6.47721 48.9466 7.16829 47.8512L30.8269 10.3546C31.2165 9.73739 31.7723 9.26961 32.4163 8.99037C30.8389 8.30655 28.9506 8.8344 27.9912 10.3546L4.33264 47.8512C2.84137 50.215 4.54395 53.3042 7.33976 53.3042H10.1755C8.88043 53.3042 7.68742 52.5998 7.06197 51.466Z" fill="#AF221B"/>
<path d="M54.6607 57.0797H7.33964C1.57728 57.0797 -1.93612 50.7117 1.13941 45.8364L24.7983 8.33982C27.6764 3.77908 34.3242 3.78417 37.1985 8.33958L60.7375 45.6463C64.0188 50.4999 60.5203 57.0797 54.6607 57.0797ZM28.2543 10.5206L4.59578 48.0172C3.23505 50.1741 4.78856 52.9931 7.33976 52.9931H54.6608C57.2665 52.9931 58.8055 50.0604 57.3415 47.92C57.327 47.8991 57.3134 47.8781 57.2999 47.8566L33.7424 10.5205C32.4682 8.50173 29.5265 8.50475 28.2543 10.5206Z" fill="#F74C48"/>
<path d="M3.6286 45.8366L27.2874 8.33985C28.4133 6.55578 30.2104 5.3716 32.2429 5.026C29.3347 4.53194 26.4069 5.79071 24.7983 8.33985L1.1394 45.8366C-1.93516 50.7102 1.57534 57.0799 7.33963 57.0799H9.82871C4.06647 57.0797 0.553066 50.7117 3.6286 45.8366Z" fill="#D63322"/>
<path d="M31.0001 22.4339C29.8719 22.4339 28.9568 23.3488 28.9568 24.4772V36.3428C28.9568 37.4713 29.8719 38.3862 31.0001 38.3862C32.1288 38.3862 33.0436 37.4713 33.0436 36.3428V24.4772C33.0436 23.3488 32.1288 22.4339 31.0001 22.4339Z" fill="#F2F2F2"/>
<path d="M31 46.2703C32.1285 46.2703 33.0433 45.3555 33.0433 44.227C33.0433 43.0985 32.1285 42.1837 31 42.1837C29.8715 42.1837 28.9567 43.0985 28.9567 44.227C28.9567 45.3555 29.8715 46.2703 31 46.2703Z" fill="#F2F2F2"/>
</g>
<defs>
<clipPath id="clip0_27_5340">
<rect width="62" height="62" fill="white"/>
</clipPath>
</defs>
</svg>
