<svg width="16" height="15" viewBox="0 0 16 15" fill="none" xmlns="http://www.w3.org/2000/svg">
<path d="M14.5319 13.0554V3.54798C14.5319 3.1441 14.2917 2.78121 13.9199 2.62343L7.9251 0.0793762C7.6758 -0.0264587 7.38968 -0.0264587 7.14037 0.0793762L1.14557 2.62343C0.773769 2.78121 0.533569 3.1441 0.533569 3.54798V11.7186C0.533569 11.8573 0.645995 11.9697 0.78466 11.9697C0.923325 11.9697 1.03575 11.8573 1.03575 11.7186V3.54798C1.03575 3.34604 1.15587 3.1646 1.34174 3.08569L7.33654 0.541635C7.46124 0.488718 7.60423 0.488718 7.72893 0.541635L13.7237 3.08569C13.9096 3.1646 14.0297 3.34604 14.0297 3.54798V13.0227H13.2623C13.1236 13.0227 13.0112 13.1351 13.0112 13.2737C13.0112 13.4124 13.1236 13.5248 13.2623 13.5248H14.3122C14.4506 13.5248 14.5633 13.6375 14.5633 13.7759V14.2467C14.5633 14.3852 14.4506 14.4978 14.3122 14.4978H0.753274C0.614828 14.4978 0.502182 14.3852 0.502182 14.2467V13.7759C0.502182 13.6375 0.614828 13.5248 0.753274 13.5248H11.2049C11.7415 13.5248 12.1779 13.0883 12.1779 12.5519V10.2592C12.5931 10.1482 12.8998 9.7688 12.8998 9.31906V7.68697C12.8998 7.5516 12.8783 7.41824 12.8359 7.29065C12.7922 7.15905 12.65 7.08777 12.5184 7.13156C12.3869 7.17531 12.3156 7.31743 12.3594 7.44903C12.3848 7.52545 12.3977 7.60552 12.3977 7.68697V9.31906C12.3977 9.57866 12.1865 9.78986 11.9269 9.78986C11.7882 9.78986 11.6758 9.90228 11.6758 10.0409V12.5519C11.6758 12.8115 11.4646 13.0227 11.205 13.0227H11.0167V10.4804C11.0167 10.3417 10.9042 10.2293 10.7656 10.2293C10.6269 10.2293 10.5145 10.3417 10.5145 10.4804V13.0227H10.3262C10.0666 13.0227 9.85536 12.8115 9.85536 12.5519V10.0409C9.85536 9.90228 9.74294 9.78986 9.60427 9.78986C9.34467 9.78986 9.13347 9.57866 9.13347 9.31906V7.68697C9.13347 7.27163 9.47141 6.9337 9.88675 6.9337H9.96098C10.197 6.9337 10.3023 6.63556 10.1181 6.48675C9.87131 6.2888 9.72978 5.99411 9.72978 5.67824C9.72978 5.10713 10.1944 4.64249 10.7655 4.64249C11.3366 4.64249 11.8013 5.10713 11.8013 5.67824C11.8013 6.13686 11.5069 6.53499 11.0689 6.66892C10.9362 6.70947 10.8616 6.84983 10.9022 6.98244C10.9428 7.11527 11.0833 7.18962 11.2157 7.14916C11.8663 6.95027 12.3035 6.35914 12.3035 5.67824C12.3035 4.83021 11.6136 4.14031 10.7655 4.14031C9.91751 4.14031 9.2276 4.83021 9.2276 5.67824C9.2276 5.97569 9.31234 6.26027 9.46755 6.50373C8.98081 6.67667 8.63126 7.14166 8.63126 7.68697V9.31906C8.63126 9.7688 8.93794 10.1482 9.35315 10.2592V12.5519C9.35315 12.7226 9.39746 12.8831 9.47502 13.0227H5.59045C5.66798 12.8831 5.71233 12.7226 5.71233 12.5519V10.2592C6.12754 10.1482 6.43421 9.7688 6.43421 9.31906V7.68697C6.43421 6.99471 5.87101 6.43151 5.17876 6.43151C5.10594 6.43151 5.02707 6.42285 4.94744 6.48672C4.27621 7.02506 3.26419 6.54927 3.26419 5.67824C3.26419 5.10713 3.72883 4.64249 4.29994 4.64249C4.87104 4.64249 5.33569 5.10713 5.33569 5.67824C5.33569 5.8169 5.44811 5.92933 5.58678 5.92933C5.72544 5.92933 5.83787 5.8169 5.83787 5.67824C5.83787 4.83021 5.14797 4.14031 4.29994 4.14031C3.45191 4.14031 2.762 4.83021 2.762 5.67824C2.762 6.52627 3.45191 7.21617 4.29994 7.21617C4.61757 7.21617 4.92917 7.11633 5.18742 6.93392C5.59877 6.93859 5.93203 7.27455 5.93203 7.68697V9.31906C5.93203 9.57866 5.72083 9.78986 5.46123 9.78986C5.32257 9.78986 5.21014 9.90228 5.21014 10.0409V12.5519C5.21014 12.8115 4.99894 13.0227 4.73935 13.0227H4.55103V10.4804C4.55103 10.3417 4.4386 10.2293 4.29994 10.2293C4.16127 10.2293 4.04885 10.3417 4.04885 10.4804V13.0227H3.86053C3.60093 13.0227 3.38973 12.8115 3.38973 12.5519V10.0409C3.38973 9.90228 3.27731 9.78986 3.13864 9.78986C2.87904 9.78986 2.66784 9.57866 2.66784 9.31906V7.68697C2.66784 7.58518 2.68774 7.48654 2.72694 7.39382C2.78096 7.26611 2.7212 7.11875 2.59349 7.06476C2.46575 7.01075 2.31845 7.07051 2.26443 7.19822C2.1989 7.35317 2.16566 7.51761 2.16566 7.68697V9.31906C2.16566 9.7688 2.47234 10.1482 2.88755 10.2592V12.5519C2.88755 12.7226 2.93187 12.8831 3.00942 13.0227H0.753274C0.337937 13.0227 0 13.3606 0 13.7759V14.2467C0 14.6621 0.337937 15 0.753274 15H14.3122C14.7275 15 15.0655 14.6621 15.0655 14.2467V13.7759C15.0655 13.437 14.8404 13.1497 14.5319 13.0554Z" fill="#72AB66"/>
<path d="M4.58136 2.94174C4.59969 2.9752 4.57571 2.9429 5.11226 3.58011C5.20178 3.68642 5.36021 3.69954 5.46605 3.61043C5.5721 3.52111 5.58569 3.3627 5.49637 3.25664L5.34182 3.07313H6.59116C6.72982 3.07313 6.84225 2.9607 6.84225 2.82204C6.84225 2.68337 6.72982 2.57094 6.59116 2.57094H5.34185L5.4964 2.38743C5.58573 2.28134 5.57214 2.12293 5.46608 2.03364C5.35996 1.94431 5.20159 1.95791 5.11229 2.06396C4.57731 2.69935 4.58337 2.67954 4.56228 2.74768C4.54163 2.81526 4.55063 2.88456 4.58136 2.94174Z" fill="#72AB66"/>
<path d="M8.2234 2.82207C8.2234 2.96073 8.33583 3.07316 8.4745 3.07316H9.7238L9.56925 3.25667C9.47993 3.36276 9.49352 3.52117 9.59957 3.61046C9.70522 3.69941 9.86369 3.68664 9.95336 3.58014C10.6426 2.76162 10.4048 3.04384 10.4563 2.98283C10.5232 2.90292 10.5343 2.78767 10.4799 2.6952C10.4625 2.66548 10.4903 2.70167 9.95339 2.06396C9.86406 1.95791 9.70569 1.94431 9.5996 2.03364C9.49355 2.12297 9.47996 2.28137 9.56928 2.38743L9.72383 2.57094H8.4745C8.33583 2.57098 8.2234 2.6834 8.2234 2.82207Z" fill="#72AB66"/>
</svg>
