<svg width="24" height="21" viewBox="0 0 24 21" fill="none" xmlns="http://www.w3.org/2000/svg">
<path d="M5.59879 15.7854L6.04961 15.186L5.59879 15.7854ZM2.85444 9.25175L2.1251 9.42655L2.85444 9.25175ZM5.41888 15.6435L5.89669 15.0654L5.41888 15.6435ZM21.8523 9.74254L21.123 9.56774L21.8523 9.74254ZM19.7229 15.3575L19.1975 14.8223L19.7229 15.3575ZM18.8735 16.0273L18.4755 15.3917L18.8735 16.0273ZM21.7752 5.75598L22.29 5.21052L21.7752 5.75598ZM22.137 6.21465L21.4866 6.5881L22.137 6.21465ZM1.56086 0.818098C1.4604 0.416252 1.0532 0.171932 0.65135 0.272393C0.249504 0.372855 0.00518352 0.780055 0.105645 1.1819L1.56086 0.818098ZM15.8333 13.75C16.2475 13.75 16.5833 13.4142 16.5833 13C16.5833 12.5858 16.2475 12.25 15.8333 12.25V13.75ZM9.83325 12.25C9.41904 12.25 9.08325 12.5858 9.08325 13C9.08325 13.4142 9.41904 13.75 9.83325 13.75V12.25ZM1.88588 5.96053H18.2782V4.46053H1.88588V5.96053ZM12.9169 16.0395H12.4122V17.5395H12.9169V16.0395ZM3.58379 9.07694L2.61523 5.03572L1.15654 5.38533L2.1251 9.42655L3.58379 9.07694ZM12.4122 16.0395C10.5684 16.0395 9.24977 16.0383 8.2231 15.919C7.21541 15.8019 6.57115 15.5783 6.04961 15.186L5.14797 16.3848C5.96143 16.9966 6.89774 17.275 8.04993 17.4089C9.18316 17.5406 10.6038 17.5395 12.4122 17.5395V16.0395ZM2.1251 9.42655C2.54658 11.1852 2.87654 12.5669 3.26874 13.6383C3.6675 14.7275 4.1565 15.5731 4.94108 16.2216L5.89669 15.0654C5.39367 14.6496 5.02606 14.0752 4.67731 13.1226C4.32199 12.152 4.01353 10.87 3.58379 9.07694L2.1251 9.42655ZM6.04961 15.186C5.99772 15.147 5.94674 15.1067 5.89669 15.0654L4.94108 16.2216C5.00879 16.2775 5.07777 16.332 5.14797 16.3848L6.04961 15.186ZM21.123 9.56774C20.7512 11.1188 20.4845 12.2278 20.1877 13.0777C19.8959 13.9132 19.5967 14.4304 19.1975 14.8223L20.2483 15.8927C20.874 15.2785 21.2712 14.5245 21.6038 13.5723C21.9314 12.6343 22.217 11.4388 22.5817 9.91734L21.123 9.56774ZM12.9169 17.5395C14.4815 17.5395 15.7106 17.5404 16.6991 17.4404C17.7026 17.3389 18.5284 17.1283 19.2715 16.663L18.4755 15.3917C18.0014 15.6885 17.4287 15.859 16.5481 15.948C15.6525 16.0386 14.5119 16.0395 12.9169 16.0395V17.5395ZM19.1975 14.8223C18.9781 15.0376 18.7361 15.2285 18.4755 15.3917L19.2715 16.663C19.624 16.4423 19.9515 16.184 20.2483 15.8927L19.1975 14.8223ZM18.2782 5.96053C19.2707 5.96053 19.9462 5.96185 20.4489 6.02319C20.9392 6.08301 21.1402 6.18794 21.2605 6.30143L22.29 5.21052C21.8323 4.77856 21.2578 4.61076 20.6306 4.53423C20.0157 4.45921 19.2317 4.46053 18.2782 4.46053V5.96053ZM22.5817 9.91734C22.8039 8.99004 22.9879 8.22794 23.0583 7.61254C23.13 6.98475 23.1008 6.38698 22.7874 5.8412L21.4866 6.5881C21.5689 6.7315 21.6241 6.95145 21.568 7.44219C21.5105 7.94532 21.3543 8.60257 21.123 9.56774L22.5817 9.91734ZM21.2605 6.30143C21.3495 6.38541 21.4256 6.482 21.4866 6.5881L22.7874 5.8412C22.6533 5.60776 22.4858 5.39527 22.29 5.21052L21.2605 6.30143ZM2.61349 5.02863L1.56086 0.818098L0.105645 1.1819L1.15828 5.39243L2.61349 5.02863ZM15.8333 12.25H9.83325V13.75H15.8333V12.25Z" fill="white"/>
<path d="M10.3069 19.9472C10.3069 20.5285 9.83564 20.9998 9.25429 20.9998C8.67294 20.9998 8.20166 20.5285 8.20166 19.9472C8.20166 19.3658 8.67294 18.8945 9.25429 18.8945C9.83564 18.8945 10.3069 19.3658 10.3069 19.9472Z" fill="white"/>
<path d="M16.6227 19.9472C16.6227 20.5285 16.1514 20.9998 15.5701 20.9998C14.9887 20.9998 14.5175 20.5285 14.5175 19.9472C14.5175 19.3658 14.9887 18.8945 15.5701 18.8945C16.1514 18.8945 16.6227 19.3658 16.6227 19.9472Z" fill="white"/>
</svg>
