<svg width="71" height="71" viewBox="0 0 71 71" fill="none" xmlns="http://www.w3.org/2000/svg">
<g clip-path="url(#clip0_244_5272)">
<path d="M48.4242 13.1546C48.0811 13.1546 47.744 12.9908 47.5356 12.6864L46.2525 10.8126C45.9168 10.3225 46.042 9.65286 46.5323 9.31706C47.0225 8.98154 47.6922 9.10677 48.0279 9.59692L49.311 11.4707C49.6466 11.9609 49.5214 12.6305 49.0311 12.9663C48.8454 13.0935 48.6336 13.1546 48.4242 13.1546Z" fill="#F2EDE2"/>
<path d="M40.5559 15.5787C40.3255 15.5787 40.0933 15.505 39.8971 15.353C39.4277 14.9888 39.3424 14.313 39.7066 13.8435L40.8369 12.3865C41.201 11.9171 41.8767 11.832 42.3464 12.1961C42.8157 12.5603 42.9011 13.236 42.5369 13.7055L41.4065 15.1625C41.1947 15.4357 40.8768 15.5787 40.5559 15.5787Z" fill="#F2EDE2"/>
<path d="M19.4931 4.6549C17.5709 4.41679 15.8467 5.56003 15.6416 7.20964L15.2629 10.2521C15.2371 10.4572 15.2285 10.6623 15.2371 10.866C15.2687 11.6248 15.5283 12.3679 15.9845 13.022V14.772C15.9845 14.772 20.5042 15.1471 20.5256 15.2006C20.547 15.2541 20.5331 13.7019 20.5331 13.7019C21.4841 13.0191 22.1066 12.0379 22.2443 10.932L22.4552 9.23506L22.6001 8.07603C22.6144 7.96702 22.6202 7.858 22.6202 7.75042C22.6202 6.22992 21.2876 4.87868 19.4931 4.6549Z" fill="#EDA57E"/>
<path d="M18.0315 14.9473V14.0109C17.5754 13.3568 17.3158 12.6137 17.2842 11.8549C17.2756 11.6512 17.2842 11.4461 17.31 11.241L17.6887 8.19854C17.8938 6.54893 19.618 5.40569 21.5402 5.6438C21.5858 5.64954 21.6297 5.65901 21.6746 5.66604C21.121 5.13759 20.3622 4.76335 19.4931 4.6549C17.5709 4.41679 15.8467 5.56003 15.6416 7.20964L15.2629 10.2521C15.2371 10.4572 15.2285 10.6623 15.2371 10.866C15.2687 11.6248 15.5283 12.3679 15.9845 13.022V14.772C15.9845 14.772 16.9754 14.8543 18.0315 14.9473Z" fill="#E89F77"/>
<path d="M27.3609 5.6446C25.0773 5.36058 22.9945 6.98149 22.7105 9.26655L22.1855 13.4809C22.1496 13.7707 22.1352 14.0604 22.1424 14.3502V18.7898H27.4097H27.4111C29.0966 17.8631 30.2499 16.1805 30.4908 14.2526L30.9828 10.2965C31.2669 8.01142 29.646 5.92862 27.3609 5.6446Z" fill="#EDA57E"/>
<path d="M23.9241 15.7054C23.917 15.4157 23.9313 15.1259 23.9672 14.8362L24.4922 10.6218C24.7762 8.33675 26.859 6.71583 29.1426 6.99985C29.5015 7.04446 29.8441 7.13354 30.1654 7.26078C29.51 6.39768 28.5215 5.7889 27.3609 5.6446C25.0773 5.36058 22.9945 6.98149 22.7105 9.26655L22.1855 13.4809C22.1496 13.7707 22.1352 14.0604 22.1424 14.3502V18.7898H23.9241V15.7054Z" fill="#E89F77"/>
<path d="M51.176 4.78523C53.0904 4.49088 54.8473 5.58292 55.1007 7.22578L55.5685 10.2557C55.6004 10.46 55.615 10.6648 55.6123 10.8687C55.6029 11.6281 55.3653 12.3784 54.9285 13.0456L54.9798 14.7949C54.9798 14.7949 50.4731 15.3024 50.4532 15.3566C50.4334 15.4108 50.4018 13.8588 50.4018 13.8588C49.4311 13.2041 48.7802 12.2417 48.6101 11.1402L48.3496 9.45016L48.1707 8.29586C48.1532 8.18728 48.1442 8.07855 48.141 7.97096C48.0965 6.45118 49.389 5.0615 51.176 4.78523Z" fill="#EDA57E"/>
<path d="M52.6761 14.8032C51.7054 14.1486 51.0545 13.1861 50.8844 12.0846L50.6239 10.3946L50.445 9.24026C50.4275 9.13182 50.4185 9.02295 50.4153 8.91536C50.3707 7.39544 51.6631 6.00575 53.4503 5.72948C53.7342 5.68588 54.0143 5.6734 54.2869 5.68788C53.5428 4.97081 52.3914 4.59829 51.176 4.78519C49.3888 5.06146 48.0964 6.45115 48.141 7.97108C48.1442 8.07866 48.1531 8.18739 48.1707 8.29598L48.3494 9.45027L48.6099 11.1403C48.7801 12.2418 49.431 13.2042 50.4017 13.8589C50.4017 13.8589 50.4332 15.4109 50.453 15.3567C50.4628 15.3299 51.5666 15.1926 52.6814 15.0606C52.6783 14.9076 52.6761 14.8032 52.6761 14.8032Z" fill="#E89F77"/>
<path d="M43.3407 6.00536C45.615 5.6545 47.7444 7.21359 48.0954 9.48932L48.7438 13.6865C48.7881 13.9751 48.8109 14.2643 48.8124 14.5542L48.9426 18.9917L43.6777 19.1462H43.6762C41.9644 18.2694 40.7622 16.6213 40.4648 14.7013L39.857 10.7612C39.5057 8.48579 41.0648 6.35637 43.3407 6.00536Z" fill="#EDA57E"/>
<path d="M43.2299 14.9863L42.6222 11.0464C42.2891 8.8871 43.6763 6.86053 45.7631 6.35905C45.0346 6.01249 44.198 5.87306 43.3407 6.00531C41.0649 6.35618 39.5057 8.48574 39.8567 10.7613L40.4645 14.7014C40.7618 16.6214 41.964 18.2695 43.676 19.1462H43.6775L45.8484 19.0825C44.4545 18.1543 43.4916 16.6759 43.2299 14.9863Z" fill="#E89F77"/>
<path d="M65.6472 16.0925C65.7499 15.8254 65.8991 15.5799 66.0938 15.3647L67.3014 14.0234C67.9991 13.248 69.2958 13.2789 70.198 14.0919C71.1001 14.9035 71.2655 16.1902 70.5693 16.9655L69.2824 18.3938C69.0295 18.6738 68.7171 18.8854 68.3666 19.0219C68.3666 19.0219 67.0745 19.8674 67.0313 19.8687C66.988 19.87 64.4863 17.1354 64.4863 17.1354L65.6472 16.0925Z" fill="#EDA57E"/>
<path d="M65.6933 18.4471L66.8543 17.4041C66.957 17.137 67.1062 16.8915 67.3007 16.6763L68.5084 15.3349C69.0715 14.7091 70.0249 14.6091 70.8461 15.0212C70.7135 14.6831 70.4972 14.3608 70.1977 14.0914C69.2956 13.2784 67.9989 13.2476 67.3012 14.0229L66.0935 15.3642C65.8989 15.5794 65.7497 15.825 65.6471 16.092L64.4861 17.135C64.4861 17.135 65.2306 17.9488 65.9144 18.6884C65.7775 18.5392 65.6933 18.4471 65.6933 18.4471Z" fill="#E89F77"/>
<path d="M61.5127 13.8343C61.4416 13.3657 61.4765 12.8912 61.6312 12.4416L62.3492 10.3527C62.6573 9.45971 63.5466 8.90545 64.5589 8.87576C64.9131 8.86543 65.2806 8.91922 65.6445 9.04473C67.0492 9.52728 67.8514 10.8957 67.4363 12.1019L66.6721 14.3272C66.4474 14.9796 65.9997 15.5222 65.3995 15.8986L64.0437 17.7351L60.7644 15.6427L61.5127 13.8343Z" fill="#EDA57E"/>
<path d="M62.4409 16.7127L62.847 15.7318C62.7758 15.2632 62.8107 14.7885 62.9654 14.3391L63.6834 12.2501C63.9915 11.3572 64.8809 10.8029 65.8931 10.7732C66.2473 10.7628 66.6148 10.8167 66.9787 10.9422C67.1752 11.0098 67.3586 11.0961 67.5298 11.1955C67.4184 10.2746 66.7027 9.40836 65.6445 9.04488C65.2806 8.91922 64.9131 8.86543 64.559 8.87576C63.5467 8.90545 62.6575 9.45971 62.3492 10.3527L61.6313 12.4416C61.4765 12.891 61.4416 13.3655 61.5128 13.8342L60.7642 15.6427L62.4409 16.7127Z" fill="#E89F77"/>
<path d="M55.6219 11.1946L55.6339 10.8698L55.7086 8.72363C55.7586 7.2958 57.1467 6.18583 58.8087 6.24335C60.4723 6.30216 61.779 7.50508 61.7291 8.93306L61.637 11.5663C61.6118 12.319 61.3212 13.0307 60.8248 13.6235L60.8871 15.743L56.1773 14.5533L56.1421 13.0779C55.7867 12.5071 55.5999 11.861 55.6219 11.1946Z" fill="#EDA57E"/>
<path d="M57.8098 14.0557C57.4544 13.4849 57.2676 12.8389 57.2897 12.1724L57.3017 11.8477L57.3765 9.70162C57.4264 8.27364 58.8146 7.16382 60.4766 7.22119C60.7038 7.22923 60.9236 7.26035 61.1348 7.30884C60.6044 6.6916 59.7667 6.27719 58.8088 6.24334C57.1467 6.18596 55.7586 7.29579 55.7087 8.72377L55.6339 10.8698L55.6219 11.1946C55.5998 11.861 55.7867 12.5071 56.1421 13.0779L56.1773 14.5533L57.8318 14.9713L57.8098 14.0557Z" fill="#E89F77"/>
<path d="M41.4144 26.1486C41.2738 29.6714 42.4817 32.9366 44.5802 35.4438C45.5008 36.5448 46.3794 37.6829 47.1765 38.8777L50.0449 43.1762C50.8195 44.3374 51.3034 45.6678 51.4589 47.0553L52.8629 59.69C53.0732 61.5724 53.9754 63.222 55.3 64.3987C56.6247 65.5753 58.3688 66.2789 60.2626 66.265C64.0489 66.2372 67.2018 63.3563 67.5677 59.5886L70.7188 27.2017C70.8395 24.1759 69.9571 21.3418 68.3663 19.022C67.6092 17.9176 66.6919 16.9286 65.647 16.0924C65.5647 16.0275 65.4825 15.9623 65.3989 15.8988C64.2391 15.0129 62.9299 14.3094 61.5124 13.8344C61.2863 13.7578 61.0561 13.687 60.8246 13.6235C59.8378 13.3497 58.804 13.1848 57.7365 13.1415L56.1417 13.0778L55.5915 13.0566C55.3689 13.0489 55.1477 13.0453 54.9282 13.046C54.8307 13.0474 54.7317 13.0489 54.6341 13.0517C53.1544 13.0952 51.7306 13.3766 50.4014 13.859C49.8547 14.0558 49.3234 14.2882 48.8116 14.5543C46.7363 15.6212 44.966 17.2071 43.6769 19.1465C42.3386 21.1604 41.5177 23.5552 41.4144 26.1486Z" fill="#FCC29C"/>
<path d="M5.35962 16.3819C5.24916 16.1179 5.09281 15.8768 4.89199 15.6675L3.64546 14.3622C2.92538 13.6077 1.63008 13.6765 0.752207 14.5156C-0.125668 15.3534 -0.253333 16.6444 0.465319 17.3989L1.79361 18.7888C2.05467 19.0614 2.37312 19.2636 2.72743 19.3899C2.72743 19.3899 4.04381 20.197 4.08713 20.197C4.13045 20.197 6.55091 17.3903 6.55091 17.3903L5.35962 16.3819Z" fill="#EDA57E"/>
<path d="M3.96582 18.2651C3.61151 18.1389 3.29307 17.9366 3.032 17.6641L1.70371 16.2741C1.14701 15.6894 1.10024 14.7836 1.5148 14.0151C1.24383 14.1283 0.983194 14.2944 0.751963 14.5155C-0.125912 15.3532 -0.253577 16.6442 0.465075 17.3987L1.79336 18.7887C2.05443 19.0612 2.37288 19.2635 2.72718 19.3897C2.72718 19.3897 4.04356 20.1968 4.08688 20.1968C4.10653 20.1968 4.61576 19.6188 5.16601 18.9873C4.80697 18.7808 3.96582 18.2651 3.96582 18.2651Z" fill="#E89F77"/>
<path d="M9.42606 14.0033C9.48344 13.5328 9.43467 13.0594 9.26684 12.6147L8.48794 10.5477C8.15371 9.6641 7.24858 9.13623 6.23587 9.13623C5.88157 9.13623 5.51579 9.20078 5.15574 9.33705C3.76577 9.86062 3.00409 11.252 3.4545 12.4455L4.28361 14.6473C4.52746 15.2928 4.99078 15.8221 5.60185 16.1807L7.0109 17.9768L10.2273 15.789L9.42606 14.0033Z" fill="#EDA57E"/>
<path d="M7.44295 15.1129C6.83188 14.7543 6.36856 14.225 6.1247 13.5795L5.2956 11.3777C5.01617 10.6373 5.20394 9.82129 5.7179 9.18311C5.53056 9.21624 5.34236 9.26673 5.15574 9.33731C3.76577 9.86088 3.00409 11.2523 3.4545 12.4457L4.28361 14.6476C4.52746 15.2931 4.99078 15.8224 5.60185 16.181L7.0109 17.9771L8.75776 16.7889L7.44295 15.1129Z" fill="#E89F77"/>
<path d="M15.2371 11.1919L15.2156 10.8678L15.0779 8.72471C14.9861 7.29888 13.566 6.23022 11.9064 6.33637C10.2453 6.44395 8.9744 7.68474 9.0662 9.11057L9.23546 11.7399C9.2828 12.4915 9.59407 13.1944 10.1076 13.7725V15.893L14.7804 14.5657L14.7724 13.0898C15.1109 12.5088 15.2787 11.8575 15.2371 11.1919Z" fill="#EDA57E"/>
<path d="M12.5717 15.193V13.7725C12.0581 13.1944 11.7469 12.4915 11.6995 11.7399L11.5303 9.11058C11.4583 7.99229 12.2263 6.99048 13.3616 6.55728C12.9223 6.38515 12.4261 6.3031 11.9064 6.33638C10.2453 6.44396 8.9744 7.68475 9.0662 9.11058L9.23546 11.7399C9.2828 12.4915 9.59407 13.1944 10.1076 13.7725V15.893L12.5717 15.193Z" fill="#E89F77"/>
<path d="M29.877 25.7229C30.1209 29.2401 29.0092 32.5393 26.9852 35.107C26.0973 36.2344 25.2524 37.3978 24.4907 38.6156L21.7495 42.9964C21.0093 44.1798 20.5647 45.5239 20.4499 46.9153L19.4171 59.5856C19.2622 61.4734 18.4087 63.1488 17.1191 64.3637C15.8296 65.5787 14.1068 66.3332 12.2134 66.3748C8.42789 66.458 5.19181 63.6709 4.71557 59.9156L0.615955 27.635C0.406528 24.6141 1.20551 21.7552 2.72745 19.3899C3.45184 18.2638 4.33975 17.2483 5.35964 16.3819C5.43996 16.3144 5.52029 16.247 5.60206 16.181C6.73526 15.2616 8.02338 14.52 9.42626 14.0036C9.65003 13.9204 9.87811 13.8429 10.1076 13.7726C11.0859 13.4699 12.1144 13.2749 13.1802 13.2003L14.7724 13.0898L15.3218 13.0525C15.5441 13.0382 15.765 13.0281 15.9845 13.0224C16.082 13.021 16.181 13.0195 16.2786 13.0195C17.7589 13.0195 19.1905 13.2591 20.5331 13.7023C21.0854 13.8831 21.6233 14.0997 22.1425 14.3507C24.2483 15.3562 26.0643 16.8896 27.4098 18.7903C28.8069 20.7641 29.6977 23.1337 29.877 25.7229Z" fill="#FCC29C"/>
<path d="M62.4065 64.3984C61.0818 63.2217 60.1795 61.5721 59.9694 59.6897L58.5654 47.055C58.4099 45.6677 57.9259 44.3372 57.1514 43.176L54.2828 38.8776C53.4857 37.6826 52.6071 36.5446 51.6865 35.4437C49.5881 32.9365 48.3801 29.6714 48.5207 26.1484C48.624 23.5551 49.4449 21.1605 50.7835 19.1465C52.0727 17.2071 53.8429 15.6212 55.9182 14.5543C56.4299 14.2882 56.9612 14.0558 57.508 13.859C58.132 13.6325 58.7777 13.4522 59.4395 13.3181C58.8831 13.2253 58.3151 13.165 57.7368 13.1415L56.142 13.0778L55.5918 13.0567C55.3691 13.0489 55.148 13.0453 54.9285 13.046C54.8309 13.0474 54.732 13.0489 54.6344 13.0517C53.1548 13.0952 51.7308 13.3766 50.4017 13.859C49.8549 14.056 49.3236 14.2882 48.8119 14.5543C46.7366 15.6212 44.9663 17.2071 43.6772 19.1465C42.3386 21.1605 41.5177 23.5552 41.4144 26.1484C41.2738 29.6714 42.4817 32.9365 44.5802 35.4437C45.5008 36.5446 46.3794 37.6827 47.1765 38.8776L50.0451 43.176C50.8197 44.3372 51.3035 45.6677 51.459 47.055L52.863 59.6897C53.0732 61.5721 53.9754 63.2217 55.3002 64.3984C56.6249 65.575 58.369 66.2786 60.2627 66.2647C61.5266 66.2554 62.7192 65.9269 63.7617 65.3549C63.2748 65.087 62.8202 64.7659 62.4065 64.3984Z" fill="#F4B795"/>
<path d="M11.8218 59.9156L7.72215 27.635C7.51272 24.6141 8.31171 21.7552 9.83364 19.3899C10.558 18.2638 11.4459 17.2483 12.4658 16.3819C12.5462 16.3144 12.6265 16.247 12.7083 16.181C13.8415 15.2616 15.1296 14.52 16.5325 14.0036C16.7562 13.9204 16.9843 13.8429 17.2138 13.7726C17.8395 13.579 18.486 13.4301 19.1494 13.3278C18.2215 13.1273 17.2612 13.0195 16.2786 13.0195C16.181 13.0195 16.082 13.021 15.9845 13.0224C15.765 13.0281 15.5441 13.0382 15.3218 13.0525L14.7724 13.0898L13.1802 13.2003C12.1144 13.2749 11.0859 13.4699 10.1076 13.7726C9.87811 13.8429 9.65003 13.9204 9.42626 14.0036C8.02338 14.52 6.73526 15.2616 5.60206 16.181C5.52029 16.247 5.43996 16.3144 5.35964 16.3819C4.33975 17.2483 3.45184 18.2638 2.72745 19.3899C1.20551 21.7552 0.406528 24.6141 0.615955 27.635L4.71557 59.9156C5.19181 63.6709 8.4279 66.458 12.2134 66.3748C13.4385 66.3479 14.5912 66.0211 15.6024 65.4657C13.5884 64.3603 12.1293 62.3405 11.8218 59.9156Z" fill="#F4B795"/>
<path d="M41.1709 20.8183C41.1674 20.8139 41.1637 20.8093 41.1603 20.8048C40.0367 19.4048 39.9288 17.485 40.8149 15.9869C40.6533 15.5769 40.5337 15.147 40.4647 14.7016L40.2916 13.5796C40.053 13.6185 39.8262 13.7374 39.6548 13.9333C37.6126 16.2704 37.5383 19.7224 39.4767 22.1449L44.4701 28.5745C44.6822 28.8474 44.9997 28.9903 45.3206 28.9903C45.5511 28.9903 45.7836 28.9164 45.9798 28.7642C46.449 28.3998 46.5339 27.7238 46.1696 27.2546L41.1709 20.8183Z" fill="#F2EDE2"/>
<path d="M49.4648 11.6989C49.2363 11.2959 48.7867 11.0982 48.3547 11.1689L48.7435 13.6868C48.7879 13.9754 48.8108 14.2646 48.8121 14.5543C48.7139 15.1731 48.7117 15.8018 48.7823 16.4245C48.9475 17.8819 48.7793 19.3743 48.2654 20.7882C48.2571 20.8141 48.2487 20.84 48.2403 20.8658L46.1045 28.454C45.9435 29.0259 46.2766 29.6202 46.8487 29.7811C46.9462 29.8085 47.0442 29.8216 47.1407 29.8216C47.6105 29.8216 48.0421 29.5115 48.1758 29.037L50.3009 21.4862C51.4635 18.2542 51.1593 14.6892 49.4648 11.6989Z" fill="#F2EDE2"/>
<path d="M54.1232 43.5787C54.3484 45.2671 53.1621 46.8191 51.4737 47.0443L45.4046 47.8533C43.7163 48.0785 42.1657 46.8923 41.9405 45.2039L40.1618 31.868C39.9868 30.5569 40.5405 29.2544 41.6077 28.4712L44.8825 26.07C45.2827 25.7759 45.8063 25.7056 46.2696 25.8849L50.0594 27.3438C51.293 27.82 52.1695 28.9317 52.3445 30.2428L54.1232 43.5787Z" fill="#7ADCED"/>
<path d="M48.4068 45.3753C46.7185 45.6005 45.1678 44.4142 44.9426 42.7259L43.1639 29.39C43.046 28.5071 43.2599 27.6289 43.7371 26.9097L41.6077 28.4711C40.5405 29.2543 39.9868 30.5567 40.1618 31.8678L41.9405 45.2037C42.1657 46.8921 43.7163 48.0784 45.4046 47.8532L51.4737 47.0441C52.8056 46.8666 53.8244 45.8629 54.085 44.6184L48.4068 45.3753Z" fill="#5CC6CC"/>
<path d="M46.261 30.3629C47.2077 30.3715 47.968 31.1461 47.9594 32.0942C47.9507 33.041 47.1761 33.8012 46.228 33.7926C45.2813 33.784 44.521 33.0094 44.5296 32.0612C44.5382 31.1145 45.3128 30.3543 46.261 30.3629Z" fill="#1CAEC6"/>
</g>
<defs>
<clipPath id="clip0_244_5272">
<rect width="71" height="71" fill="white"/>
</clipPath>
</defs>
</svg>
