<svg width="14" height="14" viewBox="0 0 14 14" fill="none" xmlns="http://www.w3.org/2000/svg">
<g clip-path="url(#clip0_658_7364)">
<path d="M9.05359 8.69976C8.94742 8.59231 8.77557 8.58916 8.66386 8.69265C8.66386 8.69265 7.86645 9.47297 7.81365 9.5218C7.80059 9.53475 7.78618 9.54496 7.76979 9.55324C6.94052 9.97324 3.94732 6.7687 4.51835 6.16611L5.37159 5.33002C5.48213 5.22123 5.4826 5.04349 5.37544 4.93511L2.5829 2.08756C2.53122 2.0346 2.46023 2.0045 2.3862 2.00391C2.31189 2.00333 2.24119 2.03256 2.18787 2.08418C0.789503 3.45694 -1.45219 4.83746 3.78475 10.179C8.95325 15.4499 10.435 13.4523 11.8615 11.9182C11.964 11.8085 11.9612 11.6378 11.8566 11.5311L9.05359 8.69976Z" stroke="#667085" stroke-miterlimit="10" stroke-linecap="round" stroke-linejoin="round"/>
<path d="M11.4792 6.61761C11.5545 4.32447 9.68992 2.46358 7.40039 2.53883" stroke="#667085" stroke-miterlimit="10" stroke-linecap="round" stroke-linejoin="round"/>
<path d="M13.4564 6.61752C13.5305 3.23454 10.7868 0.487327 7.40045 0.561527" stroke="#667085" stroke-miterlimit="10" stroke-linecap="round" stroke-linejoin="round"/>
<path d="M7.40045 4.51613C8.59658 4.43744 9.58066 5.42228 9.50197 6.61765" stroke="#667085" stroke-miterlimit="10" stroke-linecap="round" stroke-linejoin="round"/>
</g>
<defs>
<clipPath id="clip0_658_7364">
<rect width="14" height="14" fill="white"/>
</clipPath>
</defs>
</svg>
