<svg width="12" height="12" viewBox="0 0 12 12" fill="none" xmlns="http://www.w3.org/2000/svg">
<mask id="mask0_411_2145" style="mask-type:luminance" maskUnits="userSpaceOnUse" x="0" y="0" width="12" height="12">
<path d="M0.800049 0.799998H12.0001V12H0.800049V0.799998Z" fill="white"/>
</mask>
<g mask="url(#mask0_411_2145)">
<path d="M5.96971 9.41875H6.83012M8.55595 9.41875H9.41636M3.38846 9.41875H4.24887M5.96971 6.8375H6.83012M8.55595 6.8375H9.41636M3.38846 6.8375H4.24887M1.23743 4.67916H11.5674M8.98614 3.38853V1.2375M3.81868 3.38853V1.2375M2.96323 11.5625H9.84159C10.7947 11.5625 11.5674 10.7898 11.5674 9.83667V3.82374C11.5674 2.8706 10.7947 2.09791 9.84159 2.09791H2.96323C2.0101 2.09791 1.23743 2.8706 1.23743 3.82374V9.83667C1.23743 10.7898 2.0101 11.5625 2.96323 11.5625Z" stroke="#667085" stroke-width="0.75" stroke-miterlimit="10" stroke-linecap="round" stroke-linejoin="round"/>
</g>
</svg>
