<svg width="66" height="66" viewBox="0 0 66 66" fill="none" xmlns="http://www.w3.org/2000/svg">
<g clip-path="url(#clip0_269_2308)">
<path d="M13.3576 27.1249C12.9794 27.1249 12.6433 26.8655 12.5664 26.4952C12.2757 25.0959 11.0359 24.0444 9.55037 24.0444C8.06486 24.0444 6.82504 25.0959 6.53435 26.4952C6.4574 26.8655 6.12134 27.1249 5.74313 27.1249H5.17594C4.87933 27.1249 4.63892 27.3653 4.63892 27.6619V37.3897H14.4617V27.6619C14.4617 27.3653 14.2213 27.1249 13.9247 27.1249H13.3576Z" fill="#A79BA7"/>
<path d="M14.4618 27.6613V37.3893H11.1795V27.6613C11.1795 27.3651 10.9393 27.1249 10.6431 27.1249H10.6418C9.97639 27.1249 9.39129 26.7017 9.16467 26.076C8.92993 25.4279 8.48392 24.8809 7.91016 24.5175C8.38505 24.218 8.94759 24.0439 9.55062 24.0439C11.0355 24.0439 12.2751 25.0961 12.5657 26.4951C12.6427 26.8654 12.9787 27.1248 13.357 27.1248H13.9253C14.2217 27.1249 14.4618 27.3651 14.4618 27.6613Z" fill="#918291"/>
<path d="M10.2017 31.7121H8.89925C8.34921 31.7121 7.90332 31.2662 7.90332 30.7161C7.90332 30.1661 8.34921 29.7202 8.89925 29.7202H10.2017C10.7518 29.7202 11.1976 30.1661 11.1976 30.7161C11.1976 31.2662 10.7518 31.7121 10.2017 31.7121Z" fill="#837784"/>
<path d="M61.2382 27.1249C60.86 27.1249 60.524 26.8655 60.447 26.4952C60.1563 25.0959 58.9165 24.0444 57.431 24.0444C55.9455 24.0444 54.7056 25.0959 54.415 26.4952C54.338 26.8655 54.002 27.1249 53.6237 27.1249H53.0566C52.7599 27.1249 52.5195 27.3653 52.5195 27.6619V37.3897H62.3423V27.6619C62.3423 27.3653 62.1019 27.1249 61.8053 27.1249H61.2382Z" fill="#A79BA7"/>
<path d="M62.3422 27.6613V37.3893H59.0598V27.6613C59.0598 27.3651 58.8197 27.1249 58.5235 27.1249H58.5222C57.8568 27.1249 57.2717 26.7017 57.045 26.076C56.8103 25.4279 56.3643 24.8809 55.7905 24.5175C56.2654 24.218 56.828 24.0439 57.431 24.0439C58.9159 24.0439 60.1554 25.0961 60.4461 26.4951C60.5231 26.8654 60.8591 27.1248 61.2373 27.1248H61.8057C62.102 27.1249 62.3422 27.3651 62.3422 27.6613Z" fill="#918291"/>
<path d="M58.0821 31.7121H56.7796C56.2296 31.7121 55.7837 31.2662 55.7837 30.7161C55.7837 30.1661 56.2296 29.7202 56.7796 29.7202H58.0821C58.6321 29.7202 59.078 30.1661 59.078 30.7161C59.078 31.2662 58.6323 31.7121 58.0821 31.7121Z" fill="#837784"/>
<path d="M64.7711 61.2283H1.22886C0.550172 61.2283 0 60.6781 0 59.9994V37.2904C0 36.6117 0.550172 36.0615 1.22886 36.0615H64.7711C65.4498 36.0615 66 36.6117 66 37.2904V59.9994C66 60.6781 65.4498 61.2283 64.7711 61.2283Z" fill="#97DA7B"/>
<path d="M44.6999 14.4127C43.8671 14.4127 43.1486 13.8092 43.0264 12.9856C42.3367 8.33791 38.3301 4.77197 33.4904 4.77197C28.6508 4.77197 24.6441 8.33791 23.9545 12.9856C23.8323 13.8093 23.1137 14.4127 22.281 14.4127H19.7999C18.8718 14.4127 18.1194 15.1652 18.1194 16.0933V44.3645H44.2751L48.8617 16.0933C48.8617 15.1652 48.1093 14.4127 47.1812 14.4127H44.6999Z" fill="#A79BA7"/>
<path d="M47.1811 14.4123H44.6999C43.8672 14.4123 43.1487 13.8087 43.0265 12.9851C42.3368 8.33742 38.3302 4.77148 33.4905 4.77148C32.6999 4.77148 31.9324 4.86868 31.1973 5.04825C34.975 5.97031 37.8808 9.11666 38.4451 13.0216C38.5599 13.8155 39.2261 14.4123 40.0282 14.4123H42.5945C43.5226 14.4123 44.2751 15.1647 44.2751 16.0928V44.364H48.8617V16.0929C48.8617 15.1647 48.1092 14.4123 47.1811 14.4123Z" fill="#918291"/>
<path d="M42.1229 20.5339H40.1226C39.5726 20.5339 39.1267 20.088 39.1267 19.5379C39.1267 18.9877 39.5726 18.542 40.1226 18.542H42.1229C42.6729 18.542 43.1188 18.9879 43.1188 19.5379C43.1188 20.088 42.6729 20.5339 42.1229 20.5339Z" fill="#837784"/>
<path d="M35.526 20.5339H24.8582C24.3082 20.5339 23.8623 20.088 23.8623 19.5379C23.8623 18.9877 24.3082 18.542 24.8582 18.542H35.526C36.076 18.542 36.5219 18.9879 36.5219 19.5379C36.5219 20.088 36.076 20.5339 35.526 20.5339Z" fill="#837784"/>
<path d="M42.1229 24.4421H24.8585C24.3084 24.4421 23.8625 23.9962 23.8625 23.4461C23.8625 22.8961 24.3084 22.4502 24.8585 22.4502H42.123C42.6731 22.4502 43.1189 22.8961 43.1189 23.4461C43.1189 23.9962 42.6729 24.4421 42.1229 24.4421Z" fill="#837784"/>
<path d="M42.1229 28.3507H24.8585C24.3084 28.3507 23.8625 27.9049 23.8625 27.3548C23.8625 26.8048 24.3084 26.3589 24.8585 26.3589H42.123C42.6731 26.3589 43.1189 26.8048 43.1189 27.3548C43.1189 27.9049 42.6729 28.3507 42.1229 28.3507Z" fill="#918291"/>
<path d="M36.2652 32.2589H30.7159C30.1659 32.2589 29.72 31.8131 29.72 31.263C29.72 30.713 30.1659 30.2671 30.7159 30.2671H36.2652C36.8152 30.2671 37.2611 30.713 37.2611 31.263C37.2611 31.8131 36.8154 32.2589 36.2652 32.2589Z" fill="#918291"/>
<path d="M34.2393 38.9919H32.7418C32.1917 38.9919 31.7458 38.546 31.7458 37.9959C31.7458 37.4459 32.1917 37 32.7418 37H34.2393C34.7893 37 35.2352 37.4459 35.2352 37.9959C35.2352 38.546 34.7893 38.9919 34.2393 38.9919Z" fill="#918291"/>
<path d="M52.6568 49.6118H14.3242V44.0379C14.3242 43.4846 14.7727 43.0361 15.3259 43.0361L47.0686 43.0366C48.3404 43.0366 50.1229 43.4851 50.1229 44.0384L52.6568 49.6118Z" fill="#DC8758"/>
<path d="M52.6573 44.0375V49.6119H48.0707V44.0375C48.0707 43.4841 47.622 43.0366 47.0686 43.0366H51.6552C52.2086 43.0366 52.6573 43.4841 52.6573 44.0375Z" fill="#D77F4A"/>
<path d="M48.3029 48.2837H14.4178C12.2451 48.2837 10.4839 50.0449 10.4839 52.2177C10.4839 52.7709 10.9324 53.2194 11.4856 53.2194L50.9097 53.2198C51.4629 53.2198 54.7593 52.7709 54.7593 52.2177C54.7594 50.0449 50.4756 48.2837 48.3029 48.2837Z" fill="#E2DEE2"/>
<path d="M56.497 52.2175C56.497 52.7709 56.0483 53.2196 55.4962 53.2196H50.9096C51.4617 53.2196 51.9104 52.7709 51.9104 52.2175C51.9104 51.1303 51.4708 50.1479 50.7578 49.4362C50.0462 48.7233 49.0636 48.2837 47.9766 48.2837H52.5632C53.6504 48.2837 54.6328 48.7233 55.3445 49.4362C56.0574 50.1479 56.497 51.1305 56.497 52.2175Z" fill="#CBC4CC"/>
</g>
<defs>
<clipPath id="clip0_269_2308">
<rect width="66" height="66" fill="white"/>
</clipPath>
</defs>
</svg>
