<svg width="66" height="66" viewBox="0 0 66 66" fill="none" xmlns="http://www.w3.org/2000/svg">
<g clip-path="url(#clip0_269_2337)">
<path d="M7.17654 24.2476C6.76134 24.9496 6.52222 25.768 6.52222 26.6428L33.0023 27.8029L59.4777 26.6428C59.4777 25.7681 59.2386 24.9496 58.8233 24.2476L32.9953 23.0874L7.17654 24.2476Z" fill="#A05528"/>
<path d="M58.8233 24.2477C58.0031 22.8607 56.4931 21.9302 54.7651 21.9302H11.2347C9.50675 21.9302 7.99674 22.8607 7.17651 24.2477H58.8233Z" fill="#AD5E2E"/>
<path d="M3.24593 29.075L2.60913 31.4701L32.9952 32.6302L63.3907 31.4701L62.754 29.075L33.0023 27.8032L3.24593 29.075Z" fill="#CE7549"/>
<path d="M62.7541 29.075L62.5301 28.2324C62.2809 27.2953 61.4326 26.6431 60.4631 26.6431H5.53714C4.56751 26.6431 3.71918 27.2953 3.47013 28.2324L3.24609 29.075H62.7541Z" fill="#DD8858"/>
<path d="M2.60913 37.0676V39.4626L33.0023 40.6228L63.3907 39.4626V37.0676L32.9999 35.8325L2.60913 37.0676Z" fill="#CE7549"/>
<path d="M63.3907 39.4624H2.60913V54.3494L32.9999 55.5096L63.3907 54.3494V39.4624Z" fill="#DD8858"/>
<path d="M2.13884 35.8322H63.8611C64.8562 35.8322 65.9291 34.5313 65.9291 33.0709C65.6903 32.1504 64.8564 31.4697 63.8611 31.4697H2.13884C1.14369 31.4697 0.309664 32.1504 0.0708008 33.0709C0.19223 34.4741 1.14356 35.8322 2.13884 35.8322Z" fill="#AD5E2E"/>
<path d="M0.0393066 55.9508C0.0393066 57.3128 1.02737 58.7121 1.99417 58.7121H64.0062C64.973 58.7121 65.9611 57.3313 65.9611 55.9508C65.7785 55.0377 64.973 54.3496 64.0062 54.3496H1.99404C1.02737 54.3496 0.221709 55.0377 0.0393066 55.9508Z" fill="#AD5E2E"/>
<path d="M64.0061 57.5513H1.99392C1.02725 57.5513 0.22159 56.8632 0.0390586 55.9502C0.013793 56.0773 0 56.2085 0 56.343V57.9525C0 59.0537 0.892676 59.9464 1.99392 59.9464H64.006C65.1072 59.9464 65.9999 59.0537 65.9999 57.9525V56.343C65.9999 56.2085 65.9861 56.0772 65.9607 55.9502C65.7784 56.8632 64.9727 57.5513 64.0061 57.5513Z" fill="#A05528"/>
<path d="M63.8611 34.6719H2.13894C1.14379 34.6719 0.309762 33.9913 0.0708984 33.0708C0.026168 33.2429 0 33.4225 0 33.6086V34.9282C0 36.1095 0.957645 37.0672 2.13894 37.0672H63.8612C65.0425 37.0672 66.0001 36.1095 66.0001 34.9282V33.6086C66.0001 33.4225 65.9738 33.243 65.9292 33.0708C65.6902 33.9913 64.8563 34.6719 63.8611 34.6719Z" fill="#A05528"/>
<path d="M47.1846 7.54639C47.1846 8.63875 46.8144 9.83641 46.2128 10.438C45.1166 11.5342 42.6996 11.6861 41.2419 10.8597C41.3384 9.963 41.618 8.98886 42.3 8.30668C43.91 6.69665 47.1493 7.32558 47.1493 7.32558C47.1493 7.32558 47.1648 7.40563 47.1846 7.54639Z" fill="#82BC7E"/>
<path d="M46.1682 9.77982C46.7698 9.17821 47.0587 8.34909 47.1846 7.54639C47.2915 8.30255 47.5254 10.8176 46.1682 12.1749C44.5581 13.7849 41.3188 13.156 41.3188 13.156C41.3188 13.156 41.1107 12.0796 41.2419 10.8597C42.6663 10.9342 45.072 10.876 46.1682 9.77982Z" fill="#75A871"/>
<path d="M25.0968 10.4379C25.0968 11.4957 26.057 12.5256 26.695 12.6063C26.8675 12.6281 27.0234 12.723 27.1295 12.8608C27.534 13.3858 28.1723 13.7255 28.8915 13.727C29.6102 13.7286 30.2494 13.3921 30.6563 12.8697C30.7637 12.7318 30.9205 12.637 31.094 12.6156C31.735 12.5368 32.7006 11.4958 32.7006 10.4457C32.7006 10.4456 32.7005 10.4456 32.7005 10.4455C33.08 9.78908 33.109 8.9539 32.7032 8.24981C32.2973 7.54573 31.5602 7.15218 30.8019 7.15153C30.4227 6.49501 29.7137 6.05273 28.901 6.05273C28.0916 6.05273 27.3851 6.49127 27.0047 7.14341C26.2499 7.14405 25.5155 7.534 25.1083 8.23357C24.6994 8.93598 24.7249 9.77116 25.1016 10.4292C25.0999 10.4321 25.0985 10.435 25.0968 10.4379Z" fill="#FF8088"/>
<path d="M31.0942 11.4556C30.9207 11.4768 30.7638 11.5717 30.6564 11.7096C30.2496 12.2322 29.6104 12.5686 28.8917 12.567C28.1724 12.5655 27.5342 12.2258 27.1297 11.7008C27.0236 11.5631 26.8676 11.4682 26.6951 11.4463C26.0572 11.3655 25.4624 11.0125 25.097 10.438C24.7208 11.0923 24.6917 11.923 25.0943 12.6249C25.4986 13.3299 26.2349 13.725 26.9932 13.7272C27.371 14.3846 28.0791 14.8283 28.8917 14.83C29.7045 14.8318 30.4143 14.391 30.795 13.7353C31.5532 13.7363 32.2912 13.3444 32.6986 12.6411C33.1059 11.9379 33.0787 11.1029 32.7008 10.4457C32.3336 11.0234 31.7351 11.3768 31.0942 11.4556Z" fill="#FF667C"/>
<path d="M33.2924 10.4379C33.2924 11.4957 34.2526 12.5256 34.8905 12.6063C35.063 12.6281 35.2189 12.723 35.3251 12.8608C35.7296 13.3858 36.3678 13.7255 37.0871 13.727C37.8058 13.7286 38.445 13.3921 38.8518 12.8697C38.9592 12.7318 39.1162 12.637 39.2896 12.6156C39.9305 12.5368 40.8962 11.4958 40.8962 10.4457C40.8962 10.4456 40.896 10.4456 40.896 10.4455C41.2755 9.78895 41.3045 8.9539 40.8987 8.24981C40.4928 7.54573 39.7557 7.1523 38.9975 7.15153C38.6183 6.49501 37.9093 6.05273 37.0965 6.05273C36.2871 6.05273 35.5807 6.49127 35.2003 7.14341C34.4454 7.14405 33.7109 7.534 33.3038 8.23357C32.8949 8.93598 32.9205 9.77116 33.2971 10.4292C33.2955 10.4321 33.294 10.435 33.2924 10.4379Z" fill="#FFC265"/>
<path d="M39.2898 11.4556C39.1162 11.4768 38.9594 11.5717 38.852 11.7096C38.4452 12.2322 37.8059 12.5686 37.0873 12.567C36.368 12.5655 35.7297 12.2258 35.3252 11.7008C35.2192 11.5631 35.0632 11.4682 34.8907 11.4463C34.2527 11.3655 33.658 11.0125 33.2925 10.438C32.9164 11.0923 32.8872 11.923 33.2898 12.6249C33.6942 13.3299 34.4305 13.725 35.1887 13.7272C35.5666 14.3846 36.2746 14.8283 37.0873 14.83C37.9 14.8318 38.6099 14.391 38.9906 13.7353C39.7488 13.7363 40.4868 13.3444 40.8941 12.6411C41.3015 11.9379 41.2743 11.1029 40.8963 10.4457C40.5292 11.0234 39.9307 11.3768 39.2898 11.4556Z" fill="#FFB24D"/>
<path d="M50.3344 13.7905C50.3344 14.699 50.0729 15.8458 49.4477 16.4708C48.3087 17.61 46.2232 17.635 45.1258 17.2187L44.8477 15.1436C44.9785 14.9259 45.1322 14.721 45.3156 14.5376C46.9684 12.8848 50.2937 13.5305 50.2937 13.5305C50.2937 13.5305 50.312 13.6262 50.3344 13.7905Z" fill="#82BC7E"/>
<path d="M45.1258 17.2189C46.2176 17.2995 48.1473 17.2527 49.2865 16.1135C49.9117 15.4884 50.2077 14.6239 50.3345 13.7905C50.4459 14.6032 50.6614 17.1338 49.2865 18.5088C48.1212 19.6741 46.1256 19.6966 45.0492 19.6087L44.4204 17.5297L45.1258 17.2189Z" fill="#75A871"/>
<path d="M15.6541 13.7905C15.6541 14.699 15.9156 15.8458 16.5408 16.4708C17.6798 17.61 19.7653 17.635 20.8628 17.2187L21.1409 15.1436C21.0101 14.9259 20.8565 14.721 20.673 14.5376C19.0203 12.8848 15.6949 13.5305 15.6949 13.5305C15.6949 13.5305 15.6765 13.6262 15.6541 13.7905Z" fill="#82BC7E"/>
<path d="M20.8627 17.2189C19.7709 17.2995 17.8411 17.2527 16.702 16.1135C16.0768 15.4884 15.7808 14.6239 15.654 13.7905C15.5426 14.6032 15.3271 17.1338 16.702 18.5088C17.8673 19.6741 19.8629 19.6966 20.9393 19.6087L21.5679 17.5297L20.8627 17.2189Z" fill="#75A871"/>
<path d="M21.0038 17.5381C21.0038 18.5959 21.964 19.6259 22.602 19.7066C22.7744 19.7285 22.9303 19.8232 23.0365 19.961C23.441 20.486 24.0792 20.8257 24.7985 20.8273C25.5172 20.8288 26.1564 20.4924 26.5633 19.9698C26.6706 19.8319 26.8276 19.7371 27.001 19.7157C27.6419 19.6369 28.6076 18.5959 28.6076 17.5458C28.6076 17.5457 28.6075 17.5457 28.6075 17.5456C28.987 16.8892 29.016 16.054 28.6102 15.3499C28.2042 14.6458 27.4671 14.2523 26.7089 14.2516C26.3297 13.5951 25.6207 13.1528 24.8079 13.1528C23.9987 13.1528 23.2921 13.5914 22.9117 14.2435C22.1569 14.2442 21.4225 14.6341 21.0153 15.3337C20.6064 16.0361 20.6319 16.8713 21.0086 17.5293C21.0069 17.5323 21.0055 17.5353 21.0038 17.5381Z" fill="#FFC265"/>
<path d="M29.1993 17.5381C29.1993 18.5959 30.1596 19.6259 30.7975 19.7066C30.97 19.7285 31.126 19.8232 31.2321 19.961C31.6366 20.486 32.2748 20.8257 32.9941 20.8273C33.7127 20.8288 34.352 20.4924 34.7588 19.9698C34.8662 19.8319 35.0232 19.7371 35.1966 19.7157C35.8375 19.6369 36.8031 18.5959 36.8031 17.5458C36.8031 17.5457 36.803 17.5457 36.803 17.5456C37.1825 16.8892 37.2115 16.054 36.8057 15.3499C36.3998 14.6458 35.6627 14.2523 34.9045 14.2516C34.5252 13.5951 33.8163 13.1528 33.0035 13.1528C32.1941 13.1528 31.4877 13.5914 31.1073 14.2435C30.3524 14.2442 29.618 14.6341 29.2108 15.3337C28.8019 16.0361 28.8275 16.8713 29.2041 17.5293C29.2024 17.5323 29.201 17.5353 29.1993 17.5381Z" fill="#FF9A00"/>
<path d="M35.1965 18.5557C35.023 18.5769 34.8661 18.6718 34.7587 18.8097C34.3519 19.3323 33.7127 19.6686 32.994 19.6671C32.2747 19.6656 31.6365 19.3259 31.232 18.8009C31.1259 18.6632 30.9699 18.5683 30.7974 18.5464C30.1595 18.4657 29.5647 18.1126 29.1993 17.5381C28.8231 18.1924 28.794 19.0231 29.1966 19.725C29.6009 20.43 30.3372 20.8251 31.0955 20.8273C31.4733 21.4847 32.1814 21.9284 32.994 21.9301C33.8068 21.9319 34.5166 21.4911 34.8973 20.8354C35.6555 20.8364 36.3935 20.4445 36.8009 19.7412C37.2082 19.038 37.181 18.203 36.8031 17.5458C36.4361 18.1235 35.8374 18.4769 35.1965 18.5557Z" fill="#F28A00"/>
<path d="M18.8223 7.54639C18.8223 8.63875 19.1925 9.83641 19.7941 10.438C20.8903 11.5342 23.3073 11.6861 24.765 10.8597C24.6686 9.963 24.389 8.98886 23.7069 8.30668C22.0969 6.69665 18.8576 7.32558 18.8576 7.32558C18.8576 7.32558 18.8421 7.40563 18.8223 7.54639Z" fill="#82BC7E"/>
<path d="M27.0009 18.5557C26.8274 18.5769 26.6705 18.6718 26.5632 18.8097C26.1563 19.3323 25.5171 19.6686 24.7984 19.6671C24.0791 19.6656 23.4409 19.3259 23.0364 18.8009C22.9303 18.6632 22.7744 18.5683 22.6019 18.5464C21.9639 18.4657 21.3692 18.1126 21.0037 17.5381C20.6276 18.1924 20.5984 19.0231 21.001 19.725C21.4054 20.43 22.1417 20.8251 22.8999 20.8273C23.2777 21.4847 23.9858 21.9284 24.7984 21.9301C25.6112 21.9319 26.3211 21.4911 26.7017 20.8354C27.46 20.8364 28.198 20.4445 28.6054 19.7412C29.0128 19.038 28.9856 18.203 28.6076 17.5458C28.2405 18.1235 27.6419 18.4769 27.0009 18.5557Z" fill="#FFB24D"/>
<path d="M37.3927 17.5381C37.3927 18.5959 38.3529 19.6259 38.9909 19.7066C39.1634 19.7285 39.3192 19.8232 39.4254 19.961C39.8299 20.486 40.4682 20.8257 41.1874 20.8273C41.9061 20.8288 42.5453 20.4924 42.9522 19.9698C43.0596 19.8319 43.2166 19.7371 43.3899 19.7157C44.0309 19.6369 44.9965 18.5959 44.9965 17.5458C44.9965 17.5457 44.9964 17.5457 44.9964 17.5456C45.3759 16.8892 45.4049 16.054 44.9991 15.3499C44.5932 14.6458 43.8561 14.2523 43.0978 14.2516C42.7186 13.5951 42.0096 13.1528 41.1969 13.1528C40.3875 13.1528 39.681 13.5914 39.3006 14.2435C38.5458 14.2442 37.8114 14.6341 37.4042 15.3337C36.9953 16.0361 37.0208 16.8713 37.3975 17.5293C37.3957 17.5323 37.3942 17.5353 37.3927 17.5381Z" fill="#FF8088"/>
<path d="M43.3899 18.5557C43.2163 18.5769 43.0595 18.6718 42.9521 18.8097C42.5453 19.3323 41.906 19.6686 41.1874 19.6671C40.4681 19.6656 39.8298 19.3259 39.4253 18.8009C39.3193 18.6632 39.1633 18.5683 38.9908 18.5464C38.3528 18.4657 37.7579 18.1126 37.3926 17.5381C37.0165 18.1924 36.9873 19.0231 37.3899 19.725C37.7943 20.43 38.5306 20.8251 39.2888 20.8273C39.6667 21.4847 40.3747 21.9284 41.1874 21.9301C42.0001 21.9319 42.71 21.4911 43.0907 20.8354C43.8489 20.8364 44.5869 20.4445 44.9942 19.7412C45.4016 19.038 45.3744 18.203 44.9964 17.5458C44.6293 18.1235 44.0308 18.4769 43.3899 18.5557Z" fill="#FF667C"/>
<path d="M19.8388 9.77982C19.2372 9.17821 18.9483 8.34909 18.8224 7.54639C18.7155 8.30255 18.4816 10.8176 19.8388 12.1749C21.4489 13.7849 24.6882 13.156 24.6882 13.156C24.6882 13.156 24.8963 12.0796 24.7651 10.8597C23.3406 10.9342 20.9349 10.876 19.8388 9.77982Z" fill="#75A871"/>
<path d="M25.8753 17.5114C25.8753 16.9133 25.3887 16.4268 24.7907 16.4268C24.1927 16.4268 23.7061 16.9133 23.7061 17.5114C23.7061 18.1095 24.1927 18.596 24.7907 18.596C25.3888 18.596 25.8753 18.1094 25.8753 17.5114Z" fill="#FFF0C8"/>
<path d="M28.8954 11.4817C29.4935 11.4817 29.98 10.9951 29.98 10.3971C29.98 9.79899 29.4935 9.3125 28.8954 9.3125C28.2973 9.3125 27.8108 9.79912 27.8108 10.3971C27.8108 10.9951 28.2974 11.4817 28.8954 11.4817Z" fill="#FFF0C8"/>
<path d="M37.1071 11.4817C37.7061 11.4817 38.1917 10.9961 38.1917 10.3971C38.1917 9.7981 37.7061 9.3125 37.1071 9.3125C36.5081 9.3125 36.0225 9.7981 36.0225 10.3971C36.0225 10.9961 36.5081 11.4817 37.1071 11.4817Z" fill="#FFF0C8"/>
<path d="M33.0001 18.596C33.5983 18.596 34.0848 18.1095 34.0848 17.5114C34.0848 16.9133 33.5981 16.4268 33.0001 16.4268C32.402 16.4268 31.9155 16.9133 31.9155 17.5114C31.9155 18.1094 32.402 18.596 33.0001 18.596Z" fill="#FFF0C8"/>
<path d="M41.2094 18.596C41.8074 18.596 42.294 18.1095 42.294 17.5114C42.294 16.9133 41.8074 16.4268 41.2094 16.4268C40.6114 16.4268 40.1248 16.9133 40.1248 17.5114C40.1248 18.1094 40.6112 18.596 41.2094 18.596Z" fill="#FFF0C8"/>
<path d="M26.7773 46.0095H39.2227V46.8078C39.2227 47.3601 39.6704 47.8078 40.2226 47.8078C40.7748 47.8078 41.2225 47.3601 41.2225 46.8078V46.0095H53.668V46.8078C53.668 47.3601 54.1157 47.8078 54.668 47.8078C55.2202 47.8078 55.6679 47.3601 55.6679 46.8078V46.0095H57.0281C57.5803 46.0095 58.028 45.5618 58.028 45.0096C58.028 44.4574 57.5803 44.0097 57.0281 44.0097H55.668V43.2114C55.668 42.6591 55.2203 42.2114 54.6681 42.2114C54.1159 42.2114 53.6682 42.6591 53.6682 43.2114V44.0097H41.2226V43.2114C41.2226 42.6591 40.775 42.2114 40.2227 42.2114C39.6705 42.2114 39.2228 42.6591 39.2228 43.2114V44.0097H26.7774V43.2114C26.7774 42.6591 26.3297 42.2114 25.7775 42.2114C25.2253 42.2114 24.7776 42.6591 24.7776 43.2114V44.0097H12.3319V43.2114C12.3319 42.6591 11.8842 42.2114 11.332 42.2114C10.7798 42.2114 10.3321 42.6591 10.3321 43.2114V44.0097H8.97185C8.41962 44.0097 7.97192 44.4574 7.97192 45.0096C7.97192 45.5618 8.41962 46.0095 8.97185 46.0095H10.3319V46.8078C10.3319 47.3601 10.7796 47.8078 11.3319 47.8078C11.8841 47.8078 12.3318 47.3601 12.3318 46.8078V46.0095H24.7773V46.8078C24.7773 47.3601 25.225 47.8078 25.7772 47.8078C26.3295 47.8078 26.7772 47.3601 26.7772 46.8078V46.0095H26.7773Z" fill="#FFC265"/>
</g>
<defs>
<clipPath id="clip0_269_2337">
<rect width="66" height="66" fill="white"/>
</clipPath>
</defs>
</svg>
