<svg width="16" height="12" viewBox="0 0 16 12" fill="none" xmlns="http://www.w3.org/2000/svg">
<path d="M2.35095 9.40243V10.1744H3.25137V5.50293H2.35095V8.42735" stroke="#667085" stroke-width="0.75" stroke-miterlimit="10" stroke-linecap="round" stroke-linejoin="round"/>
<path d="M12.5947 3.47693H13.4953V2.12608C13.4953 1.8774 13.2937 1.67578 13.045 1.67578C12.7963 1.67578 12.5947 1.87737 12.5947 2.12608V3.47693H12.5947Z" stroke="#667085" stroke-width="0.75" stroke-miterlimit="10" stroke-linecap="round" stroke-linejoin="round"/>
<path d="M11.3309 2.12574H12.5949V5.50287H2.35095V2.14774C2.35095 1.51673 2.86747 0.987951 3.49849 1.00021C4.0242 1.01024 4.46159 1.38049 4.57415 1.87444C4.60758 2.02098 4.73685 2.12574 4.88729 2.12574H5.29515C5.36536 2.12574 5.43138 2.10289 5.48515 2.06333C5.53892 2.02377 5.58043 1.96749 5.60133 1.90063C5.64312 1.76663 5.76737 1.67525 5.9075 1.67525H6.56165C6.70178 1.67525 6.82603 1.76663 6.86782 1.90063C6.90961 2.03436 7.03359 2.12574 7.174 2.12574H10.3558" stroke="#667085" stroke-width="0.75" stroke-miterlimit="10" stroke-linecap="round" stroke-linejoin="round"/>
<path d="M13.4951 7.88827V10.1744H12.5947V5.50293" stroke="#667085" stroke-width="0.75" stroke-miterlimit="10" stroke-linecap="round" stroke-linejoin="round"/>
<path d="M13.4952 6.91301V4.37695" stroke="#667085" stroke-width="0.75" stroke-miterlimit="10" stroke-linecap="round" stroke-linejoin="round"/>
<path d="M12.5947 3.47656H14.6209C14.7453 3.47656 14.8461 3.5773 14.8461 3.7017V4.15199C14.8461 4.27638 14.7453 4.37712 14.6209 4.37712H12.5947" stroke="#667085" stroke-width="0.75" stroke-miterlimit="10" stroke-linecap="round" stroke-linejoin="round"/>
<path d="M2.35085 4.37712H1.22513C1.10074 4.37712 1 4.27638 1 4.15199V3.7017C1 3.5773 1.10074 3.47656 1.22513 3.47656H2.35085" stroke="#667085" stroke-width="0.75" stroke-miterlimit="10" stroke-linecap="round" stroke-linejoin="round"/>
<path d="M2.80125 11.3566C3.04994 11.3566 3.25154 11.155 3.25154 10.9063C3.25154 10.6577 3.04994 10.4561 2.80125 10.4561C2.55256 10.4561 2.35095 10.6577 2.35095 10.9063C2.35095 11.155 2.55256 11.3566 2.80125 11.3566Z" stroke="#667085" stroke-width="0.75" stroke-miterlimit="10" stroke-linecap="round" stroke-linejoin="round"/>
<path d="M13.045 11.3566C13.2937 11.3566 13.4953 11.155 13.4953 10.9063C13.4953 10.6577 13.2937 10.4561 13.045 10.4561C12.7963 10.4561 12.5947 10.6577 12.5947 10.9063C12.5947 11.155 12.7963 11.3566 13.045 11.3566Z" stroke="#667085" stroke-width="0.75" stroke-miterlimit="10" stroke-linecap="round" stroke-linejoin="round"/>
<path d="M2.80115 10.4557V10.1743" stroke="#667085" stroke-width="0.75" stroke-miterlimit="10" stroke-linecap="round" stroke-linejoin="round"/>
<path d="M13.0449 10.4557V10.1743" stroke="#667085" stroke-width="0.75" stroke-miterlimit="10" stroke-linecap="round" stroke-linejoin="round"/>
<path d="M9.30176 3.00586V3.83415" stroke="#667085" stroke-width="0.75" stroke-miterlimit="10" stroke-linecap="round" stroke-linejoin="round"/>
<path d="M10.3556 3.00586V4.37686" stroke="#667085" stroke-width="0.75" stroke-miterlimit="10" stroke-linecap="round" stroke-linejoin="round"/>
<path d="M7.47284 2.12549V2.98992" stroke="#667085" stroke-width="0.75" stroke-miterlimit="10" stroke-linecap="round" stroke-linejoin="round"/>
<path d="M7.47284 3.83398V4.05112" stroke="#667085" stroke-width="0.75" stroke-miterlimit="10" stroke-linecap="round" stroke-linejoin="round"/>
<path d="M4.93585 2.12549V2.98992" stroke="#667085" stroke-width="0.75" stroke-miterlimit="10" stroke-linecap="round" stroke-linejoin="round"/>
<path d="M3.25128 7.97949H12.5947" stroke="#667085" stroke-width="0.75" stroke-miterlimit="10" stroke-linecap="round" stroke-linejoin="round"/>
</svg>
