<svg width="12" height="12" viewBox="0 0 12 12" fill="none" xmlns="http://www.w3.org/2000/svg">
<mask id="mask0_658_7165" style="mask-type:luminance" maskUnits="userSpaceOnUse" x="0" y="0" width="12" height="12">
<path d="M0 0.799998H11.2V12H0V0.799998Z" fill="white"/>
</mask>
<g mask="url(#mask0_658_7165)">
<path d="M5.16972 9.41875H6.03013M7.75596 9.41875H8.61637M2.58847 9.41875H3.44888M5.16972 6.8375H6.03013M7.75596 6.8375H8.61637M2.58847 6.8375H3.44888M0.437439 4.67916H10.7674M8.18616 3.38853V1.2375M3.01869 3.38853V1.2375M2.16325 11.5625H9.0416C9.99474 11.5625 10.7674 10.7898 10.7674 9.83667V3.82374C10.7674 2.8706 9.99474 2.09791 9.0416 2.09791H2.16325C1.21011 2.09791 0.437439 2.8706 0.437439 3.82374V9.83667C0.437439 10.7898 1.21011 11.5625 2.16325 11.5625Z" stroke="#667085" stroke-width="0.75" stroke-miterlimit="10" stroke-linecap="round" stroke-linejoin="round"/>
</g>
</svg>
