<svg width="13" height="13" viewBox="0 0 13 13" fill="none" xmlns="http://www.w3.org/2000/svg">
<mask id="mask0_658_7519" style="mask-type:luminance" maskUnits="userSpaceOnUse" x="0" y="0" width="13" height="13">
<path d="M0 0H13V13H0V0Z" fill="white"/>
</mask>
<g mask="url(#mask0_658_7519)">
<path d="M4.30142 8.43568L2.78654 9.07926C2.19311 9.33133 1.76993 9.86954 1.66486 10.5057L1.28448 12.8096" stroke="#667085" stroke-width="0.5" stroke-miterlimit="10" stroke-linecap="round" stroke-linejoin="round"/>
<path d="M9.80495 8.90234L8.70642 8.43566" stroke="#667085" stroke-width="0.5" stroke-miterlimit="10" stroke-linecap="round" stroke-linejoin="round"/>
<path d="M11.7234 12.8096L11.343 10.5057C11.2734 10.0846 11.0645 9.70635 10.759 9.42571" stroke="#667085" stroke-width="0.5" stroke-miterlimit="10" stroke-linecap="round" stroke-linejoin="round"/>
<path d="M11.007 11.4934L11.719 12.8096" stroke="#667085" stroke-width="0.5" stroke-miterlimit="10" stroke-linecap="round" stroke-linejoin="round"/>
<path d="M4.93352 7.56036L4.30127 8.43558L5.93389 9.41357L6.50002 8.03926L4.93352 7.56036Z" stroke="#667085" stroke-width="0.5" stroke-miterlimit="10" stroke-linecap="round" stroke-linejoin="round"/>
<path d="M8.0665 7.56036L8.69875 8.43558L7.06613 9.41357L6.5 8.03926L8.0665 7.56036Z" stroke="#667085" stroke-width="0.5" stroke-miterlimit="10" stroke-linecap="round" stroke-linejoin="round"/>
<path d="M8.16942 7.52184L7.04545 7.94071C6.69354 8.07185 6.30648 8.07185 5.95457 7.94071L4.8306 7.52184C4.21556 7.29264 3.80743 6.70309 3.80743 6.04395V3.40632H9.19258V6.04395C9.19258 6.70309 8.78445 7.29264 8.16942 7.52184Z" stroke="#667085" stroke-width="0.5" stroke-miterlimit="10" stroke-linecap="round" stroke-linejoin="round"/>
<path d="M3.80743 3.40645C3.80743 3.95187 4.24745 4.39404 4.79025 4.39404H8.20976C8.75256 4.39404 9.19258 3.95187 9.19258 3.40645H3.80743Z" stroke="#667085" stroke-width="0.5" stroke-miterlimit="10" stroke-linecap="round" stroke-linejoin="round"/>
<path d="M3.80743 2.65325H9.19258V3.40674H3.80743V2.65325Z" stroke="#667085" stroke-width="0.5" stroke-miterlimit="10" stroke-linecap="round" stroke-linejoin="round"/>
<path d="M4.07288 0.834717C3.57076 0.981957 3.31337 1.54063 3.5265 2.02064L3.80745 2.65332H9.1926L9.47352 2.02064C9.68667 1.54063 9.42929 0.981957 8.92716 0.834717L6.95208 0.255506C6.65686 0.168899 6.34319 0.168899 6.04797 0.255506L5.15607 0.514033" stroke="#667085" stroke-width="0.5" stroke-miterlimit="10" stroke-linecap="round" stroke-linejoin="round"/>
<path d="M6.03917 9.65427L5.9339 9.41362L6.50003 8.03933L7.06617 9.41362L6.97695 9.66064" stroke="#667085" stroke-width="0.5" stroke-miterlimit="10" stroke-linecap="round" stroke-linejoin="round"/>
<path d="M2.24432 10.965L1.2843 12.8091" stroke="#667085" stroke-width="0.5" stroke-miterlimit="10" stroke-linecap="round" stroke-linejoin="round"/>
<path d="M2.24432 10.9652L2.03109 11.4014C1.94479 11.5779 1.96043 11.7872 2.07202 11.949L2.08223 11.9638C2.18371 12.1109 2.35104 12.1987 2.52979 12.1987C2.58001 12.1987 2.62917 12.1918 2.67619 12.1787" stroke="#667085" stroke-width="0.5" stroke-miterlimit="10" stroke-linecap="round" stroke-linejoin="round"/>
<path d="M10.759 10.9652L10.9722 11.4014C11.0585 11.5779 11.0429 11.7872 10.9313 11.949L10.9211 11.9638C10.8196 12.1109 10.6523 12.1987 10.4735 12.1987C10.4082 12.1987 10.3445 12.187 10.2852 12.1651" stroke="#667085" stroke-width="0.5" stroke-miterlimit="10" stroke-linecap="round" stroke-linejoin="round"/>
<path d="M6.93415 12.7827C6.90455 12.6464 6.88918 12.5059 6.88918 12.3632V10.4323C8.21813 10.5881 9.30972 11.532 9.68236 12.7827M3.31769 12.7827C3.69035 11.532 4.78192 10.5881 6.11089 10.4323V12.3632C6.11089 12.5059 6.09552 12.6464 6.06592 12.7827M10.4882 12.7827C10.3751 12.3042 10.1781 11.8581 9.91356 11.4608M9.11559 10.5742C8.40594 9.98518 7.49432 9.63105 6.50002 9.63105C5.50593 9.63105 4.59451 9.98502 3.88489 10.5739M3.09516 11.4479C2.82628 11.8484 2.6262 12.299 2.51184 12.7827" stroke="#667085" stroke-width="0.5" stroke-miterlimit="10" stroke-linecap="round" stroke-linejoin="round"/>
<path d="M2.24432 10.9655C2.24432 10.9655 2.88427 11.6718 3.43949 11.3792C3.9947 11.0866 3.96007 10.1386 3.7327 10.0369C3.4146 9.89457 2.55569 10.349 2.24432 10.9655Z" stroke="#667085" stroke-width="0.5" stroke-miterlimit="10" stroke-linecap="round" stroke-linejoin="round"/>
<path d="M10.759 10.9655C10.759 10.9655 10.119 11.6718 9.5638 11.3792C9.00859 11.0866 9.04322 10.1386 9.27059 10.0369C9.58869 9.89457 10.4476 10.349 10.759 10.9655Z" stroke="#667085" stroke-width="0.5" stroke-miterlimit="10" stroke-linecap="round" stroke-linejoin="round"/>
<path d="M5.8244 6.4165C6.19785 6.82275 6.80222 6.82275 7.17567 6.4165" stroke="#667085" stroke-width="0.5" stroke-miterlimit="10" stroke-linecap="round" stroke-linejoin="round"/>
</g>
</svg>
