<svg width="27" height="53" viewBox="0 0 27 53" fill="none" xmlns="http://www.w3.org/2000/svg">
<path d="M6.47662 36.4722H20.0887V49.1462C20.0887 50.8388 18.7224 52.2051 17.0298 52.2051H9.53552C7.84293 52.2051 6.47662 50.8388 6.47662 49.1462V36.4722Z" fill="#E51EAD"/>
<path d="M22.9946 39.4597H3.57066C1.2459 39.4597 -0.467082 37.2675 0.114108 35.0142L3.98871 19.8114C4.68206 17.0992 7.11898 15.2027 9.91277 15.2027H16.6423C19.4361 15.2027 21.8832 17.0992 22.5664 19.8114L26.441 35.0142C27.0222 37.2675 25.3194 39.4597 22.9946 39.4597Z" fill="#F345C2"/>
<path d="M13.2776 13.6019C17.0336 13.6019 20.0785 10.557 20.0785 6.80094C20.0785 3.04489 17.0336 0 13.2776 0C9.52151 0 6.47662 3.04489 6.47662 6.80094C6.47662 10.557 9.52151 13.6019 13.2776 13.6019Z" fill="#F48DD7"/>
</svg>
