<svg width="13" height="14" viewBox="0 0 13 14" fill="none" xmlns="http://www.w3.org/2000/svg">
<path fill-rule="evenodd" clip-rule="evenodd" d="M6.5 1.4C4.90451 1.4 3.61111 2.6536 3.61111 4.2C3.61111 5.74637 4.90451 7 6.5 7C8.09546 7 9.38889 5.74637 9.38889 4.2C9.38889 2.6536 8.09546 1.4 6.5 1.4ZM2.16667 4.2C2.16667 1.8804 4.10676 0 6.5 0C8.89323 0 10.8333 1.8804 10.8333 4.2C10.8333 6.51959 8.89323 8.4 6.5 8.4C4.10676 8.4 2.16667 6.51959 2.16667 4.2ZM2.03172 10.2316C3.20914 9.51825 4.7908 9.1 6.5 9.1C8.20921 9.1 9.79088 9.51825 10.9683 10.2316C12.1355 10.9386 13 12.0051 13 13.3C13 13.6866 12.6767 14 12.2778 14C11.8789 14 11.5556 13.6866 11.5556 13.3C11.5556 12.662 11.1266 11.9784 10.2028 11.4187C9.28901 10.8653 7.98178 10.5 6.5 10.5C5.01822 10.5 3.71099 10.8653 2.79727 11.4187C1.87338 11.9784 1.44444 12.662 1.44444 13.3C1.44444 13.6866 1.12109 14 0.722222 14C0.323353 14 0 13.6866 0 13.3C0 12.0051 0.864464 10.9386 2.03172 10.2316Z" fill="#667085"/>
</svg>
