<svg width="16" height="11" viewBox="0 0 16 11" fill="none" xmlns="http://www.w3.org/2000/svg">
<path d="M12.4851 0H2.71415C1.99431 0 1.30396 0.285954 0.794955 0.794955C0.285954 1.30396 0 1.99431 0 2.71415V8.14244C0 8.86227 0.285954 9.55263 0.794955 10.0616C1.30396 10.5706 1.99431 10.8566 2.71415 10.8566H12.4851C13.2049 10.8566 13.8953 10.5706 14.4043 10.0616C14.9133 9.55263 15.1992 8.86227 15.1992 8.14244V2.71415C15.1992 1.99431 14.9133 1.30396 14.4043 0.794955C13.8953 0.285954 13.2049 0 12.4851 0ZM14.1136 8.14244C14.1136 8.57434 13.942 8.98855 13.6366 9.29395C13.3312 9.59935 12.917 9.77093 12.4851 9.77093H2.71415C2.28224 9.77093 1.86803 9.59935 1.56263 9.29395C1.25723 8.98855 1.08566 8.57434 1.08566 8.14244V2.71415C1.08566 2.28224 1.25723 1.86803 1.56263 1.56263C1.86803 1.25723 2.28224 1.08566 2.71415 1.08566H12.4851C12.917 1.08566 13.3312 1.25723 13.6366 1.56263C13.942 1.86803 14.1136 2.28224 14.1136 2.71415V8.14244Z" fill="#667085"/>
<path d="M3.25767 2.17188C3.11371 2.17188 2.97564 2.22907 2.87383 2.33087C2.77203 2.43267 2.71484 2.57074 2.71484 2.7147V8.143C2.71484 8.28696 2.77203 8.42503 2.87383 8.52683C2.97564 8.62864 3.11371 8.68583 3.25767 8.68583C3.40164 8.68583 3.53971 8.62864 3.64151 8.52683C3.74331 8.42503 3.8005 8.28696 3.8005 8.143V2.7147C3.8005 2.57074 3.74331 2.43267 3.64151 2.33087C3.53971 2.22907 3.40164 2.17188 3.25767 2.17188Z" fill="#667085"/>
<path d="M5.42759 2.17188C5.28363 2.17188 5.14556 2.22907 5.04376 2.33087C4.94196 2.43267 4.88477 2.57074 4.88477 2.7147V6.51451C4.88477 6.65848 4.94196 6.79655 5.04376 6.89835C5.14556 7.00015 5.28363 7.05734 5.42759 7.05734C5.57156 7.05734 5.70963 7.00015 5.81143 6.89835C5.91323 6.79655 5.97042 6.65848 5.97042 6.51451V2.7147C5.97042 2.57074 5.91323 2.43267 5.81143 2.33087C5.70963 2.22907 5.57156 2.17188 5.42759 2.17188Z" fill="#667085"/>
<path d="M7.59947 2.17188C7.4555 2.17188 7.31743 2.22907 7.21563 2.33087C7.11383 2.43267 7.05664 2.57074 7.05664 2.7147V6.51451C7.05664 6.65848 7.11383 6.79655 7.21563 6.89835C7.31743 7.00015 7.4555 7.05734 7.59947 7.05734C7.74344 7.05734 7.88151 7.00015 7.98331 6.89835C8.08511 6.79655 8.1423 6.65848 8.1423 6.51451V2.7147C8.1423 2.57074 8.08511 2.43267 7.98331 2.33087C7.88151 2.22907 7.74344 2.17188 7.59947 2.17188Z" fill="#667085"/>
<path d="M9.77134 2.17188C9.62738 2.17188 9.48931 2.22907 9.38751 2.33087C9.28571 2.43267 9.22852 2.57074 9.22852 2.7147V6.51451C9.22852 6.65848 9.28571 6.79655 9.38751 6.89835C9.48931 7.00015 9.62738 7.05734 9.77134 7.05734C9.91531 7.05734 10.0534 7.00015 10.1552 6.89835C10.257 6.79655 10.3142 6.65848 10.3142 6.51451V2.7147C10.3142 2.57074 10.257 2.43267 10.1552 2.33087C10.0534 2.22907 9.91531 2.17188 9.77134 2.17188Z" fill="#667085"/>
<path d="M11.9432 2.17188C11.7993 2.17188 11.6612 2.22907 11.5594 2.33087C11.4576 2.43267 11.4004 2.57074 11.4004 2.7147V8.143C11.4004 8.28696 11.4576 8.42503 11.5594 8.52683C11.6612 8.62864 11.7993 8.68583 11.9432 8.68583C12.0872 8.68583 12.2253 8.62864 12.3271 8.52683C12.4289 8.42503 12.486 8.28696 12.486 8.143V2.7147C12.486 2.57074 12.4289 2.43267 12.3271 2.33087C12.2253 2.22907 12.0872 2.17188 11.9432 2.17188Z" fill="#667085"/>
<path d="M5.42759 8.68722C5.72739 8.68722 5.97042 8.44419 5.97042 8.14439C5.97042 7.8446 5.72739 7.60156 5.42759 7.60156C5.1278 7.60156 4.88477 7.8446 4.88477 8.14439C4.88477 8.44419 5.1278 8.68722 5.42759 8.68722Z" fill="#667085"/>
<path d="M9.77134 8.68331C10.0711 8.68331 10.3142 8.44028 10.3142 8.14049C10.3142 7.84069 10.0711 7.59766 9.77134 7.59766C9.47155 7.59766 9.22852 7.84069 9.22852 8.14049C9.22852 8.44028 9.47155 8.68331 9.77134 8.68331Z" fill="#667085"/>
<path d="M7.59947 8.68722C7.89927 8.68722 8.1423 8.44419 8.1423 8.14439C8.1423 7.8446 7.89927 7.60156 7.59947 7.60156C7.29967 7.60156 7.05664 7.8446 7.05664 8.14439C7.05664 8.44419 7.29967 8.68722 7.59947 8.68722Z" fill="#667085"/>
</svg>
