<svg width="14" height="16" viewBox="0 0 14 16" fill="none" xmlns="http://www.w3.org/2000/svg">
<path fill-rule="evenodd" clip-rule="evenodd" d="M5.17918 8.57931H7.49479L8.07974 6.23952H5.76413L5.17918 8.57931ZM7.409 10.9191C7.3778 10.9191 7.3466 10.9152 7.31463 10.9074C7.1056 10.8551 6.97926 10.643 7.03073 10.4348L7.29981 9.35924H4.9842L4.66833 10.6235C4.61607 10.8325 4.40471 10.9581 4.19491 10.9074C3.98589 10.8551 3.85954 10.643 3.91101 10.4348L4.18009 9.35924H3.50935C3.29409 9.35924 3.11938 9.18453 3.11938 8.96927C3.11938 8.75401 3.29409 8.57931 3.50935 8.57931H4.37507L4.96002 6.23952H3.50935C3.29409 6.23952 3.11938 6.06482 3.11938 5.84956C3.11938 5.63429 3.29409 5.45959 3.50935 5.45959H5.155L5.47087 4.19532C5.52235 3.98552 5.73371 3.85995 5.94351 3.91143C6.15331 3.96369 6.27966 4.17583 6.22818 4.38407L5.95911 5.45959H8.27472L8.59059 4.19532C8.64207 3.98552 8.84953 3.85995 9.06323 3.91143C9.27303 3.96369 9.39938 4.17583 9.3479 4.38407L9.07883 5.45959H9.74879C9.96483 5.45959 10.1388 5.63429 10.1388 5.84956C10.1388 6.06482 9.96483 6.23952 9.74879 6.23952H8.88384L8.2989 8.57931H9.74879C9.96483 8.57931 10.1388 8.75401 10.1388 8.96927C10.1388 9.18453 9.96483 9.35924 9.74879 9.35924H8.10391L7.78804 10.6235C7.74359 10.8013 7.58448 10.9191 7.409 10.9191Z" fill="#667085"/>
<path fill-rule="evenodd" clip-rule="evenodd" d="M0.781489 4.50526C0.835304 9.4001 2.75003 12.7616 6.6294 14.7715C10.5088 12.7616 12.4235 9.4001 12.4773 4.50526L6.6294 0.849733L0.781489 4.50526ZM6.6294 15.599C6.57013 15.599 6.51007 15.5849 6.4547 15.5576C2.17132 13.416 0 9.62394 0 4.29C0 4.15507 0.0694137 4.03029 0.183283 3.95931L6.42272 0.0596646C6.54985 -0.0198882 6.70973 -0.0198882 6.83608 0.0596646L13.0755 3.95931C13.1894 4.03029 13.2588 4.15507 13.2588 4.29C13.2588 9.62394 11.0875 13.416 6.80411 15.5576C6.74873 15.5849 6.68868 15.599 6.6294 15.599Z" fill="#667085"/>
</svg>
