<svg width="15" height="15" viewBox="0 0 15 15" fill="none" xmlns="http://www.w3.org/2000/svg">
<path d="M7.52872 1.17204C7.36671 1.17086 7.23458 1.30123 7.23341 1.46295C7.23223 1.62467 7.36231 1.7568 7.52432 1.75797C7.68604 1.75915 7.81817 1.62907 7.81934 1.46735C7.82052 1.30563 7.69044 1.1735 7.52872 1.17204Z" fill="#72AB66"/>
<path d="M7.51541 2.9298C6.38423 2.92177 5.45783 3.83434 5.44928 4.96518C5.44075 6.09595 6.35382 7.02279 7.48465 7.03131C7.4899 7.03134 7.49511 7.03137 7.50036 7.03137C8.62398 7.03137 9.54229 6.12153 9.55079 4.99594C9.55932 3.86522 8.64628 2.93833 7.51541 2.9298ZM7.5003 6.44546C7.49661 6.44546 7.49274 6.44543 7.48905 6.4454C6.6813 6.43931 6.02909 5.77726 6.03519 4.96957C6.04125 4.16552 6.69715 3.51565 7.49977 3.51565C7.50346 3.51565 7.50733 3.51568 7.51102 3.51571C8.31877 3.5218 8.97097 4.18386 8.96488 4.99154C8.95879 5.7956 8.30292 6.44546 7.5003 6.44546Z" fill="#72AB66"/>
<path d="M8.77815 1.39421C8.62575 1.34013 8.4582 1.41996 8.40412 1.57248C8.35006 1.725 8.4299 1.89244 8.58239 1.94652C9.87283 2.40387 10.7328 3.63291 10.7225 5.0048C10.7213 5.16657 10.8515 5.29873 11.0133 5.29996C11.014 5.29996 11.0148 5.29996 11.0156 5.29996C11.1763 5.29996 11.3072 5.17024 11.3085 5.00919C11.3207 3.38769 10.3038 1.93495 8.77815 1.39421Z" fill="#72AB66"/>
<path d="M9.29769 11.0286C11.2463 8.52034 12.4641 7.21238 12.4805 5.01792C12.5012 2.25689 10.2605 0 7.49965 0C4.77105 0 2.54044 2.20981 2.5197 4.94321C2.50294 7.19717 3.74334 8.50335 5.70542 11.0282C3.75351 11.3199 2.5197 12.0528 2.5197 12.9492C2.5197 13.5497 3.07476 14.0886 4.08266 14.4665C5.00004 14.8105 6.21372 15 7.50012 15C8.78652 15 10.0002 14.8105 10.9176 14.4665C11.9255 14.0886 12.4805 13.5497 12.4805 12.9492C12.4805 12.0533 11.2479 11.3205 9.29769 11.0286ZM3.10561 4.94764C3.12389 2.53565 5.09191 0.585939 7.49971 0.585939C9.93601 0.585939 11.9128 2.57778 11.8946 5.01355C11.879 7.09756 10.5876 8.38185 8.52575 11.0696C8.15798 11.5488 7.82025 12.0019 7.50056 12.445C7.18181 12.0016 6.85081 11.5567 6.47754 11.0695C4.33048 8.26915 3.08973 7.08192 3.10561 4.94764ZM7.50012 14.4141C4.98495 14.4141 3.10561 13.6407 3.10561 12.9492C3.10561 12.4364 4.22909 11.7886 6.11809 11.5643C6.53566 12.1122 6.90176 12.6099 7.26082 13.1183C7.31567 13.1959 7.40479 13.2422 7.49986 13.2422C7.49994 13.2422 7.50003 13.2422 7.50012 13.2422C7.5951 13.2422 7.68419 13.1962 7.73912 13.1187C8.09479 12.6169 8.4709 12.1069 8.8849 11.5646C10.7721 11.7892 11.8946 12.4368 11.8946 12.9493C11.8946 13.6407 10.0153 14.4141 7.50012 14.4141Z" fill="#72AB66"/>
</svg>
