<svg width="10" height="13" viewBox="0 0 10 13" fill="none" xmlns="http://www.w3.org/2000/svg">
<path d="M5 13C4.12 13 0 9 0 5.74286C0 4.41678 0.526784 3.14501 1.46447 2.20732C2.40215 1.26964 3.67392 0.742859 5 0.742859C6.32608 0.742859 7.59785 1.26964 8.53553 2.20732C9.47322 3.14501 10 4.41678 10 5.74286C10 9.01143 5.88 13 5 13ZM5 1.59429C3.90072 1.5958 2.84698 2.03355 2.07021 2.81139C1.29344 3.58924 0.857142 4.64358 0.857143 5.74286C0.857143 8.45143 4.23429 11.7657 5 12.1257C5.76571 11.7657 9.14286 8.45143 9.14286 5.74286C9.14286 4.64358 8.70656 3.58924 7.92979 2.81139C7.15302 2.03355 6.09928 1.5958 5 1.59429Z" fill="#667085"/>
<path d="M4.99998 8.14285C4.51966 8.14285 4.05012 8.00042 3.65074 7.73356C3.25136 7.46671 2.94009 7.08742 2.75628 6.64365C2.57246 6.19989 2.52437 5.71158 2.61808 5.24049C2.71178 4.76939 2.94308 4.33666 3.28272 3.99702C3.62237 3.65738 4.0551 3.42608 4.52619 3.33237C4.99729 3.23866 5.48559 3.28676 5.92936 3.47057C6.37312 3.65438 6.75241 3.96566 7.01927 4.36504C7.28612 4.76441 7.42856 5.23395 7.42856 5.71428C7.42705 6.35791 7.17069 6.97475 6.71558 7.42987C6.26046 7.88499 5.64362 8.14134 4.99998 8.14285ZM4.99998 4.14285C4.68918 4.14285 4.38536 4.23501 4.12694 4.40768C3.86852 4.58035 3.66711 4.82578 3.54817 5.11292C3.42924 5.40006 3.39812 5.71602 3.45875 6.02085C3.51938 6.32568 3.66905 6.60568 3.88882 6.82545C4.10858 7.04521 4.38859 7.19488 4.69341 7.25551C4.99824 7.31615 5.3142 7.28503 5.60134 7.16609C5.88848 7.04715 6.13391 6.84574 6.30658 6.58732C6.47925 6.3289 6.57141 6.02508 6.57141 5.71428C6.57141 5.29751 6.40585 4.89781 6.11115 4.60311C5.81645 4.30841 5.41675 4.14285 4.99998 4.14285Z" fill="#667085"/>
</svg>
