<svg width="23" height="26" viewBox="0 0 23 26" fill="none" xmlns="http://www.w3.org/2000/svg">
<path d="M16.8416 4.11107C16.0455 3.69291 15.0631 4.00024 14.6449 4.79626C14.2268 5.59229 14.5341 6.57473 15.3301 6.9929C18.0457 8.41366 19.7486 11.23 19.7435 14.2932C19.7435 18.8376 16.0455 22.5356 11.5011 22.5356C6.95669 22.5356 3.25868 18.8427 3.25868 14.2982C3.25365 11.23 4.95654 8.4187 7.67211 6.99794C8.46814 6.57977 8.77547 5.59733 8.3573 4.8013C7.93913 4.00527 6.95669 3.69291 6.16066 4.11107C0.538077 7.06344 -1.63337 14.0161 1.31899 19.6387C4.27135 25.2613 11.219 27.4277 16.8416 24.4753C22.4641 21.523 24.6306 14.5753 21.6832 8.95275C20.6 6.8871 18.9122 5.19932 16.8416 4.11107Z" fill="#FF4B05"/>
<path d="M11.5011 12.822C12.3979 12.822 13.1284 12.0915 13.1284 11.1947V1.6272C13.1284 0.730411 12.3979 -0.00012207 11.5011 -0.00012207C10.6043 -0.00012207 9.87378 0.730411 9.87378 1.6272V11.1947C9.87378 12.0915 10.5993 12.822 11.5011 12.822Z" fill="#FF4B05"/>
</svg>
