<svg width="229" height="192" viewBox="0 0 229 192" fill="none" xmlns="http://www.w3.org/2000/svg">
    <path d="M99.613 31.8631C100.678 33.5017 100.596 34.8945 99.9407 36.6151C99.9407 35.9596 100.268 35.2223 99.613 34.8945C99.2853 34.8945 99.2853 35.2223 99.2853 35.55C99.2853 34.8945 98.9576 34.5668 98.6298 34.1572C97.9744 36.2054 97.9744 37.926 97.9744 39.8923C97.3189 39.5646 97.9744 38.1718 97.319 38.4995C96.3358 38.8272 96.9912 40.5478 97.319 41.531C94.943 37.1067 94.6152 31.6992 96.6635 26.9472C98.0563 24.2435 100.432 21.8675 102.808 19.4915C103.136 19.1638 103.792 18.0987 102.808 18.0987C101.825 17.771 101.088 18.7541 100.76 19.8192C100.432 19.4915 100.432 19.4915 100.105 19.1638C99.7769 20.147 99.1214 21.2121 98.7118 22.1952C98.7118 21.8675 98.7118 20.8024 98.3841 20.8024C97.4009 21.1301 97.4009 22.8507 96.9912 23.8339C96.9912 23.5061 96.9912 22.441 96.6635 22.8507C95.6803 23.5061 95.6803 25.2267 95.2707 26.6195C95.2707 26.2918 95.5984 25.2267 94.9429 25.2267C93.9598 25.5544 94.2875 26.9472 94.2875 27.9304C94.2875 27.6027 93.9598 27.275 93.9598 27.275C92.9766 28.2581 93.3043 29.651 93.3043 30.6341C92.6489 30.3064 92.9766 29.2413 92.6489 29.2413C91.6657 30.2245 91.9934 31.6173 91.6657 33.0101C91.338 32.3547 91.9934 31.2896 91.338 30.6341C90.6825 31.6173 90.6825 32.6824 90.3548 33.6656C90.0271 32.6824 90.6825 31.6173 90.0271 30.9619C89.3716 31.945 90.0271 33.3379 89.6994 34.321C89.0439 31.2896 89.0439 28.1762 90.0271 25.4725C90.6825 24.0796 91.4199 22.7687 92.4031 21.3759C93.3863 19.9831 94.7791 18.9999 96.1719 18.0167C98.2202 16.2962 100.924 15.9685 102.644 13.9202C101.989 13.2647 100.924 14.2479 100.268 13.5925C99.9407 13.9202 99.9407 13.9202 99.613 14.2479C99.613 13.9202 99.613 13.5925 99.2853 13.5925C98.6298 13.5925 98.3021 13.9202 97.8925 14.2479C97.8925 13.9202 97.8925 13.5925 97.5647 13.5925C96.9093 13.5925 96.5816 14.2479 96.1719 14.5756C96.1719 14.2479 95.8442 13.9202 95.8442 13.9202C95.5165 14.2479 94.4514 14.2479 94.4514 15.313C94.1236 14.9853 94.1236 14.9853 93.7959 14.6576C93.4682 14.9853 93.1405 15.313 93.1405 16.0504C93.1405 15.7227 93.1405 15.395 92.8127 15.395C92.485 15.7227 92.1573 16.0504 92.1573 16.7878L91.8296 16.4601C91.5018 17.1155 91.1741 17.8529 91.1741 18.5083C91.1741 18.1806 90.8464 17.8529 90.8464 17.8529C90.1909 18.5083 90.5187 19.5734 90.1909 20.2289C89.5355 16.1323 91.1741 12.4454 94.9429 11.3803C98.7118 9.9875 102.726 9.00433 106.823 11.0526C106.823 11.0526 107.151 10.7249 107.151 10.3972C106.823 9.41398 105.758 7.36571 104.447 8.6766C104.447 8.34888 104.447 8.02116 104.775 7.69343C104.119 6.71026 103.054 8.02116 102.399 7.69343L102.726 7.36571C102.071 6.38254 101.334 7.69343 100.678 7.36571L101.006 7.03798C101.006 6.71026 100.678 6.71026 100.35 6.71026C100.023 7.03798 98.9576 7.03798 98.9576 8.10309C98.9576 7.77536 99.2853 6.71026 98.6298 6.71026C97.6467 7.03798 97.237 8.43081 96.5816 9.08626C96.2538 7.69343 96.5816 6.38254 97.9744 5.72709C101.006 3.67881 104.119 3.35109 107.478 4.33426C109.527 4.98971 110.51 6.71026 111.575 8.43081C112.23 7.03798 112.558 5.72709 112.968 4.00653C112.968 4.33426 112.968 4.66198 113.296 4.98971C113.951 3.59688 113.623 1.95826 114.279 0.56543C114.934 1.95826 114.606 3.59688 115.262 4.98971C115.59 4.66198 115.59 4.33426 115.59 4.00653C115.917 5.72709 116.245 7.03798 116.982 8.43081C117.966 6.05481 120.014 4.66198 122.39 4.00653C126.159 3.35109 132.222 4.33426 131.894 9.08626C131.238 8.43081 130.911 7.03798 129.846 6.71026C129.19 6.71026 129.518 7.69343 129.518 8.10309C129.518 7.11992 128.535 7.11991 128.125 6.71026C127.797 6.38253 127.47 6.71026 127.47 7.03798C127.47 7.36571 127.797 7.36571 127.797 7.69343C127.142 7.36571 126.404 6.71026 125.749 7.36571C126.077 7.36571 126.077 7.69343 126.077 8.02116C125.421 7.69343 124.684 7.36571 124.028 7.36571C123.373 7.69343 124.356 8.34888 124.028 8.75854C123.701 8.10309 123.045 8.43081 122.636 8.43081C121.98 9.08626 120.587 11.1345 120.915 11.1345C125.012 9.41398 129.764 10.1514 133.451 11.4623C134.843 11.79 136.482 13.1828 137.547 14.4937C138.203 16.2143 138.53 18.2625 138.203 20.2289C137.547 19.5734 138.203 18.5083 137.547 17.8529C137.547 17.8529 137.219 18.1806 137.219 18.5083C137.219 17.1155 136.236 16.4601 135.499 15.4769C135.171 15.4769 135.171 15.8046 135.171 16.1323C135.171 15.4769 134.843 15.1492 134.516 14.7395C134.188 15.0672 134.188 15.0672 133.86 15.395C133.86 14.4118 132.877 14.4118 132.467 14.0021C132.467 14.0021 132.14 14.3298 132.14 14.6576C131.812 14.3298 131.484 14.0021 131.156 13.6744C130.501 13.6744 130.173 14.3298 129.436 13.6744C129.108 13.3467 128.78 13.6744 128.78 14.3298C128.453 14.0021 128.453 14.0021 128.125 13.6744C127.47 14.3298 126.404 13.3467 125.749 14.0021C128.78 16.7058 133.205 17.771 135.908 21.4579C138.612 25.5544 140.005 29.9787 138.612 34.403C138.284 33.4198 138.94 32.027 138.284 31.0438C137.629 31.6992 138.284 32.7643 137.957 33.7475C137.629 32.7643 137.629 31.6992 136.974 30.7161C136.318 31.3715 136.646 32.4366 136.646 33.0921C136.318 31.6992 136.646 30.3883 135.663 29.3232C135.335 29.3232 135.663 30.3064 135.007 30.7161C135.007 29.7329 135.335 28.3401 134.352 27.3569C134.352 27.3569 134.024 27.6846 134.024 28.0123C134.024 27.0292 134.352 25.6363 133.369 25.3086C132.713 25.3086 133.041 26.2918 133.041 26.7014C132.713 25.3086 132.713 23.67 131.648 22.9326C131.32 22.6049 131.32 23.5881 131.32 23.9158C130.993 22.9326 130.993 21.2121 129.928 20.8843C129.6 20.8843 129.6 21.8675 129.6 22.2772C129.272 21.294 128.617 20.2289 128.207 19.2457C127.879 19.5734 127.879 19.5734 127.552 19.9012C127.224 18.918 126.568 18.1806 125.503 17.8529C125.176 17.8529 125.176 18.5083 125.176 18.8361C127.224 21.5398 129.928 23.5881 131.648 26.2918C134.024 31.0438 133.369 36.8609 130.993 41.6129C131.32 40.6297 131.976 38.9092 130.993 38.5814C130.337 38.2537 130.993 39.5646 130.337 39.9743C130.337 37.926 130.337 36.2054 129.682 34.2391C129.354 34.5668 129.026 34.8945 129.026 35.6319C129.026 35.3042 129.026 34.9765 128.699 34.9765C128.043 35.3042 128.371 35.9596 128.371 36.697C127.715 34.9765 128.371 32.9282 129.026 31.2896C129.026 30.6341 128.699 29.8967 128.371 29.2413C128.043 29.569 127.715 29.8967 127.715 30.6341C127.388 29.2413 127.715 27.6027 127.06 26.2099C126.404 26.5376 126.732 27.193 126.732 27.6027C126.077 26.6195 127.06 25.2267 126.077 24.5712C125.749 24.5712 126.077 25.5544 125.421 25.9641C125.421 24.9809 125.749 23.5881 124.766 22.9326C124.438 22.9326 124.438 23.9158 124.438 24.3254C124.438 23.3423 124.11 21.6217 123.045 21.294C122.718 21.294 123.045 22.2772 122.718 22.6868C122.718 22.6868 122.39 22.6868 122.062 22.6868C122.062 22.3591 122.062 22.0314 121.734 22.0314C121.407 22.0314 121.079 22.0314 121.079 22.3591C121.407 23.3423 122.8 23.3423 123.127 24.4074C123.127 25.3905 124.11 25.8002 124.11 26.7834C123.783 26.1279 122.718 25.8002 122.062 26.4556C123.783 27.1111 125.421 28.1762 125.094 30.2245C125.094 29.569 124.438 28.8316 123.701 28.5039C123.373 28.5039 122.718 28.5039 122.718 28.8316C124.11 30.2245 125.421 31.5354 125.094 33.5836C125.094 32.9282 124.766 32.1908 124.11 31.8631C123.783 31.8631 123.455 32.1908 123.455 32.1908C124.438 34.2391 125.503 36.2874 124.848 38.6634C124.848 38.0079 125.176 36.9428 124.52 37.2705C123.865 37.2705 124.192 38.2537 124.192 38.9911L123.865 38.6634C123.209 39.6465 124.192 40.3839 123.865 41.3671C123.537 42.3503 123.537 43.0877 123.209 44.0708C122.881 43.0877 123.537 41.6948 122.881 40.7117C122.226 42.1045 122.226 43.7431 122.226 45.4636C122.226 45.1359 122.226 44.8082 121.898 44.8082C121.243 45.1359 121.898 46.201 121.243 46.5288C121.571 44.1528 120.587 41.7768 120.587 39.4008C120.915 39.4008 121.243 39.4008 121.243 39.073C121.243 38.4176 121.571 37.0247 120.915 37.0247C120.26 36.697 120.915 38.4176 120.26 38.7453C120.26 37.3525 120.26 36.0416 119.276 35.7139C118.621 35.3861 119.604 36.697 118.621 37.1067C117.228 37.4344 117.966 36.1235 117.228 35.3861C116.245 48.9867 116.573 56.1966 117.228 69.7152C117.228 71.4358 118.211 73.0744 117.884 74.795C117.556 75.4504 117.228 76.5155 117.556 77.171C117.556 78.1541 117.884 79.2192 118.539 80.2024C118.867 81.5952 117.556 82.9061 117.884 84.299C118.867 86.675 119.932 89.051 121.652 91.427C117.228 91.427 112.476 91.427 108.052 91.427C109.445 88.7233 111.821 86.3473 111.411 83.3158C111.411 82.3326 110.756 81.2675 111.083 80.2843C112.804 77.5806 111.411 75.2046 111.739 72.1732C112.067 71.5177 112.394 70.7803 112.394 70.1249C113.05 56.1966 113.05 49.3144 112.394 35.4681C111.739 35.7958 112.067 36.4512 112.067 36.8609C111.739 37.5163 110.674 37.1886 110.346 36.5332C110.674 36.5332 110.674 36.2054 110.674 35.8777C110.018 34.8945 110.018 36.2054 109.691 36.2054C109.363 36.8609 109.035 37.926 109.363 38.9092C108.707 38.5814 109.363 36.8609 108.707 37.1886C108.052 37.1886 108.38 38.5814 108.38 39.2369C108.38 39.5646 108.707 39.5646 109.035 39.5646C109.035 41.9406 108.052 44.3166 108.38 46.6926C107.724 46.3649 108.38 45.2998 107.724 44.9721C107.396 44.9721 107.396 45.2998 107.396 45.6275C107.396 43.907 107.396 42.2683 106.741 40.8755C106.086 41.8587 106.741 43.2515 106.413 44.2347C106.086 43.2515 106.086 42.5141 105.758 41.531C105.43 40.5478 106.413 39.8104 105.758 38.8272L105.43 39.155C105.43 38.4995 105.758 37.4344 105.102 37.4344C104.447 37.1067 104.775 38.0899 104.775 38.8272C104.447 36.779 104.447 34.403 106.168 32.6824C106.495 32.3547 106.167 32.027 105.84 32.027C104.857 32.027 104.857 33.0101 104.447 33.7475C104.119 31.6992 105.43 30.3883 106.823 28.9955C106.823 28.6678 106.167 28.6678 105.84 28.6678C105.184 28.9955 104.447 29.651 104.447 30.3883C104.119 28.3401 105.84 27.3569 107.478 26.6195C106.823 25.9641 105.758 26.2918 105.43 26.9472C106.086 25.5544 106.823 24.5712 108.134 23.5881C106.741 22.6868 106.331 22.3591 105.676 22.3591C106.331 22.0314 105.676 21.3759 106.331 20.9663C106.331 20.6385 106.004 20.6385 105.676 20.6385C104.693 21.294 103.955 22.6868 103.955 23.9977C103.955 23.67 103.955 22.6049 103.628 22.6049C102.644 23.2603 102.972 24.6532 102.972 25.6363C102.317 25.3086 102.972 24.2435 102.317 24.2435C101.334 24.899 102.317 26.2918 101.661 27.275C101.661 26.9472 101.989 26.2918 101.334 25.8821C100.678 27.275 101.006 28.9136 100.678 30.3064C100.678 29.651 100.35 29.3232 100.023 28.9136C99.613 30.1425 98.8756 30.8799 99.613 31.8631Z" fill="#006C35"/>
    <path d="M84.292 83.234C95.5165 86.5112 105.348 92.738 114.525 99.5383C133.86 82.5785 161.061 76.106 186.214 80.858C162.127 81.5134 136.974 87.986 119.277 104.946C124.029 109.37 128.781 113.794 133.533 118.219C134.925 116.17 134.925 113.467 136.564 111.418C138.285 109.37 140.988 108.387 143.364 108.715C146.068 109.37 148.116 112.074 147.461 114.859C146.478 118.956 142.053 119.939 138.285 117.563C137.629 117.235 136.564 119.611 137.301 120.595C138.694 122.971 141.398 124.363 144.102 125.347C146.15 122.315 150.902 122.315 152.95 125.347C154.671 127.723 153.606 131.082 151.23 132.147C144.757 134.851 137.957 130.426 132.877 126.412C129.846 131.164 121.653 136.243 116.901 130.18C116.245 129.197 115.917 127.804 116.245 126.412C116.901 123.708 119.604 121.66 122.39 122.315C123.783 122.643 125.094 122.971 125.749 124.363C126.405 125.347 125.421 127.067 126.732 126.739C127.715 126.739 129.436 125.019 129.108 124.691C125.749 118.219 119.277 114.859 114.197 110.107C109.117 114.859 103.3 118.219 99.2854 124.363C98.6299 125.347 100.678 126.739 101.661 126.739C103.054 126.739 102.317 123.708 104.037 122.971C105.758 122.315 107.397 121.987 109.117 122.643C111.165 123.626 112.476 126.002 112.149 128.378C111.493 131.737 107.724 133.13 104.693 132.802C100.924 132.147 97.5648 129.771 95.5165 126.33C90.7645 130.099 85.3571 133.785 78.8845 133.13C77.4917 132.802 76.1808 132.147 75.5254 130.754C74.1325 128.378 74.8699 125.347 77.2459 123.626C79.6219 122.233 82.6534 122.971 84.3739 125.347C87.0776 124.363 89.7814 122.971 91.1742 120.595C91.8297 119.611 90.8465 117.235 89.7814 117.563C88.0608 118.219 86.0125 119.284 84.0462 118.546C81.9979 117.563 80.687 115.187 81.0147 112.811C81.6702 109.78 84.3739 108.059 87.4873 108.715C89.2079 109.37 90.5187 110.107 91.9116 111.418C93.6321 113.467 93.6321 116.17 94.943 118.219C99.695 113.794 104.447 109.37 109.199 104.946C91.5019 87.986 66.431 81.5134 42.2614 80.858C56.1077 78.0723 70.3637 79.1374 84.292 83.234Z" fill="#006C35"/>
    <path d="M11.8594 173.355H13.2712V171.943H11.8594V173.355Z" fill="black"/>
    <path d="M96.8521 168.273C96.005 168.273 95.4403 168.273 95.4403 168.273C94.5932 167.426 94.5932 167.426 94.5932 166.861C93.7461 166.014 93.7461 166.014 93.7461 165.449C93.7461 164.884 93.7461 164.602 94.5932 164.037C94.5932 163.19 94.5932 163.19 95.4403 162.625C96.2874 162.625 96.2874 162.625 96.8521 161.778C96.8521 161.778 97.6992 161.778 98.264 161.778H99.6758V169.12H98.264C97.6992 168.837 96.8521 168.837 96.8521 168.273ZM116.335 170.532V160.084H114.924V168.837H108.994V160.084H107.3V168.837H101.37V160.084H99.1111C97.6992 160.084 96.8521 160.084 96.2874 160.931C95.4403 160.931 94.8755 160.931 94.8755 161.778C94.0284 162.343 93.1813 162.343 93.1813 162.908C92.3342 163.755 92.3342 164.32 92.3342 165.167C92.3342 166.014 92.3342 166.578 93.1813 167.426C93.1813 168.273 94.0284 168.837 94.5932 168.837C95.4403 169.684 95.4403 169.684 96.005 169.684C96.8521 170.532 98.264 170.532 98.8287 170.532H116.335Z" fill="black"/>
    <path d="M83.5808 170.532H84.9926V156.978H83.5808V170.532Z" fill="black"/>
    <path d="M99.9581 158.672H101.37V156.978H99.9581V158.672Z" fill="black"/>
    <path d="M114.641 173.355H116.335V171.943H114.641V173.355Z" fill="black"/>
    <path d="M14.6831 173.355H16.3773V171.943H14.6831V173.355Z" fill="black"/>
    <path d="M44.3317 168.837L42.0728 162.908C42.9199 162.061 42.9199 162.06 43.4846 162.06C44.3317 161.213 44.8964 161.213 45.7435 161.213C46.5907 161.213 47.1554 161.213 48.0025 162.06C48.0025 162.06 48.8496 162.908 49.4143 162.908L47.1554 168.837H44.3317ZM36.143 168.837H34.7312C33.8841 168.837 33.3194 168.837 33.3194 167.99C32.4723 167.99 31.9075 167.99 31.9075 167.99C31.0604 167.425 31.0604 167.425 31.0604 166.578C30.2133 165.731 30.2133 165.731 30.2133 165.167C30.2133 164.602 30.2133 164.319 31.0604 163.755C31.0604 162.908 31.0604 162.908 31.9075 162.908C32.7546 162.061 32.7546 162.06 33.3194 162.06C33.3194 161.213 34.1665 161.213 34.7312 161.213H36.143V168.837ZM77.6511 168.837H75.3921C74.545 168.837 73.9803 168.837 73.1332 167.99C72.2861 167.99 72.2861 167.143 72.2861 167.143C72.2861 166.296 72.2861 166.296 72.2861 165.731V160.649H70.8742V165.731C70.8742 166.578 70.0271 167.143 70.0271 167.99C69.18 168.837 68.6153 168.837 67.7682 168.837C66.9211 168.837 66.9211 168.837 66.3564 168.837L65.5093 167.99L64.6622 167.143C64.6622 166.296 64.6622 166.296 64.6622 166.296V160.366H63.2503V165.449C63.2503 166.296 63.2503 166.861 63.2503 166.861C62.4032 166.861 62.4032 167.708 62.4032 167.708C61.5561 167.708 61.5561 167.708 61.5561 168.555C60.709 168.555 60.709 168.555 60.1443 168.555H57.3206V160.366H55.9088V168.555H48.5672L50.8262 161.778L49.9791 160.931C49.132 160.931 48.5672 160.084 48.5672 160.084C47.7201 160.084 47.1554 159.237 47.1554 159.237C46.3083 159.237 45.7435 159.237 45.7435 159.237C44.8964 159.237 44.8964 159.237 44.3317 159.237C43.4846 159.237 43.4846 160.084 42.9199 160.084C42.3551 160.084 42.0728 160.931 41.508 160.931C40.6609 160.931 40.6609 161.778 40.0962 161.778L42.9199 168.555H37.8373V160.084H35.5783C34.1665 160.084 33.3194 160.084 32.7546 160.931C31.9075 160.931 31.3428 160.931 31.3428 161.778C30.4957 162.625 29.931 162.625 29.931 163.19C29.0839 164.037 29.0839 164.602 29.0839 165.449C29.0839 166.296 29.0839 166.861 29.931 167.708C29.931 168.555 30.7781 169.12 31.3428 169.12C32.1899 169.967 32.1899 169.967 32.7546 169.967C33.6017 170.814 35.0136 170.814 35.5783 170.814H36.4254C36.4254 171.661 36.4254 172.226 35.5783 173.073C34.7312 173.073 34.1665 173.073 33.3194 173.073H32.4723C31.6252 173.073 31.6252 173.073 31.0604 173.073L30.2133 174.202C31.0604 174.202 31.6252 174.202 31.6252 174.202C32.4723 174.202 33.037 174.202 33.037 174.202C34.4488 174.202 35.8607 174.202 36.7078 173.355C36.7078 172.508 37.5549 171.943 37.5549 170.532H60.4267C61.2738 170.532 61.8385 170.532 62.6856 169.684C63.5327 169.684 63.5327 168.837 64.0974 168.837C64.0974 168.837 64.9445 169.684 65.5093 169.684C66.3564 170.532 66.9211 170.532 67.7682 170.532C68.6153 170.532 69.18 170.532 70.0271 169.684C70.8743 169.684 71.439 168.837 71.439 168.837C71.439 168.837 71.439 168.837 72.2861 168.837C72.2861 169.684 72.2861 169.684 73.1332 169.684C73.1332 169.684 73.1332 170.532 73.9803 170.532H74.8274H79.0629V157.26H77.6511V168.837Z" fill="black"/>
    <path d="M6.77686 158.672H8.75342V156.978H6.77686V158.672Z" fill="black"/>
    <path d="M159.255 158.672H160.667V156.978H159.255V158.672Z" fill="black"/>
    <path d="M145.702 170.532H147.396V156.978H145.702V170.532Z" fill="black"/>
    <path d="M96.8521 158.672H98.5463V156.978H96.8521V158.672Z" fill="black"/>
    <path d="M26.5426 164.602C26.5426 163.755 26.5426 163.19 26.5426 163.19C26.5426 162.343 25.6954 161.778 25.6954 161.778C24.8483 160.931 24.8483 160.931 24.2836 160.931C23.7189 160.084 22.8718 160.084 22.307 160.084H21.4599V161.496H22.8718H23.7189C24.566 162.343 24.566 162.343 24.566 162.343C25.4131 163.19 25.4131 163.19 25.4131 163.19C25.4131 164.037 25.4131 164.037 25.4131 164.602V169.12H18.0715V170.532H26.8249V164.602H26.5426Z" fill="black"/>
    <path d="M225.047 170.532H226.459V156.978H225.047V170.532Z" fill="black"/>
    <path d="M161.232 158.672H162.926V156.978H161.232V158.672Z" fill="black"/>
    <path d="M212.34 168.273C212.34 169.12 212.34 169.12 211.493 169.685C211.493 169.685 210.646 169.685 210.081 170.532C210.081 170.532 209.234 170.532 208.669 170.532C208.669 170.532 207.822 170.532 207.258 170.532C207.258 169.685 206.411 169.685 206.411 169.685C205.563 168.837 205.563 168.273 205.563 168.273C204.716 167.426 204.716 167.426 204.716 166.861C204.716 166.014 204.716 165.449 205.563 165.449C205.563 164.602 205.563 164.602 206.411 164.037L207.258 163.19C208.105 163.19 208.669 162.343 208.669 162.343C209.517 162.343 210.081 163.19 210.081 163.19C210.928 163.19 211.493 164.037 211.493 164.037C212.34 164.037 212.34 164.884 212.34 165.449C213.187 165.449 213.187 166.296 213.187 166.861C213.187 167.426 213.187 167.426 212.34 168.273ZM198.504 168.273C197.657 169.12 197.657 169.12 197.092 169.685C197.092 169.685 196.245 169.685 196.245 170.532C195.398 170.532 194.833 170.532 194.833 170.532C193.986 170.532 193.422 170.532 193.422 170.532C192.575 169.685 192.01 169.685 192.01 169.685C191.163 168.837 191.163 168.273 191.163 168.273C191.163 167.426 190.316 167.426 190.316 166.861C190.316 166.014 191.163 165.449 191.163 165.449C191.163 164.602 191.163 164.602 192.01 164.037C192.01 164.037 192.857 163.19 193.422 163.19C193.422 163.19 194.269 162.343 194.833 162.343C194.833 162.343 195.681 163.19 196.245 163.19L197.092 164.037C197.94 164.037 197.94 164.884 198.504 165.449C198.504 165.449 198.504 166.296 198.504 166.861C198.504 167.426 198.504 167.426 198.504 168.273ZM161.232 168.837H159.82C159.82 168.837 158.973 168.837 158.408 167.99C157.561 167.99 157.561 167.99 156.996 167.99C156.996 167.143 156.149 167.143 156.149 166.579C156.149 165.731 156.149 165.731 156.149 165.167C156.149 164.602 156.149 164.32 156.149 163.755C156.996 162.908 156.996 162.908 156.996 162.343C157.843 162.343 158.408 162.343 158.408 161.496C159.255 161.496 159.82 161.496 159.82 161.496H161.232V168.837ZM220.529 156.978H219.117V168.837H214.034C214.882 167.99 214.882 167.426 214.882 166.579C214.882 165.731 214.882 165.167 214.034 164.32C214.034 163.472 213.187 162.908 213.187 162.908C212.34 162.061 211.776 161.496 210.928 161.496C210.081 161.496 209.517 160.649 208.669 160.649C207.822 160.649 207.258 161.496 206.411 161.496C206.411 161.496 205.563 162.343 204.999 162.908C204.999 162.908 204.152 163.755 204.152 164.32C203.305 165.167 203.305 165.731 203.305 166.579V167.426C203.305 168.273 204.152 168.273 204.152 168.837H199.069C199.916 167.99 199.916 167.426 199.916 166.579C199.916 165.731 199.916 165.167 199.069 164.32C199.069 163.472 199.069 162.908 198.222 162.908C197.375 162.061 196.81 161.496 196.81 161.496C195.963 161.496 195.398 160.649 194.551 160.649C193.704 160.649 193.139 161.496 192.292 161.496C191.445 161.496 190.88 162.343 190.88 162.908C190.033 162.908 189.468 163.755 189.468 164.32C189.468 165.167 188.621 165.731 188.621 166.579C188.621 166.579 188.621 167.426 189.468 167.426C189.468 168.273 189.468 168.273 189.468 168.837H184.951V156.978H183.539V168.837H178.456V166.579C178.456 165.731 178.456 165.167 178.456 164.32L177.609 163.472C176.762 162.625 176.762 162.625 176.197 162.061C175.35 162.061 175.35 162.061 174.785 162.061H168.009L170.268 156.978H168.856L166.032 162.061C166.032 162.061 166.032 162.908 166.879 162.908V163.755H175.068H175.915C176.762 163.755 176.762 164.602 176.762 164.602C177.609 164.602 177.609 165.449 177.609 165.449C177.609 166.296 177.609 166.296 177.609 166.861V169.12H163.491V160.084H161.232C160.385 160.084 159.82 160.084 158.973 160.931C158.126 160.931 157.561 160.931 156.714 161.778C155.867 162.625 155.302 162.343 154.737 162.908C154.737 163.755 154.737 164.32 154.737 165.167C154.737 166.014 154.737 166.579 154.737 167.426C155.584 168.273 155.584 168.837 156.149 168.837C156.996 169.685 157.561 169.685 158.408 169.685C159.255 170.532 159.82 170.532 160.667 170.532H190.316C191.163 171.379 191.727 171.379 192.575 171.943C193.422 171.943 193.986 171.943 194.833 171.943C195.681 171.943 196.245 171.943 197.092 171.943C197.94 171.096 197.94 171.096 198.504 170.532H205.281C206.128 171.379 206.128 171.379 206.693 171.943C207.54 171.943 208.105 171.943 208.952 171.943C209.799 171.943 210.364 171.943 211.211 171.943C212.058 171.096 212.623 171.096 213.47 170.532H220.811V156.978H220.529Z" fill="black"/>
    <path d="M1.41184 165.167C1.41184 164.32 1.41184 164.32 1.41184 163.755C2.25894 162.908 2.25894 162.908 2.82368 162.343C2.82368 162.343 3.67078 162.343 4.23551 161.496C4.23551 161.496 5.08262 161.496 5.64735 161.496H7.05919V168.837H5.64735C4.80025 168.837 4.23552 168.837 3.38841 167.99H2.82368C1.97657 167.143 1.97657 167.143 1.41184 166.578C1.41184 166.014 1.41184 166.014 1.41184 165.167ZM3.67078 169.684C4.51788 170.532 5.08261 170.532 5.92971 170.532H16.3773V160.084H14.9655V168.837H9.03576V160.084H6.21209C5.36498 160.084 4.80025 160.084 3.95315 160.931C3.10605 160.931 2.5413 160.931 1.6942 161.778C1.6942 162.625 0.8471 162.625 0.8471 163.19C-2.18795e-06 163.755 0 164.602 0 165.167C0 165.731 -2.18795e-06 166.578 0.8471 167.426C0.8471 168.273 1.6942 168.837 2.25894 168.837C2.25894 169.684 2.82367 169.684 3.67078 169.684Z" fill="black"/>
    <path d="M108.711 173.355H110.406V171.943H108.711V173.355Z" fill="black"/>
    <path d="M106.453 173.355H108.147V171.943H106.453V173.355Z" fill="black"/>
    <path d="M126.501 162.908C127.348 162.061 127.913 162.06 128.76 162.06C128.76 161.213 129.607 161.213 130.171 161.213C130.736 161.213 131.583 161.213 132.43 162.06C133.278 162.06 133.842 162.908 133.842 162.908L131.583 168.837H128.76L126.501 162.908ZM121.418 171.943C122.265 171.943 122.265 171.096 122.265 170.532H141.466V157.26H140.054V169.12H133.278L136.101 162.343C135.254 162.343 135.254 161.496 134.689 161.496C133.842 161.496 133.842 160.649 133.278 160.649C132.43 160.649 132.43 159.802 131.866 159.802C131.019 159.802 131.019 159.802 130.454 159.802C130.454 159.802 129.607 159.802 129.042 159.802C129.042 159.802 128.195 160.649 127.63 160.649C127.63 160.649 126.783 161.496 126.218 161.496L125.371 162.343L127.63 169.12H122.548V160.084H121.136V170.532C121.136 171.379 121.136 171.379 121.136 171.943C121.136 171.943 120.289 171.943 120.289 172.79C119.442 172.79 119.442 172.79 119.442 172.79H118.594L117.747 174.202C118.594 174.202 118.594 174.202 119.159 174.202C119.724 174.202 120.006 174.202 120.571 174.202L121.418 173.355C121.418 173.355 121.418 172.508 121.418 171.943Z" fill="black"/>
    <path d="M4.51782 158.672H5.92966V156.978H4.51782V158.672Z" fill="black"/>
    <path d="M11.0124 180.132H8.18869L3.6708 185.215V180.132H1.41187V191.144H3.6708V187.474L5.08264 186.062L8.75342 191.144H11.0124L6.77685 184.368L11.0124 180.132Z" fill="black"/>
    <path d="M12.4241 191.144H14.683V180.132H12.4241V191.144Z" fill="black"/>
    <path d="M25.1306 187.474L19.2009 180.132H17.7891V191.144H19.2009V182.956L25.1306 191.144H26.5425V180.132H25.1306V187.474Z" fill="black"/>
    <path d="M34.7312 186.627H36.9902V188.321C36.9902 189.168 35.5783 189.733 34.7312 189.733C32.4723 189.733 31.0605 187.474 31.0605 185.215C31.0605 183.803 32.4723 181.544 34.7312 181.544C36.1431 181.544 36.9902 182.391 37.5549 182.956L38.402 181.544C37.5549 180.697 36.1431 180.132 34.7312 180.132C31.0604 180.132 28.8015 182.391 28.8015 185.215C28.8015 188.885 31.0604 191.144 34.7312 191.144C36.1431 191.144 38.402 190.297 39.2491 189.733V185.215H34.7312V186.627Z" fill="black"/>
    <path d="M49.6967 185.215C49.6967 187.474 48.2849 188.885 46.026 188.885H43.767V181.544H46.026C48.0025 181.544 49.6967 183.803 49.6967 185.215ZM45.7436 180.132H41.2257V191.144H45.7436C48.5673 191.144 51.6733 188.321 51.6733 185.215C51.6733 182.391 48.8496 180.132 45.7436 180.132Z" fill="black"/>
    <path d="M62.1208 185.215C62.1208 187.474 60.709 189.733 59.2971 189.733C57.0382 189.733 55.6264 187.474 55.6264 185.215C55.6264 183.803 57.0382 181.544 59.2971 181.544C60.709 181.544 62.1208 183.803 62.1208 185.215ZM59.2971 180.132C55.6264 180.132 53.3674 182.391 53.3674 185.215C53.3674 188.038 55.6264 191.144 59.2971 191.144C62.1208 191.144 64.3798 188.321 64.3798 185.215C64.3798 182.391 62.1208 180.132 59.2971 180.132Z" fill="black"/>
    <path d="M71.7214 185.215L68.8977 180.132H66.6388V191.144H68.8977V182.956L71.7214 188.321L75.3922 182.956V191.144H77.6511V180.132H75.3922L71.7214 185.215Z" fill="black"/>
    <path d="M93.1812 185.215C93.1812 187.474 91.7694 189.733 89.5105 189.733C88.0986 189.733 85.8397 187.474 85.8397 185.215C85.8397 183.803 87.2515 181.544 89.5105 181.544C91.7694 181.544 93.1812 183.803 93.1812 185.215ZM89.5105 180.132C86.6868 180.132 84.4279 182.391 84.4279 185.215C84.4279 188.038 86.6868 191.144 89.5105 191.144C93.1812 191.144 95.4402 188.321 95.4402 185.215C95.4402 182.391 93.1812 180.132 89.5105 180.132Z" fill="black"/>
    <path d="M97.6992 191.144H99.9582V186.627H105.041V184.368H99.9582V181.544H105.888V180.132H97.6992V191.144Z" fill="black"/>
    <path d="M116.9 184.368C114.641 184.368 114.076 183.52 114.076 182.956C114.076 182.109 114.924 181.544 115.488 181.544C116.9 181.544 117.747 182.391 118.312 182.956L119.724 181.544C118.312 180.697 117.465 180.132 115.206 180.132C113.794 180.132 112.382 181.544 112.382 182.956C112.382 185.215 113.229 185.779 115.206 185.779C117.465 186.627 118.03 187.191 118.03 188.038C118.03 188.885 117.183 189.45 115.771 189.45C114.359 189.45 113.512 188.603 112.1 188.038L111.253 188.885C112.665 190.297 114.076 191.144 115.771 191.144C118.03 191.144 119.441 189.733 119.441 187.474C120.006 186.062 119.159 185.215 116.9 184.368Z" fill="black"/>
    <path d="M125.089 186.627L126.501 182.109L128.76 186.627H125.089ZM125.936 180.132L121.418 191.144H122.83L124.242 188.321H129.324L130.171 191.144H132.43L127.348 180.132H125.936Z" fill="black"/>
    <path d="M140.619 186.062C140.619 188.321 139.772 188.885 137.795 188.885C136.384 188.885 135.536 188.038 135.536 186.062V180.132H133.277V186.062C133.277 189.733 135.536 191.144 137.795 191.144C140.619 191.144 142.878 189.733 142.878 186.062V180.132H140.619V186.062Z" fill="black"/>
    <path d="M153.326 185.215C153.326 187.474 151.914 188.885 149.655 188.885H147.396V181.544H149.655C151.631 181.544 153.326 183.803 153.326 185.215ZM149.372 180.132H144.854V191.144H149.372C152.196 191.144 154.455 188.321 154.455 185.215C154.737 182.391 152.478 180.132 149.372 180.132Z" fill="black"/>
    <path d="M157.561 191.144H159.255V180.132H157.561V191.144Z" fill="black"/>
    <path d="M169.421 186.627L171.679 182.109L173.091 186.627H169.421ZM170.268 180.132L165.75 191.144H168.009L168.856 188.321H173.938L174.786 191.144H177.044L172.527 180.132H170.268Z" fill="black"/>
    <path d="M180.715 185.215V181.544H183.539C184.951 181.544 185.798 182.391 185.798 183.803C185.798 184.65 184.951 185.215 183.539 185.215H180.715ZM187.21 183.803C187.21 182.391 187.21 181.544 186.363 181.544C185.515 180.697 184.951 180.132 183.539 180.132H179.021V191.144H180.715V187.474H182.974L185.798 191.144H188.057L185.233 186.627C186.645 186.627 187.21 185.215 187.21 183.803Z" fill="black"/>
    <path d="M193.139 186.627L194.551 182.109L196.81 186.627H193.139ZM193.987 180.132L189.469 191.144H190.88L192.292 188.321H197.375L198.222 191.144H200.481L195.398 180.132H193.987Z" fill="black"/>
    <path d="M209.517 187.474C209.517 188.885 208.67 188.885 207.258 188.885H204.434V186.062H207.258C208.67 186.062 209.517 186.626 209.517 187.474ZM204.152 181.544H206.411C207.823 181.544 208.67 182.391 208.67 182.956C208.67 184.367 207.823 184.367 206.411 184.367H204.152V181.544ZM208.67 185.215C210.081 185.215 210.081 184.367 210.081 182.956C210.081 182.109 210.081 181.544 210.081 180.697C209.234 180.697 207.823 179.85 207.258 179.85H202.175V191.144H207.258C209.517 191.144 210.929 189.732 210.929 188.321C210.929 186.626 210.081 186.062 208.67 185.215Z" fill="black"/>
    <path d="M213.188 191.144H215.446V180.132H213.188V191.144Z" fill="black"/>
    <path d="M220.529 186.627L222.788 182.109L224.2 186.627H220.529ZM223.635 180.132H222.223L217.141 191.144H219.4L220.811 188.321H225.329L226.741 191.144H229L223.635 180.132Z" fill="black"/>
</svg>
