<svg width="233" height="233" viewBox="0 0 233 233" fill="none" xmlns="http://www.w3.org/2000/svg">
<path d="M233 116.5C233 155.669 213.687 190.322 184.026 211.443C164.302 225.466 140.701 233 116.5 233C92.2988 233 68.698 225.466 48.9736 211.443C19.3344 190.322 0 155.669 0 116.5C0 52.1592 52.1656 0 116.505 0C180.845 0 233 52.1592 233 116.5Z" fill="url(#paint0_linear_244_353)"/>
<path d="M116.505 18.7442C133.336 18.7517 149.879 23.1027 164.536 31.3762C179.192 39.6497 191.465 51.5658 200.168 65.9717C208.87 80.3776 213.708 96.7857 214.212 113.609C214.717 130.432 210.871 147.1 203.047 162.002C195.878 175.56 185.648 187.26 173.168 196.174C156.618 207.934 136.819 214.252 116.516 214.252C96.214 214.252 76.4149 207.934 59.8651 196.174C47.3851 187.26 37.1545 175.56 29.9853 162.002C22.1569 147.102 18.3069 130.435 18.8078 113.612C19.3087 96.7883 24.1437 80.3792 32.8447 65.9723C41.5458 51.5653 53.8184 39.6483 68.4747 31.3745C83.1311 23.1007 99.675 18.7503 116.505 18.7442ZM116.505 2.76562C53.6924 2.76563 2.76562 53.6859 2.76562 116.5C2.76562 154.739 21.6409 188.569 50.5769 209.19C69.8334 222.88 92.8737 230.234 116.5 230.234C140.126 230.234 163.166 222.88 182.423 209.19C211.366 188.569 230.238 154.739 230.238 116.5C230.238 53.6859 179.318 2.76562 116.505 2.76562Z" fill="#A7A9AC"/>
<path style="mix-blend-mode:multiply" opacity="0.5" d="M116.505 18.7442C133.336 18.7517 149.879 23.1027 164.536 31.3762C179.192 39.6497 191.465 51.5658 200.168 65.9717C208.87 80.3776 213.708 96.7857 214.212 113.609C214.717 130.432 210.871 147.1 203.047 162.002C195.878 175.56 185.648 187.26 173.168 196.174C156.618 207.934 136.819 214.252 116.516 214.252C96.214 214.252 76.4149 207.934 59.8651 196.174C47.3851 187.26 37.1545 175.56 29.9853 162.002C22.1569 147.102 18.3069 130.435 18.8078 113.612C19.3087 96.7883 24.1437 80.3792 32.8447 65.9723C41.5458 51.5653 53.8184 39.6483 68.4747 31.3745C83.1311 23.1007 99.675 18.7503 116.505 18.7442ZM116.505 2.76562C53.6924 2.76563 2.76562 53.6859 2.76562 116.5C2.76562 154.739 21.6409 188.569 50.5769 209.19C69.8334 222.88 92.8737 230.234 116.5 230.234C140.126 230.234 163.166 222.88 182.423 209.19C211.366 188.569 230.238 154.739 230.238 116.5C230.238 53.6859 179.318 2.76562 116.505 2.76562Z" fill="url(#paint1_linear_244_353)"/>
<path d="M116.505 16.3685C133.744 16.3772 150.689 20.8345 165.701 29.3093C180.713 37.7841 193.283 49.9895 202.197 64.745C211.111 79.5004 216.066 96.3066 216.583 113.538C217.101 130.769 213.163 147.842 205.15 163.106C197.805 176.994 187.325 188.98 174.541 198.113C157.59 210.16 137.309 216.632 116.513 216.632C95.7166 216.632 75.436 210.16 58.4841 198.113C45.6999 188.981 35.2199 176.995 27.8756 163.106C19.8558 147.844 15.9115 130.771 16.4246 113.538C16.9376 96.3049 21.8906 79.4963 30.8042 64.7389C39.7177 49.9815 52.2899 37.775 67.3039 29.301C82.3179 20.827 99.2652 16.3725 116.505 16.3685ZM116.505 0C52.1656 0 0 52.1592 0 116.5C0 155.669 19.3344 190.322 48.9736 211.443C68.698 225.466 92.2988 233 116.5 233C140.701 233 164.302 225.466 184.026 211.443C213.673 190.308 233 155.669 233 116.5C233 52.1592 180.845 0 116.505 0Z" fill="url(#paint2_linear_244_353)"/>
<g filter="url(#filter0_d_244_353)">
<path d="M66.4394 110L62.9354 103.64H61.9514V110H57.8474V93.152H64.7354C66.0634 93.152 67.1914 93.384 68.1194 93.848C69.0634 94.312 69.7674 94.952 70.2314 95.768C70.6954 96.568 70.9274 97.464 70.9274 98.456C70.9274 99.576 70.6074 100.576 69.9674 101.456C69.3434 102.336 68.4154 102.96 67.1834 103.328L71.0714 110H66.4394ZM61.9514 100.736H64.4954C65.2474 100.736 65.8074 100.552 66.1754 100.184C66.5594 99.816 66.7514 99.296 66.7514 98.624C66.7514 97.984 66.5594 97.48 66.1754 97.112C65.8074 96.744 65.2474 96.56 64.4954 96.56H61.9514V100.736ZM77.6076 96.44V99.848H83.1036V103.016H77.6076V106.712H83.8236V110H73.5036V93.152H83.8236V96.44H77.6076ZM85.792 101.552C85.792 99.888 86.152 98.408 86.872 97.112C87.592 95.8 88.592 94.784 89.872 94.064C91.168 93.328 92.632 92.96 94.264 92.96C96.264 92.96 97.976 93.488 99.4 94.544C100.824 95.6 101.776 97.04 102.256 98.864H97.744C97.408 98.16 96.928 97.624 96.304 97.256C95.696 96.888 95 96.704 94.216 96.704C92.952 96.704 91.928 97.144 91.144 98.024C90.36 98.904 89.968 100.08 89.968 101.552C89.968 103.024 90.36 104.2 91.144 105.08C91.928 105.96 92.952 106.4 94.216 106.4C95 106.4 95.696 106.216 96.304 105.848C96.928 105.48 97.408 104.944 97.744 104.24H102.256C101.776 106.064 100.824 107.504 99.4 108.56C97.976 109.6 96.264 110.12 94.264 110.12C92.632 110.12 91.168 109.76 89.872 109.04C88.592 108.304 87.592 107.288 86.872 105.992C86.152 104.696 85.792 103.216 85.792 101.552ZM108.873 96.44V99.848H114.369V103.016H108.873V106.712H115.089V110H104.769V93.152H115.089V96.44H108.873ZM121.858 93.152V110H117.754V93.152H121.858ZM140.648 93.152L134.672 110H129.536L123.56 93.152H127.928L132.104 105.872L136.304 93.152H140.648ZM146.467 96.44V99.848H151.963V103.016H146.467V106.712H152.683V110H142.363V93.152H152.683V96.44H146.467ZM170.921 107.024H164.633L163.625 110H159.329L165.425 93.152H170.177L176.273 110H171.929L170.921 107.024ZM169.865 103.856L167.777 97.688L165.713 103.856H169.865ZM57.4094 123.152C59.1854 123.152 60.7374 123.504 62.0654 124.208C63.3934 124.912 64.4174 125.904 65.1374 127.184C65.8734 128.448 66.2414 129.912 66.2414 131.576C66.2414 133.224 65.8734 134.688 65.1374 135.968C64.4174 137.248 63.3854 138.24 62.0414 138.944C60.7134 139.648 59.1694 140 57.4094 140H51.0974V123.152H57.4094ZM57.1454 136.448C58.6974 136.448 59.9054 136.024 60.7694 135.176C61.6334 134.328 62.0654 133.128 62.0654 131.576C62.0654 130.024 61.6334 128.816 60.7694 127.952C59.9054 127.088 58.6974 126.656 57.1454 126.656H55.2014V136.448H57.1454ZM72.6389 126.44V129.848H78.1349V133.016H72.6389V136.712H78.8549V140H68.5349V123.152H78.8549V126.44H72.6389ZM92.0073 137.024H85.7193L84.7113 140H80.4153L86.5113 123.152H91.2633L97.3593 140H93.0153L92.0073 137.024ZM90.9513 133.856L88.8633 127.688L86.7993 133.856H90.9513ZM105.527 123.152C107.303 123.152 108.855 123.504 110.183 124.208C111.511 124.912 112.535 125.904 113.255 127.184C113.991 128.448 114.359 129.912 114.359 131.576C114.359 133.224 113.991 134.688 113.255 135.968C112.535 137.248 111.503 138.24 110.159 138.944C108.831 139.648 107.287 140 105.527 140H99.2146V123.152H105.527ZM105.263 136.448C106.815 136.448 108.023 136.024 108.887 135.176C109.751 134.328 110.183 133.128 110.183 131.576C110.183 130.024 109.751 128.816 108.887 127.952C108.023 127.088 106.815 126.656 105.263 126.656H103.319V136.448H105.263ZM126.852 131.36C127.828 131.568 128.612 132.056 129.204 132.824C129.796 133.576 130.092 134.44 130.092 135.416C130.092 136.824 129.596 137.944 128.604 138.776C127.628 139.592 126.26 140 124.5 140H116.652V123.152H124.236C125.948 123.152 127.284 123.544 128.244 124.328C129.22 125.112 129.708 126.176 129.708 127.52C129.708 128.512 129.444 129.336 128.916 129.992C128.404 130.648 127.716 131.104 126.852 131.36ZM120.756 129.968H123.444C124.116 129.968 124.628 129.824 124.98 129.536C125.348 129.232 125.532 128.792 125.532 128.216C125.532 127.64 125.348 127.2 124.98 126.896C124.628 126.592 124.116 126.44 123.444 126.44H120.756V129.968ZM123.78 136.688C124.468 136.688 124.996 136.536 125.364 136.232C125.748 135.912 125.94 135.456 125.94 134.864C125.94 134.272 125.74 133.808 125.34 133.472C124.956 133.136 124.42 132.968 123.732 132.968H120.756V136.688H123.78ZM140.44 140.168C138.856 140.168 137.4 139.8 136.072 139.064C134.76 138.328 133.712 137.304 132.928 135.992C132.16 134.664 131.776 133.176 131.776 131.528C131.776 129.88 132.16 128.4 132.928 127.088C133.712 125.776 134.76 124.752 136.072 124.016C137.4 123.28 138.856 122.912 140.44 122.912C142.024 122.912 143.472 123.28 144.784 124.016C146.112 124.752 147.152 125.776 147.904 127.088C148.672 128.4 149.056 129.88 149.056 131.528C149.056 133.176 148.672 134.664 147.904 135.992C147.136 137.304 146.096 138.328 144.784 139.064C143.472 139.8 142.024 140.168 140.44 140.168ZM140.44 136.424C141.784 136.424 142.856 135.976 143.656 135.08C144.472 134.184 144.88 133 144.88 131.528C144.88 130.04 144.472 128.856 143.656 127.976C142.856 127.08 141.784 126.632 140.44 126.632C139.08 126.632 137.992 127.072 137.176 127.952C136.376 128.832 135.976 130.024 135.976 131.528C135.976 133.016 136.376 134.208 137.176 135.104C137.992 135.984 139.08 136.424 140.44 136.424ZM157.652 123.152C159.428 123.152 160.98 123.504 162.308 124.208C163.636 124.912 164.66 125.904 165.38 127.184C166.116 128.448 166.484 129.912 166.484 131.576C166.484 133.224 166.116 134.688 165.38 135.968C164.66 137.248 163.628 138.24 162.284 138.944C160.956 139.648 159.412 140 157.652 140H151.34V123.152H157.652ZM157.388 136.448C158.94 136.448 160.148 136.024 161.012 135.176C161.876 134.328 162.308 133.128 162.308 131.576C162.308 130.024 161.876 128.816 161.012 127.952C160.148 127.088 158.94 126.656 157.388 126.656H155.444V136.448H157.388ZM183.225 123.152L177.393 134.432V140H173.289V134.432L167.457 123.152H172.113L175.377 130.208L178.617 123.152H183.225Z" fill="white"/>
</g>
<defs>
<filter id="filter0_d_244_353" x="47.0974" y="92.96" width="140.128" height="55.208" filterUnits="userSpaceOnUse" color-interpolation-filters="sRGB">
<feFlood flood-opacity="0" result="BackgroundImageFix"/>
<feColorMatrix in="SourceAlpha" type="matrix" values="0 0 0 0 0 0 0 0 0 0 0 0 0 0 0 0 0 0 127 0" result="hardAlpha"/>
<feOffset dy="4"/>
<feGaussianBlur stdDeviation="2"/>
<feComposite in2="hardAlpha" operator="out"/>
<feColorMatrix type="matrix" values="0 0 0 0 0 0 0 0 0 0 0 0 0 0 0 0 0 0 0.25 0"/>
<feBlend mode="normal" in2="BackgroundImageFix" result="effect1_dropShadow_244_353"/>
<feBlend mode="normal" in="SourceGraphic" in2="effect1_dropShadow_244_353" result="shape"/>
</filter>
<linearGradient id="paint0_linear_244_353" x1="116.502" y1="0" x2="116.502" y2="233" gradientUnits="userSpaceOnUse">
<stop stop-color="#FE1500"/>
<stop offset="0.12" stop-color="#F81400"/>
<stop offset="0.27" stop-color="#E81200"/>
<stop offset="0.44" stop-color="#CE0D00"/>
<stop offset="0.63" stop-color="#AA0800"/>
<stop offset="0.82" stop-color="#7B0000"/>
<stop offset="0.83" stop-color="#790000"/>
</linearGradient>
<linearGradient id="paint1_linear_244_353" x1="116.502" y1="-8.49411" x2="116.502" y2="290.093" gradientUnits="userSpaceOnUse">
<stop stop-color="white"/>
<stop offset="0.02" stop-color="#F9F9F9"/>
<stop offset="0.39" stop-color="#909090"/>
<stop offset="0.69" stop-color="#434343"/>
<stop offset="0.9" stop-color="#121212"/>
<stop offset="1"/>
</linearGradient>
<linearGradient id="paint2_linear_244_353" x1="113.27" y1="-18.4711" x2="119.399" y2="237.548" gradientUnits="userSpaceOnUse">
<stop offset="0.07" stop-color="#F1F2F2"/>
<stop offset="0.16" stop-color="#EEEFF0"/>
<stop offset="0.22" stop-color="#E6E7E8"/>
<stop offset="0.4" stop-color="#E3E4E5"/>
<stop offset="0.51" stop-color="#DBDCDD"/>
<stop offset="0.58" stop-color="#D1D3D4"/>
<stop offset="0.77" stop-color="#A7A9AC"/>
<stop offset="0.92" stop-color="#808285"/>
<stop offset="0.98" stop-color="#7D7F82"/>
<stop offset="1" stop-color="#7A7C7F"/>
</linearGradient>
</defs>
</svg>
