<svg width="19" height="53" viewBox="0 0 19 53" fill="none" xmlns="http://www.w3.org/2000/svg">
<path d="M2.54907 31.3741H16.1612V49.1462C16.1612 50.8388 14.7948 52.2051 13.1023 52.2051H5.60797C3.91538 52.2051 2.54907 50.8388 2.54907 49.1462V31.3741Z" fill="#1E88E5"/>
<path d="M6.11779 15.2129H12.5925C15.9674 15.2129 18.7102 17.9557 18.7102 21.3307V32.3223C18.7102 34.0149 17.3439 35.3812 15.6513 35.3812H3.0589C1.36631 35.3812 0 34.0149 0 32.3223V21.3307C0 17.9557 2.74281 15.2129 6.11779 15.2129Z" fill="#64B5F6"/>
<path d="M9.35002 13.6019C13.1061 13.6019 16.151 10.557 16.151 6.80094C16.151 3.04489 13.1061 0 9.35002 0C5.59396 0 2.54907 3.04489 2.54907 6.80094C2.54907 10.557 5.59396 13.6019 9.35002 13.6019Z" fill="#90CAF9"/>
</svg>
