<svg width="14" height="17" viewBox="0 0 14 17" fill="none" xmlns="http://www.w3.org/2000/svg">
<path d="M12.7421 7.52005C12.2202 6.39043 11.3904 5.43082 10.348 4.75132L10.882 3.82643C12.47 0.849333 8.26007 -1.58798 6.47101 1.27981C6.26132 1.63934 6.14418 2.04531 6.13009 2.46128C6.116 2.87725 6.20541 3.29021 6.39029 3.6631C4.92895 3.73116 3.53017 4.27621 2.40804 5.21482C1.28591 6.15343 0.502268 7.43388 0.177046 8.8602C-0.814412 12.9254 2.49503 17.0709 6.68727 16.9991C11.472 17.078 14.8281 11.8179 12.7421 7.52005ZM12.0907 7.57618L10.8047 8.87943C10.5478 9.13861 10.4042 9.48913 10.4054 9.85406V10.7459C10.4056 10.8505 10.3845 10.9542 10.3435 11.0505C10.3025 11.1468 10.2423 11.2337 10.1667 11.3061L8.6323 12.7896C8.42419 12.9887 8.14661 13.0988 7.85861 13.0963C7.57062 13.0939 7.29494 12.9792 7.09022 12.7766L6.83182 12.5181C6.64724 12.3319 6.53477 12.0862 6.51444 11.8249C6.49412 11.5635 6.56727 11.3034 6.72085 11.0909C6.897 10.8535 6.99164 10.5655 6.99064 10.2698V8.58534C6.98874 8.21849 6.84201 7.86725 6.58238 7.60807C6.32276 7.34889 5.97126 7.20276 5.60441 7.20149C5.49772 7.20098 5.39228 7.17862 5.29456 7.13581C5.19684 7.093 5.10892 7.03064 5.03621 6.95257L3.42052 5.21707C4.39452 4.58994 5.52876 4.2571 6.6872 4.25849C6.69831 4.25843 6.70987 4.25956 6.72109 4.25954L7.99016 6.45754C8.06059 6.57692 8.16094 6.67585 8.2813 6.74459C8.40166 6.81332 8.53786 6.84947 8.67646 6.84947C8.81506 6.84946 8.95127 6.81331 9.07162 6.74457C9.19198 6.67584 9.29233 6.57689 9.36275 6.45752L10.0443 5.27714C10.9142 5.85319 11.6194 6.64544 12.0907 7.57618ZM6.99658 1.58323C8.3409 -0.602083 11.5771 1.26614 10.3563 3.52304C9.98558 4.16614 9.2114 5.50511 8.83707 6.15411C8.82083 6.18234 8.79743 6.2058 8.76923 6.22211C8.74104 6.23842 8.70904 6.247 8.67646 6.247C8.64389 6.247 8.61189 6.23842 8.58369 6.22211C8.5555 6.2058 8.5321 6.18234 8.51586 6.15411L6.99671 3.523C6.82448 3.2288 6.73369 2.89404 6.73367 2.55314C6.73364 2.21223 6.82439 1.87746 6.99658 1.58323ZM0.620321 10.3254C0.620715 10.0692 0.637324 9.81326 0.670049 9.55916L1.82993 10.7333C2.10966 11.013 2.48139 11.1818 2.87612 11.2083C3.13105 11.226 3.36988 11.3394 3.5448 11.5256C3.71972 11.7119 3.81783 11.9574 3.81948 12.213V13.3101C3.86024 14.0491 3.05922 14.4071 2.9498 15.1007C2.22387 14.5344 1.63673 13.8098 1.23305 12.9823C0.829377 12.1548 0.619816 11.2461 0.620321 10.3254ZM6.6872 16.3923C5.55739 16.3931 4.45012 16.0761 3.49193 15.4775C3.51766 15.1642 3.65269 14.8699 3.87342 14.6461C4.04936 14.4711 4.18883 14.2629 4.28374 14.0335C4.37866 13.8042 4.42713 13.5583 4.42637 13.3101C4.41335 12.6206 4.55734 11.6298 3.98776 11.1075C3.70726 10.8095 3.32409 10.6291 2.91568 10.6027C2.66852 10.586 2.43575 10.4805 2.26035 10.3055L0.811028 8.83843C1.13652 7.54736 1.87944 6.4 2.92429 5.57472L4.59246 7.36654C4.72204 7.50536 4.87868 7.61618 5.05273 7.69217C5.22677 7.76815 5.41453 7.8077 5.60443 7.80837C5.81056 7.80887 6.00814 7.89081 6.15411 8.03635C6.30009 8.18188 6.38263 8.37921 6.38376 8.58534V10.2698C6.38434 10.4361 6.331 10.5982 6.23174 10.7316C5.99271 11.0612 5.87865 11.4649 5.90995 11.8708C5.94125 12.2767 6.11586 12.6582 6.40258 12.9471C7.07079 13.7833 8.24712 13.9937 9.05398 13.2261L10.5885 11.7424C10.7221 11.613 10.8284 11.4582 10.9011 11.287C10.9739 11.1158 11.0117 10.9319 11.0123 10.7459C11.0437 10.2885 10.89 9.62026 11.2366 9.30602L12.3576 8.16996C13.9037 12.0192 10.8493 16.4734 6.6872 16.3923Z" fill="#667085"/>
</svg>
