<svg width="18" height="18" viewBox="0 0 18 18" fill="none" xmlns="http://www.w3.org/2000/svg">
<path d="M13.5762 4.57627C13.5762 2.05292 11.5233 0 8.99998 0C6.47662 0 4.42371 2.05292 4.42371 4.57627C4.42371 6.99681 6.31371 8.97895 8.69489 9.13698V17.6949C8.69489 17.8636 8.83157 18 8.99998 18C9.16838 18 9.30506 17.8636 9.30506 17.6949V9.13698C11.6862 8.97895 13.5762 6.99681 13.5762 4.57627ZM7.47455 4.57627C6.80154 4.57627 6.25421 4.02895 6.25421 3.35593C6.25421 2.68292 6.80154 2.13559 7.47455 2.13559C8.14757 2.13559 8.69489 2.68292 8.69489 3.35593C8.69489 4.02895 8.14757 4.57627 7.47455 4.57627Z" fill="white"/>
</svg>
