<svg width="21" height="21" viewBox="0 0 21 21" fill="none" xmlns="http://www.w3.org/2000/svg">
<g clip-path="url(#clip0_679_83)">
<path d="M21 2.4063C21 1.0789 19.9211 0 18.5937 0H2.4063C1.0789 0 0 1.0789 0 2.4063V18.5937C0 19.9211 1.0789 21 2.4063 21H18.5937C19.9211 21 21 19.9211 21 18.5937V2.4063Z" fill="#4CAF50"/>
<path d="M15.8217 7.03767C16.1638 7.37974 16.1638 7.93265 15.8217 8.27487L10.1342 13.9623C9.96356 14.1329 9.73958 14.2188 9.51559 14.2188C9.29161 14.2188 9.06763 14.1329 8.897 13.9623L6.0533 11.1186C5.71107 10.7765 5.71107 10.2234 6.0533 9.88137C6.39536 9.53915 6.94827 9.53915 7.2905 9.88137L9.51559 12.1065L14.5845 7.03767C14.9266 6.69545 15.4795 6.69545 15.8217 7.03767Z" fill="#FAFAFA"/>
</g>
<defs>
<clipPath id="clip0_679_83">
<rect width="21" height="21" fill="white"/>
</clipPath>
</defs>
</svg>
