<svg width="32" height="31" viewBox="0 0 32 31" fill="none" xmlns="http://www.w3.org/2000/svg">
<path d="M15.2907 1.63959H29.2994V29.8999H1.743V1.63959H5.53778" fill="#ECEDF2"/>
<path d="M15.2907 1.63959H29.2994V4.54513H1.743V1.63959H5.53778" fill="#C6CAD5"/>
<path d="M11.5351 2.73967H29.2995H30.537C30.8161 2.73967 31.0423 2.51346 31.0423 2.23432V1.04483C31.0423 0.765758 30.8161 0.53949 30.537 0.53949H12.8378H7.99017H0.505666C0.226589 0.53949 0.000320435 0.765698 0.000320435 1.04483V2.23438C0.000320435 2.51346 0.226528 2.73973 0.505666 2.73973H1.74311H8.42615" fill="#525C66"/>
<path d="M10.4142 12.0519C13.5673 12.0519 16.1234 9.49575 16.1234 6.34264C16.1234 3.18953 13.5673 0.633423 10.4142 0.633423C7.26111 0.633423 4.705 3.18953 4.705 6.34264C4.705 9.49575 7.26111 12.0519 10.4142 12.0519Z" fill="#C6CAD5"/>
<path d="M10.4142 11.4184C13.5673 11.4184 16.1234 8.86233 16.1234 5.70922C16.1234 2.5561 13.5673 0 10.4142 0C7.26111 0 4.705 2.5561 4.705 5.70922C4.705 8.86233 7.26111 11.4184 10.4142 11.4184Z" fill="white"/>
<path d="M13.7483 4.58841H11.7878C11.6482 4.58841 11.535 4.47528 11.535 4.33565V2.3752C11.535 2.23563 11.4219 2.12244 11.2823 2.12244H9.54604C9.40647 2.12244 9.29328 2.23557 9.29328 2.3752V4.33571C9.29328 4.47528 9.18014 4.58847 9.04051 4.58847H7.08006C6.9405 4.58847 6.8273 4.70161 6.8273 4.84124V6.57748C6.8273 6.71705 6.94044 6.83024 7.08006 6.83024H9.04051C9.18008 6.83024 9.29328 6.94337 9.29328 7.083V9.04345C9.29328 9.18302 9.40641 9.29622 9.54604 9.29622H11.2823C11.4218 9.29622 11.535 9.18308 11.535 9.04345V7.083C11.535 6.94344 11.6482 6.83024 11.7878 6.83024H13.7483C13.8878 6.83024 14.001 6.71711 14.001 6.57748V4.84124C14.001 4.70161 13.8879 4.58841 13.7483 4.58841Z" fill="#D81616"/>
<path d="M22.1565 13.3348H19.069V18.9727H22.1565V13.3348Z" fill="#A0D9F2"/>
<path d="M11.973 13.3348H8.88547V18.9727H11.973V13.3348Z" fill="#A0D9F2"/>
<path d="M27.2482 13.3348H24.1607V18.9727H27.2482V13.3348Z" fill="#A0D9F2"/>
<path d="M17.0644 13.3348H13.9769V18.9727H17.0644V13.3348Z" fill="#A0D9F2"/>
<path d="M6.88152 13.3348H3.79404V18.9727H6.88152V13.3348Z" fill="#A0D9F2"/>
<path d="M11.973 20.8887H8.88547V26.5267H11.973V20.8887Z" fill="#A0D9F2"/>
<path d="M17.0644 20.8887H13.9769V26.5267H17.0644V20.8887Z" fill="#A0D9F2"/>
<path d="M6.88152 20.8887H3.79404V26.5267H6.88152V20.8887Z" fill="#A0D9F2"/>
<path d="M22.1565 5.78015H19.069V11.4181H22.1565V5.78015Z" fill="#A0D9F2"/>
<path d="M27.2482 5.78015H24.1607V11.4181H27.2482V5.78015Z" fill="#A0D9F2"/>
<path d="M22.1567 19.3527H19.0692C18.8593 19.3527 18.6891 19.1824 18.6891 18.9726V13.3347C18.6891 13.1248 18.8594 12.9546 19.0692 12.9546H22.1567C22.3666 12.9546 22.5368 13.1248 22.5368 13.3347V18.9726C22.5368 19.1825 22.3666 19.3527 22.1567 19.3527ZM19.4493 18.5924H21.7766V13.7148H19.4493V18.5924Z" fill="white"/>
<path d="M11.9735 19.3527H8.88604C8.67614 19.3527 8.50595 19.1824 8.50595 18.9726V13.3347C8.50595 13.1248 8.6762 12.9546 8.88604 12.9546H11.9735C12.1834 12.9546 12.3536 13.1248 12.3536 13.3347V18.9726C12.3536 19.1825 12.1834 19.3527 11.9735 19.3527ZM9.26612 18.5924H11.5934V13.7148H9.26612V18.5924Z" fill="white"/>
<path d="M27.2485 19.3527H24.161C23.9511 19.3527 23.7809 19.1824 23.7809 18.9726V13.3347C23.7809 13.1248 23.9511 12.9546 24.161 12.9546H27.2485C27.4584 12.9546 27.6286 13.1248 27.6286 13.3347V18.9726C27.6286 19.1825 27.4584 19.3527 27.2485 19.3527ZM24.5411 18.5924H26.8683V13.7148H24.5411V18.5924Z" fill="white"/>
<path d="M17.0653 19.3527H13.9778C13.7679 19.3527 13.5977 19.1824 13.5977 18.9726V13.3347C13.5977 13.1248 13.768 12.9546 13.9778 12.9546H17.0653C17.2752 12.9546 17.4454 13.1248 17.4454 13.3347V18.9726C17.4454 19.1825 17.2751 19.3527 17.0653 19.3527ZM14.3579 18.5924H16.6851V13.7148H14.3579V18.5924Z" fill="white"/>
<path d="M6.8818 19.3527H3.79438C3.58448 19.3527 3.41429 19.1824 3.41429 18.9726V13.3347C3.41429 13.1248 3.58454 12.9546 3.79438 12.9546H6.88186C7.09176 12.9546 7.26195 13.1248 7.26195 13.3347V18.9726C7.26195 19.1825 7.09176 19.3527 6.8818 19.3527ZM4.17446 18.5924H6.50172V13.7148H4.17446V18.5924Z" fill="white"/>
<path d="M27.2483 20.8889H19.0692V28.7998L27.2483 29.4333V20.8889Z" fill="#A0D9F2"/>
<path d="M27.6285 29.1166H26.8682V21.269H19.4494V29.1166H18.6891V20.8889C18.6891 20.679 18.8594 20.5088 19.0692 20.5088H27.2483C27.4582 20.5088 27.6284 20.679 27.6284 20.8889L27.6285 29.1166Z" fill="white"/>
<path d="M11.9735 26.9069H8.88604C8.67614 26.9069 8.50595 26.7367 8.50595 26.5269V20.8889C8.50595 20.679 8.6762 20.5089 8.88604 20.5089H11.9735C12.1834 20.5089 12.3536 20.6791 12.3536 20.8889V26.5269C12.3536 26.7367 12.1834 26.9069 11.9735 26.9069ZM9.26612 26.1467H11.5934V21.269H9.26612V26.1467Z" fill="white"/>
<path d="M17.0653 26.9069H13.9778C13.7679 26.9069 13.5977 26.7367 13.5977 26.5269V20.8889C13.5977 20.679 13.768 20.5089 13.9778 20.5089H17.0653C17.2752 20.5089 17.4454 20.6791 17.4454 20.8889V26.5269C17.4454 26.7367 17.2751 26.9069 17.0653 26.9069ZM14.3579 26.1467H16.6851V21.269H14.3579V26.1467Z" fill="white"/>
<path d="M6.88203 26.9069H3.79461C3.58471 26.9069 3.41452 26.7367 3.41452 26.5269V20.8889C3.41452 20.679 3.58477 20.5089 3.79461 20.5089H6.88209C7.09199 20.5089 7.26218 20.6791 7.26218 20.8889V26.5269C7.26218 26.7367 7.09199 26.9069 6.88203 26.9069ZM4.17469 26.1467H6.50195V21.269H4.17469V26.1467Z" fill="white"/>
<path d="M22.1567 11.7986H19.0692C18.8593 11.7986 18.6891 11.6284 18.6891 11.4185V5.78048C18.6891 5.57058 18.8594 5.40039 19.0692 5.40039H22.1567C22.3666 5.40039 22.5368 5.57064 22.5368 5.78048V11.4184C22.5368 11.6284 22.3666 11.7986 22.1567 11.7986ZM19.4493 11.0384H21.7766V6.16062H19.4493V11.0384Z" fill="white"/>
<path d="M27.2485 11.7986H24.161C23.9511 11.7986 23.7809 11.6284 23.7809 11.4185V5.78048C23.7809 5.57058 23.9511 5.40039 24.161 5.40039H27.2485C27.4584 5.40039 27.6286 5.57064 27.6286 5.78048V11.4184C27.6286 11.6284 27.4584 11.7986 27.2485 11.7986ZM24.5411 11.0384H26.8683V6.16062H24.5411V11.0384Z" fill="white"/>
<path d="M27.2487 22.4409H19.0694V23.2011H27.2487V22.4409Z" fill="white"/>
<path d="M23.5389 22.821H22.7786V29.4329H23.5389V22.821Z" fill="white"/>
<path d="M11.9736 22.3141H8.88589V23.0744H11.9736V22.3141Z" fill="white"/>
<path d="M17.0654 23.0742H13.9777V22.3139H16.6853V20.8892H17.4455V22.694C17.4455 22.904 17.2753 23.0742 17.0654 23.0742Z" fill="white"/>
<path d="M6.88159 22.3141H3.79446V23.0744H6.88159V22.3141Z" fill="white"/>
<path d="M27.2483 15.5203H24.1612V14.7601H26.8681V13.3347H27.6284V15.1401C27.6284 15.35 27.4582 15.5203 27.2483 15.5203Z" fill="white"/>
<path d="M17.0651 14.7602H13.9773V15.5204H17.0651V14.7602Z" fill="white"/>
<path d="M6.88159 14.7602H3.79446V15.5204H6.88159V14.7602Z" fill="white"/>
<path d="M11.9736 14.7602H8.88589V15.5204H11.9736V14.7602Z" fill="white"/>
<path d="M22.1565 14.7602H19.0688V15.5204H22.1565V14.7602Z" fill="white"/>
<path d="M27.2483 7.9662H24.1612V7.20597H26.8681V5.78058H27.6284V7.58606C27.6284 7.79602 27.4582 7.9662 27.2483 7.9662Z" fill="white"/>
<path d="M22.1565 7.20624H19.0688V7.96647H22.1565V7.20624Z" fill="white"/>
<path d="M30.1127 28.7998H0.929326C0.416099 28.7998 0 29.2159 0 29.7291V31H31.042V29.7291C31.042 29.2159 30.6259 28.7998 30.1127 28.7998Z" fill="#423E3E"/>
</svg>
