<svg width="41" height="41" viewBox="0 0 41 41" fill="none" xmlns="http://www.w3.org/2000/svg">
<g clip-path="url(#clip0_27_5141)">
<path fill-rule="evenodd" clip-rule="evenodd" d="M20.5065 0.0065918C31.8283 0.0065918 41.0065 9.1825 41.0065 20.5094C41.0065 31.8306 31.8283 41.0065 20.5065 41.0065C9.18475 41.0065 0.0065918 31.831 0.0065918 20.5094C0.0065918 9.1825 9.18539 0.0065918 20.5065 0.0065918Z" fill="#4CAF50"/>
<path fill-rule="evenodd" clip-rule="evenodd" d="M22.3152 13.8039C22.9579 13.8038 23.5944 13.9304 24.1882 14.1763C24.782 14.4223 25.3216 14.7828 25.776 15.2373C26.2305 15.6918 26.591 16.2314 26.8369 16.8252C27.0828 17.419 27.2093 18.0555 27.2092 18.6982C27.2111 18.8629 27.2778 19.0202 27.395 19.136C27.5121 19.2519 27.6701 19.3168 27.8348 19.3168C27.9996 19.3168 28.1576 19.2519 28.2747 19.136C28.3919 19.0202 28.4586 18.8629 28.4605 18.6982C28.4597 17.0687 27.812 15.5061 26.6597 14.3539C25.5074 13.2017 23.9447 12.5541 22.3152 12.5536C22.2325 12.5527 22.1505 12.5681 22.0738 12.5991C21.9972 12.6301 21.9274 12.676 21.8686 12.7341C21.8098 12.7923 21.7631 12.8615 21.7313 12.9378C21.6994 13.0141 21.683 13.096 21.683 13.1786C21.683 13.2613 21.6994 13.3432 21.7313 13.4195C21.7631 13.4958 21.8098 13.565 21.8686 13.6231C21.9274 13.6813 21.9972 13.7272 22.0738 13.7582C22.1505 13.7892 22.2325 13.8046 22.3152 13.8037V13.8039ZM21.3708 17.806C21.2881 17.8069 21.2061 17.7915 21.1294 17.7605C21.0528 17.7295 20.983 17.6836 20.9242 17.6254C20.8655 17.5673 20.8188 17.4981 20.7869 17.4218C20.7551 17.3455 20.7387 17.2636 20.7387 17.181C20.7387 17.0983 20.7551 17.0164 20.7869 16.9401C20.8188 16.8638 20.8655 16.7946 20.9242 16.7365C20.983 16.6783 21.0528 16.6324 21.1294 16.6014C21.2061 16.5704 21.2881 16.555 21.3708 16.5559C21.7925 16.5557 22.2101 16.6385 22.5998 16.7998C22.9894 16.961 23.3435 17.1975 23.6417 17.4956C23.9399 17.7938 24.1764 18.1478 24.3378 18.5374C24.4991 18.927 24.5821 19.3445 24.582 19.7662C24.5801 19.9309 24.5134 20.0882 24.3962 20.2041C24.2791 20.3199 24.1211 20.3848 23.9563 20.3848C23.7916 20.3848 23.6336 20.3199 23.5165 20.2041C23.3993 20.0882 23.3326 19.9309 23.3307 19.7662C23.3308 19.5088 23.2802 19.254 23.1818 19.0161C23.0833 18.7783 22.939 18.5622 22.7571 18.3802C22.5751 18.1981 22.359 18.0537 22.1213 17.9552C21.8835 17.8567 21.6286 17.806 21.3712 17.806H21.3708ZM25.4407 33.2724C23.4646 32.9235 21.5146 32.0169 19.8124 30.9773C17.8435 29.7732 16.0043 28.2724 14.373 26.6405C12.7416 25.0087 11.2401 23.1708 10.0361 21.2C8.99731 19.498 8.08835 17.5474 7.74129 15.5724C7.6579 15.1305 7.68305 14.6751 7.81456 14.2451C7.95431 13.8195 8.1939 13.4335 8.51332 13.1194L11.1197 10.5138C11.2418 10.3925 11.4069 10.3245 11.5789 10.3245C11.751 10.3245 11.916 10.3925 12.0381 10.5138L16.7202 15.1949C16.8412 15.3172 16.9091 15.4823 16.9091 15.6544C16.9091 15.8265 16.8412 15.9916 16.7202 16.1139L14.2319 18.603C14.0546 18.779 13.9458 19.0124 13.9251 19.2614C13.9043 19.5103 13.9729 19.7585 14.1185 19.9615C15.0812 21.2917 16.1519 22.5402 17.3199 23.6942C18.4733 24.8627 19.7217 25.9334 21.0524 26.8951C21.255 27.0411 21.5031 27.11 21.752 27.0893C22.0008 27.0687 22.2342 26.9598 22.4099 26.7824L24.9003 24.2936C24.9603 24.2333 25.0317 24.1855 25.1104 24.153C25.189 24.1205 25.2733 24.1039 25.3584 24.1043C25.5309 24.104 25.6964 24.1721 25.8188 24.2936L30.5003 28.975C30.6213 29.0973 30.6892 29.2623 30.6892 29.4344C30.6892 29.6064 30.6213 29.7715 30.5003 29.8938L27.8938 32.4997C27.5819 32.823 27.194 33.0631 26.7655 33.198C26.3371 33.333 25.8816 33.3586 25.4407 33.2724ZM22.3152 8.94399C22.1495 8.94399 21.9905 8.87816 21.8733 8.76097C21.7561 8.64378 21.6903 8.48483 21.6903 8.3191C21.6903 8.15337 21.7561 7.99443 21.8733 7.87724C21.9905 7.76005 22.1495 7.69421 22.3152 7.69421C23.7603 7.69414 25.1912 7.97872 26.5263 8.5317C27.8614 9.08468 29.0745 9.89522 30.0963 10.9171C31.1182 11.9389 31.9287 13.152 32.4817 14.4871C33.0346 15.8222 33.3192 17.2531 33.3191 18.6982C33.3191 18.8642 33.2532 19.0233 33.1359 19.1406C33.0185 19.258 32.8594 19.3239 32.6935 19.3239C32.5275 19.3239 32.3684 19.258 32.2511 19.1406C32.1337 19.0233 32.0678 18.8642 32.0678 18.6982C32.068 16.1115 31.0406 13.6306 29.2116 11.8013C27.3827 9.97203 24.9019 8.94423 22.3152 8.94399Z" fill="white"/>
</g>
<defs>
<clipPath id="clip0_27_5141">
<rect width="41" height="41" fill="white"/>
</clipPath>
</defs>
</svg>
