<svg width="44" height="44" viewBox="0 0 44 44" fill="none" xmlns="http://www.w3.org/2000/svg">
<path d="M21.7358 43.4717C33.7402 43.4717 43.4717 33.7402 43.4717 21.7358C43.4717 9.73147 33.7402 0 21.7358 0C9.73147 0 0 9.73147 0 21.7358C0 33.7402 9.73147 43.4717 21.7358 43.4717Z" fill="white"/>
<path d="M21.8652 13.9507H29.987V30.335H14.0107V13.9507H16.2108" fill="#ECEDF2"/>
<path d="M21.8652 13.9507H29.987V15.6352H14.0107V13.9507H16.2108" fill="#C6CAD5"/>
<path d="M19.6879 14.5885H29.9871H30.7045C30.8663 14.5885 30.9975 14.4573 30.9975 14.2955V13.6058C30.9975 13.444 30.8664 13.3129 30.7045 13.3129H20.4432H17.6327H13.2934C13.1316 13.3129 13.0004 13.444 13.0004 13.6058V14.2955C13.0004 14.4573 13.1316 14.5885 13.2934 14.5885H14.0109H17.8854" fill="#525C66"/>
<path d="M19.0382 19.9882C20.8665 19.9882 22.3487 18.506 22.3487 16.6777C22.3487 14.8493 20.8665 13.3672 19.0382 13.3672C17.2099 13.3672 15.7277 14.8493 15.7277 16.6777C15.7277 18.506 17.2099 19.9882 19.0382 19.9882Z" fill="#C6CAD5"/>
<path d="M19.0382 19.621C20.8665 19.621 22.3487 18.1388 22.3487 16.3105C22.3487 14.4822 20.8665 13 19.0382 13C17.2099 13 15.7277 14.4822 15.7277 16.3105C15.7277 18.1388 17.2099 19.621 19.0382 19.621Z" fill="white"/>
<path d="M20.9711 15.6604H19.8343C19.7534 15.6604 19.6878 15.5948 19.6878 15.5138V14.377C19.6878 14.2961 19.6222 14.2305 19.5412 14.2305H18.5345C18.4535 14.2305 18.3879 14.2961 18.3879 14.377V15.5138C18.3879 15.5948 18.3223 15.6604 18.2413 15.6604H17.1046C17.0236 15.6604 16.958 15.726 16.958 15.807V16.8137C16.958 16.8947 17.0236 16.9603 17.1046 16.9603H18.2413C18.3223 16.9603 18.3879 17.0259 18.3879 17.1069V18.2436C18.3879 18.3245 18.4535 18.3902 18.5345 18.3902H19.5412C19.6221 18.3902 19.6878 18.3246 19.6878 18.2436V17.1069C19.6878 17.0259 19.7534 16.9603 19.8343 16.9603H20.9711C21.052 16.9603 21.1177 16.8947 21.1177 16.8137V15.807C21.1177 15.726 21.0521 15.6604 20.9711 15.6604Z" fill="#D81616"/>
<path d="M25.8459 20.731H24.0557V24.0001H25.8459V20.731Z" fill="#A0D9F2"/>
<path d="M19.9419 20.731H18.1516V24.0001H19.9419V20.731Z" fill="#A0D9F2"/>
<path d="M28.7977 20.731H27.0074V24.0001H28.7977V20.731Z" fill="#A0D9F2"/>
<path d="M22.8937 20.731H21.1034V24.0001H22.8937V20.731Z" fill="#A0D9F2"/>
<path d="M16.9901 20.731H15.1998V24.0001H16.9901V20.731Z" fill="#A0D9F2"/>
<path d="M19.9419 25.1106H18.1516V28.3797H19.9419V25.1106Z" fill="#A0D9F2"/>
<path d="M22.8937 25.1106H21.1034V28.3797H22.8937V25.1106Z" fill="#A0D9F2"/>
<path d="M16.9901 25.1106H15.1998V28.3797H16.9901V25.1106Z" fill="#A0D9F2"/>
<path d="M25.8459 16.3511H24.0557V19.6202H25.8459V16.3511Z" fill="#A0D9F2"/>
<path d="M28.7977 16.3511H27.0074V19.6202H28.7977V16.3511Z" fill="#A0D9F2"/>
<path d="M25.8459 24.2206H24.0556C23.9339 24.2206 23.8352 24.1218 23.8352 24.0002V20.731C23.8352 20.6093 23.9339 20.5106 24.0556 20.5106H25.8459C25.9676 20.5106 26.0663 20.6093 26.0663 20.731V24.0002C26.0663 24.1219 25.9676 24.2206 25.8459 24.2206ZM24.276 23.7797H25.6254V20.9514H24.276V23.7797Z" fill="white"/>
<path d="M19.9418 24.2206H18.1516C18.0299 24.2206 17.9312 24.1218 17.9312 24.0002V20.731C17.9312 20.6093 18.0299 20.5106 18.1516 20.5106H19.9418C20.0635 20.5106 20.1622 20.6093 20.1622 20.731V24.0002C20.1622 24.1219 20.0635 24.2206 19.9418 24.2206ZM18.372 23.7797H19.7214V20.9514H18.372V23.7797Z" fill="white"/>
<path d="M28.7977 24.2206H27.0074C26.8857 24.2206 26.787 24.1218 26.787 24.0002V20.731C26.787 20.6093 26.8857 20.5106 27.0074 20.5106H28.7977C28.9194 20.5106 29.0181 20.6093 29.0181 20.731V24.0002C29.0181 24.1219 28.9194 24.2206 28.7977 24.2206ZM27.2278 23.7797H28.5773V20.9514H27.2278V23.7797Z" fill="white"/>
<path d="M22.8941 24.2206H21.1038C20.9821 24.2206 20.8834 24.1218 20.8834 24.0002V20.731C20.8834 20.6093 20.9821 20.5106 21.1038 20.5106H22.8941C23.0158 20.5106 23.1145 20.6093 23.1145 20.731V24.0002C23.1145 24.1219 23.0158 24.2206 22.8941 24.2206ZM21.3242 23.7797H22.6737V20.9514H21.3242V23.7797Z" fill="white"/>
<path d="M16.9901 24.2206H15.1998C15.0781 24.2206 14.9794 24.1218 14.9794 24.0002V20.731C14.9794 20.6093 15.0781 20.5106 15.1998 20.5106H16.9901C17.1118 20.5106 17.2105 20.6093 17.2105 20.731V24.0002C17.2105 24.1219 17.1118 24.2206 16.9901 24.2206ZM15.4202 23.7797H16.7697V20.9514H15.4202V23.7797Z" fill="white"/>
<path d="M28.7985 25.1106H24.0558V29.6977L28.7985 30.0651V25.1106Z" fill="#A0D9F2"/>
<path d="M29.0187 29.8815H28.5778V25.331H24.276V29.8815H23.8352V25.1107C23.8352 24.9889 23.9339 24.8903 24.0556 24.8903H28.7982C28.9199 24.8903 29.0186 24.989 29.0186 25.1107L29.0187 29.8815Z" fill="white"/>
<path d="M19.9418 28.6002H18.1516C18.0299 28.6002 17.9312 28.5015 17.9312 28.3798V25.1107C17.9312 24.9889 18.0299 24.8903 18.1516 24.8903H19.9418C20.0635 24.8903 20.1622 24.989 20.1622 25.1107V28.3798C20.1622 28.5015 20.0635 28.6002 19.9418 28.6002ZM18.372 28.1594H19.7214V25.331H18.372V28.1594Z" fill="white"/>
<path d="M22.8941 28.6002H21.1038C20.9821 28.6002 20.8834 28.5015 20.8834 28.3798V25.1107C20.8834 24.9889 20.9821 24.8903 21.1038 24.8903H22.8941C23.0158 24.8903 23.1145 24.989 23.1145 25.1107V28.3798C23.1145 28.5015 23.0158 28.6002 22.8941 28.6002ZM21.3242 28.1594H22.6737V25.331H21.3242V28.1594Z" fill="white"/>
<path d="M16.99 28.6002H15.1998C15.0781 28.6002 14.9794 28.5015 14.9794 28.3798V25.1107C14.9794 24.9889 15.0781 24.8903 15.1998 24.8903H16.99C17.1118 24.8903 17.2104 24.989 17.2104 25.1107V28.3798C17.2104 28.5015 17.1118 28.6002 16.99 28.6002ZM15.4202 28.1594H16.7696V25.331H15.4202V28.1594Z" fill="white"/>
<path d="M25.8459 19.8409H24.0556C23.9339 19.8409 23.8352 19.7421 23.8352 19.6205V16.3513C23.8352 16.2295 23.9339 16.1309 24.0556 16.1309H25.8459C25.9676 16.1309 26.0663 16.2296 26.0663 16.3513V19.6204C26.0663 19.7421 25.9676 19.8409 25.8459 19.8409ZM24.276 19.4H25.6254V16.5717H24.276V19.4Z" fill="white"/>
<path d="M28.7977 19.8409H27.0074C26.8857 19.8409 26.787 19.7421 26.787 19.6205V16.3513C26.787 16.2295 26.8857 16.1309 27.0074 16.1309H28.7977C28.9194 16.1309 29.0181 16.2296 29.0181 16.3513V19.6204C29.0181 19.7421 28.9194 19.8409 28.7977 19.8409ZM27.2278 19.4H28.5773V16.5717H27.2278V19.4Z" fill="white"/>
<path d="M28.7985 26.0104H24.0558V26.4512H28.7985V26.0104Z" fill="white"/>
<path d="M26.647 26.2308H26.2061V30.0648H26.647V26.2308Z" fill="white"/>
<path d="M19.9422 25.937H18.1517V26.3778H19.9422V25.937Z" fill="white"/>
<path d="M22.894 26.3777H21.1035V25.9369H22.6736V25.1107H23.1144V26.1573C23.1144 26.279 23.0157 26.3777 22.894 26.3777Z" fill="white"/>
<path d="M16.99 25.937H15.2V26.3778H16.99V25.937Z" fill="white"/>
<path d="M28.7976 21.9982H27.0076V21.5574H28.5772V20.7308H29.018V21.7777C29.0181 21.8995 28.9194 21.9982 28.7976 21.9982Z" fill="white"/>
<path d="M22.894 21.5574H21.1035V21.9982H22.894V21.5574Z" fill="white"/>
<path d="M16.99 21.5574H15.2V21.9982H16.99V21.5574Z" fill="white"/>
<path d="M19.9422 21.5574H18.1517V21.9982H19.9422V21.5574Z" fill="white"/>
<path d="M25.8453 21.5574H24.0549V21.9982H25.8453V21.5574Z" fill="white"/>
<path d="M28.7976 17.6187H27.0076V17.1778H28.5772V16.3513H29.018V17.3982C29.0181 17.52 28.9194 17.6187 28.7976 17.6187Z" fill="white"/>
<path d="M25.8453 17.1779H24.0549V17.6187H25.8453V17.1779Z" fill="white"/>
<path d="M30.4583 29.6971H13.5388C13.2412 29.6971 13 29.9384 13 30.2359V30.9727H30.9971V30.2359C30.9971 29.9384 30.7558 29.6971 30.4583 29.6971Z" fill="#423E3E"/>
<path d="M21.7359 42.2641C33.0733 42.2641 42.2642 33.0733 42.2642 21.7358C42.2642 10.3984 33.0733 1.20752 21.7359 1.20752C10.3984 1.20752 1.20755 10.3984 1.20755 21.7358C1.20755 33.0733 10.3984 42.2641 21.7359 42.2641Z" stroke="#F2C332" stroke-width="2"/>
</svg>
