<svg width="13" height="13" viewBox="0 0 13 13" fill="none" xmlns="http://www.w3.org/2000/svg">
<path d="M11.5949 0H9.77539C9.56505 0 9.39453 0.170523 9.39453 0.380859C9.39453 0.591195 9.56505 0.761719 9.77539 0.761719H11.5949C11.9496 0.761719 12.2383 1.05036 12.2383 1.40514V3.22461C12.2383 3.43495 12.4088 3.60547 12.6191 3.60547C12.8295 3.60547 13 3.43495 13 3.22461V1.40514C13 0.630348 12.3697 0 11.5949 0Z" fill="#667085"/>
<path d="M0.380859 3.60547C0.591195 3.60547 0.761719 3.43495 0.761719 3.22461V1.40514C0.761719 1.05036 1.05036 0.761719 1.40512 0.761719H3.22461C3.43495 0.761719 3.60547 0.591195 3.60547 0.380859C3.60547 0.170523 3.43495 0 3.22461 0H1.40512C0.630348 0 0 0.630348 0 1.40514V3.22461C0 3.43495 0.170523 3.60547 0.380859 3.60547Z" fill="#667085"/>
<path d="M3.22461 12.2383H1.40512C1.05036 12.2383 0.761719 11.9496 0.761719 11.5949V9.77539C0.761719 9.56505 0.591195 9.39453 0.380859 9.39453C0.170523 9.39453 0 9.56505 0 9.77539V11.5949C0 12.3697 0.630348 13 1.40512 13H3.22461C3.43495 13 3.60547 12.8295 3.60547 12.6191C3.60547 12.4088 3.43495 12.2383 3.22461 12.2383Z" fill="#667085"/>
<path d="M12.6191 9.39453C12.4088 9.39453 12.2383 9.56505 12.2383 9.77539V11.5949C12.2383 11.9496 11.9496 12.2383 11.5949 12.2383H9.77539C9.56505 12.2383 9.39453 12.4088 9.39453 12.6191C9.39453 12.8295 9.56505 13 9.77539 13H11.5949C12.3697 13 13 12.3697 13 11.5949V9.77539C13 9.56505 12.8295 9.39453 12.6191 9.39453Z" fill="#667085"/>
<path d="M8.67487 2.79297H9.88282C10.0478 2.79297 10.182 2.92716 10.182 3.09212V4.30005C10.182 4.51039 10.3525 4.68091 10.5628 4.68091C10.7732 4.68091 10.9437 4.51039 10.9437 4.30005V3.09212C10.9437 2.50715 10.4678 2.03125 9.88282 2.03125H8.67487C8.46453 2.03125 8.29401 2.20177 8.29401 2.41211C8.29401 2.62245 8.46453 2.79297 8.67487 2.79297Z" fill="#667085"/>
<path d="M2.05664 3.09212V4.30005C2.05664 4.51039 2.22716 4.68091 2.4375 4.68091C2.64784 4.68091 2.81836 4.51039 2.81836 4.30005V3.09212C2.81836 2.92716 2.95257 2.79297 3.11751 2.79297H4.32547C4.53581 2.79297 4.70633 2.62245 4.70633 2.41211C4.70633 2.20177 4.53581 2.03125 4.32547 2.03125H3.11751C2.53256 2.03125 2.05664 2.50715 2.05664 3.09212Z" fill="#667085"/>
<path d="M4.32547 10.1555H3.11751C2.95255 10.1555 2.81836 10.0213 2.81836 9.85637V8.64844C2.81836 8.4381 2.64784 8.26758 2.4375 8.26758C2.22716 8.26758 2.05664 8.4381 2.05664 8.64844V9.85637C2.05664 10.4413 2.53256 10.9172 3.11751 10.9172H4.32547C4.53581 10.9172 4.70633 10.7467 4.70633 10.5364C4.70633 10.326 4.53581 10.1555 4.32547 10.1555Z" fill="#667085"/>
<path d="M10.9436 9.85637V8.64844C10.9436 8.4381 10.7731 8.26758 10.5628 8.26758C10.3524 8.26758 10.1819 8.4381 10.1819 8.64844V9.85637C10.1819 10.0213 10.0477 10.1555 9.88276 10.1555H8.6748C8.46447 10.1555 8.29395 10.326 8.29395 10.5364C8.29395 10.7467 8.46447 10.9172 8.6748 10.9172H9.88276C10.4677 10.9172 10.9436 10.4413 10.9436 9.85637Z" fill="#667085"/>
<path d="M0.0253906 6.5C0.0253906 6.71034 0.195914 6.88086 0.40625 6.88086H12.5938C12.8041 6.88086 12.9746 6.71034 12.9746 6.5C12.9746 6.28966 12.8041 6.11914 12.5938 6.11914H0.40625C0.195914 6.11914 0.0253906 6.28966 0.0253906 6.5Z" fill="#667085"/>
</svg>
