<svg width="25" height="24" viewBox="0 0 25 24" fill="none" xmlns="http://www.w3.org/2000/svg">
<path d="M17.0002 9.41667C17.4145 9.41667 17.7502 9.08088 17.7502 8.66667C17.7502 8.25245 17.4145 7.91667 17.0002 7.91667L17.0002 9.41667ZM8.33358 8.66667L8.33358 9.41667L8.33358 8.66667ZM10.7995 6.58768C11.1241 6.33033 11.1786 5.8586 10.9213 5.53403C10.6639 5.20946 10.1922 5.15497 9.86761 5.41232L10.7995 6.58768ZM9.15826 6.9319L9.62423 7.51958L9.62423 7.51958L9.15826 6.9319ZM9.15826 10.4014L8.69229 10.9891L8.69229 10.9891L9.15826 10.4014ZM9.86761 11.921C10.1922 12.1784 10.6639 12.1239 10.9213 11.7993C11.1786 11.4747 11.1241 11.003 10.7995 10.7457L9.86761 11.921ZM7.68017 8.49956L6.93951 8.38155L6.93951 8.38155L7.68017 8.49956ZM7.68017 8.83378L8.42083 8.71577L8.42083 8.71577L7.68017 8.83378ZM8.33341 14.5834C7.9192 14.5834 7.58341 14.9192 7.58341 15.3334C7.58341 15.7476 7.9192 16.0834 8.33341 16.0834L8.33341 14.5834ZM15.4661 12.0791C15.1415 11.8217 14.6697 11.8762 14.4124 12.2008C14.155 12.5253 14.2095 12.9971 14.5341 13.2544L15.4661 12.0791ZM16.1754 13.5986L16.6414 13.011L16.6414 13.011L16.1754 13.5986ZM16.1754 17.0682L16.6414 17.6559L16.1754 17.0682ZM14.5341 17.4124C14.2095 17.6697 14.155 18.1415 14.4124 18.4661C14.6697 18.7906 15.1415 18.8451 15.466 18.5878L14.5341 17.4124ZM17.6535 15.1663L18.3941 15.0483L18.3941 15.0483L17.6535 15.1663ZM17.6535 15.5005L18.3941 15.6185L18.3941 15.6185L17.6535 15.5005ZM4.62166 5.06107L5.22842 5.50191L4.62166 5.06107ZM5.72782 3.95491L6.16866 4.56168L5.72782 3.95491ZM5.72782 20.0451L6.16866 19.4383L5.72782 20.0451ZM4.62166 18.9389L5.22842 18.4981L4.62166 18.9389ZM20.7118 18.9389L20.1051 18.4981L20.7118 18.9389ZM19.6057 20.0451L19.1648 19.4383L19.6057 20.0451ZM20.7118 5.06107L20.1051 5.50191L20.7118 5.06107ZM19.6057 3.95491L19.1648 4.56168L19.6057 3.95491ZM7.66691 8.66667L6.91691 8.66667L7.66691 8.66667ZM17.0002 7.91667L8.33358 7.91667L8.33358 9.41667L17.0002 9.41667L17.0002 7.91667ZM9.86761 5.41232L8.69229 6.34421L9.62423 7.51958L10.7995 6.58768L9.86761 5.41232ZM8.69229 10.9891L9.86761 11.921L10.7995 10.7457L9.62423 9.81375L8.69229 10.9891ZM8.69229 6.34421C8.23801 6.70442 7.84613 7.01366 7.56549 7.29323C7.28149 7.57613 7.01279 7.9216 6.93951 8.38155L8.42083 8.61756C8.42104 8.61624 8.4216 8.61306 8.42419 8.60646C8.42696 8.59938 8.43305 8.5859 8.44604 8.5651C8.47371 8.52076 8.52581 8.45384 8.6241 8.35593C8.83014 8.15068 9.14123 7.90255 9.62423 7.51958L8.69229 6.34421ZM9.62424 9.81375C9.14124 9.43079 8.83014 9.18265 8.6241 8.9774C8.52582 8.8795 8.47371 8.81257 8.44604 8.76823C8.43305 8.74743 8.42696 8.73395 8.42419 8.72688C8.4216 8.72028 8.42104 8.71709 8.42083 8.71577L6.93951 8.95179C7.01279 9.41173 7.28149 9.7572 7.56549 10.0401C7.84614 10.3197 8.23801 10.6289 8.69229 10.9891L9.62424 9.81375ZM8.33341 16.0834L17.0001 16.0834L17.0001 14.5834L8.33341 14.5834L8.33341 16.0834ZM14.5341 13.2544L15.7094 14.1863L16.6414 13.011L15.4661 12.0791L14.5341 13.2544ZM15.7094 16.4805L14.5341 17.4124L15.466 18.5878L16.6414 17.6559L15.7094 16.4805ZM15.7094 14.1863C16.1924 14.5693 16.5035 14.8174 16.7096 15.0227C16.8078 15.1206 16.86 15.1875 16.8876 15.2319C16.9006 15.2527 16.9067 15.2661 16.9095 15.2732C16.9121 15.2798 16.9126 15.283 16.9128 15.2843L18.3941 15.0483C18.3209 14.5884 18.0522 14.2429 17.7682 13.96C17.4875 13.6804 17.0957 13.3712 16.6414 13.011L15.7094 14.1863ZM16.6414 17.6559C17.0957 17.2957 17.4875 16.9864 17.7682 16.7069C18.0522 16.424 18.3209 16.0785 18.3941 15.6185L16.9128 15.3825C16.9126 15.3838 16.9121 15.387 16.9095 15.3936C16.9067 15.4007 16.9006 15.4142 16.8876 15.435C16.86 15.4793 16.8078 15.5462 16.7096 15.6442C16.5035 15.8494 16.1924 16.0975 15.7094 16.4805L16.6414 17.6559ZM4.41675 12C4.41675 10.1084 4.41778 8.74999 4.53175 7.69804C4.6442 6.66013 4.85934 6.00992 5.22842 5.50191L4.0149 4.62023C3.42907 5.42656 3.16675 6.37094 3.04048 7.53647C2.91572 8.68798 2.91675 10.1418 2.91675 12L4.41675 12ZM12.6667 2.25C10.8086 2.25 9.35472 2.24897 8.20322 2.37373C7.03769 2.50001 6.09331 2.76232 5.28698 3.34815L6.16866 4.56168C6.67667 4.19259 7.32688 3.97745 8.36479 3.865C9.41674 3.75103 10.7752 3.75 12.6667 3.75L12.6667 2.25ZM5.22842 5.50191C5.49056 5.14111 5.80786 4.82382 6.16866 4.56168L5.28698 3.34815C4.79884 3.70281 4.36956 4.13209 4.0149 4.62023L5.22842 5.50191ZM12.6667 20.25C10.7752 20.25 9.41674 20.249 8.36479 20.135C7.32688 20.0225 6.67666 19.8074 6.16866 19.4383L5.28698 20.6518C6.09331 21.2377 7.03769 21.5 8.20322 21.6263C9.35472 21.751 10.8086 21.75 12.6667 21.75L12.6667 20.25ZM2.91675 12C2.91675 13.8582 2.91572 15.312 3.04048 16.4635C3.16675 17.6291 3.42907 18.5734 4.0149 19.3798L5.22842 18.4981C4.85934 17.9901 4.6442 17.3399 4.53175 16.302C4.41778 15.25 4.41675 13.8916 4.41675 12L2.91675 12ZM6.16866 19.4383C5.80786 19.1762 5.49056 18.8589 5.22842 18.4981L4.0149 19.3798C4.36956 19.8679 4.79884 20.2972 5.28698 20.6518L6.16866 19.4383ZM20.9167 12C20.9167 13.8916 20.9157 15.25 20.8017 16.302C20.6893 17.3399 20.4742 17.9901 20.1051 18.4981L21.3186 19.3798C21.9044 18.5734 22.1667 17.6291 22.293 16.4635C22.4178 15.312 22.4167 13.8582 22.4167 12L20.9167 12ZM12.6667 21.75C14.5249 21.75 15.9788 21.751 17.1303 21.6263C18.2958 21.5 19.2402 21.2377 20.0465 20.6518L19.1648 19.4383C18.6568 19.8074 18.0066 20.0225 16.9687 20.135C15.9168 20.249 14.5583 20.25 12.6667 20.25L12.6667 21.75ZM20.1051 18.4981C19.8429 18.8589 19.5256 19.1762 19.1648 19.4383L20.0465 20.6518C20.5347 20.2972 20.9639 19.8679 21.3186 19.3798L20.1051 18.4981ZM22.4167 12C22.4167 10.1418 22.4178 8.68798 22.293 7.53648C22.1667 6.37094 21.9044 5.42656 21.3186 4.62023L20.1051 5.50191C20.4742 6.00992 20.6893 6.66013 20.8017 7.69804C20.9157 8.74999 20.9167 10.1084 20.9167 12L22.4167 12ZM12.6667 3.75C14.5583 3.75 15.9168 3.75103 16.9687 3.865C18.0066 3.97745 18.6568 4.19259 19.1648 4.56168L20.0465 3.34815C19.2402 2.76232 18.2958 2.50001 17.1303 2.37373C15.9788 2.24897 14.5249 2.25 12.6667 2.25L12.6667 3.75ZM21.3186 4.62023C20.9639 4.13209 20.5347 3.70281 20.0465 3.34815L19.1648 4.56168C19.5256 4.82382 19.8429 5.14111 20.1051 5.50191L21.3186 4.62023ZM16.9128 15.2843C16.9155 15.3009 16.9167 15.3173 16.9167 15.3334L18.4167 15.3334C18.4167 15.2379 18.4092 15.1427 18.3941 15.0483L16.9128 15.2843ZM16.9167 15.3334C16.9167 15.3496 16.9155 15.3659 16.9128 15.3825L18.3941 15.6185C18.4092 15.5242 18.4167 15.4289 18.4167 15.3334L16.9167 15.3334ZM17.0001 16.0834L17.6667 16.0834L17.6667 14.5834L17.0001 14.5834L17.0001 16.0834ZM6.93951 8.38155C6.92448 8.47592 6.91691 8.57119 6.91691 8.66667L8.41691 8.66667C8.41691 8.65052 8.41818 8.63416 8.42083 8.61756L6.93951 8.38155ZM6.91691 8.66667C6.91691 8.76214 6.92448 8.85742 6.93951 8.95179L8.42083 8.71577C8.41818 8.69917 8.41691 8.68282 8.41691 8.66667L6.91691 8.66667ZM8.33358 7.91667L7.66691 7.91667L7.66691 9.41667L8.33358 9.41667L8.33358 7.91667Z" fill="white"/>
</svg>
