<svg width="233" height="233" viewBox="0 0 233 233" fill="none" xmlns="http://www.w3.org/2000/svg">
<g clip-path="url(#clip0_26_1493)">
<path d="M233 116.5C233 155.669 213.687 190.322 184.026 211.443C164.302 225.466 140.701 233 116.5 233C92.2988 233 68.698 225.466 48.9736 211.443C19.3344 190.322 0 155.669 0 116.5C0 52.1592 52.1656 0 116.505 0C180.845 0 233 52.1592 233 116.5Z" fill="url(#paint0_linear_26_1493)"/>
<path d="M116.506 18.7444C133.336 18.7518 149.879 23.1028 164.536 31.3763C179.192 39.6499 191.465 51.5659 200.168 65.9718C208.87 80.3777 213.708 96.7858 214.212 113.609C214.717 130.432 210.871 147.1 203.047 162.002C195.878 175.56 185.648 187.26 173.168 196.174C156.618 207.934 136.819 214.252 116.516 214.252C96.2141 214.252 76.415 207.934 59.8652 196.174C47.3852 187.26 37.1547 175.56 29.9855 162.002C22.157 147.103 18.307 130.435 18.8079 113.612C19.3089 96.7884 24.1438 80.3794 32.8449 65.9724C41.5459 51.5654 53.8185 39.6484 68.4748 31.3746C83.1312 23.1008 99.6751 18.7504 116.506 18.7444ZM116.506 2.76575C53.6925 2.76575 2.76575 53.686 2.76575 116.5C2.76575 154.739 21.641 188.57 50.577 209.191C69.8335 222.88 92.8738 230.235 116.5 230.235C140.126 230.235 163.167 222.88 182.423 209.191C211.366 188.57 230.238 154.739 230.238 116.5C230.238 53.686 179.319 2.76575 116.506 2.76575Z" fill="#A7A9AC"/>
<path style="mix-blend-mode:multiply" opacity="0.5" d="M116.506 18.7444C133.336 18.7518 149.879 23.1028 164.536 31.3763C179.192 39.6499 191.465 51.5659 200.168 65.9718C208.87 80.3777 213.708 96.7858 214.212 113.609C214.717 130.432 210.871 147.1 203.047 162.002C195.878 175.56 185.648 187.26 173.168 196.174C156.618 207.934 136.819 214.252 116.516 214.252C96.2141 214.252 76.415 207.934 59.8652 196.174C47.3852 187.26 37.1547 175.56 29.9855 162.002C22.157 147.103 18.307 130.435 18.8079 113.612C19.3089 96.7884 24.1438 80.3794 32.8449 65.9724C41.5459 51.5654 53.8185 39.6484 68.4748 31.3746C83.1312 23.1008 99.6751 18.7504 116.506 18.7444ZM116.506 2.76575C53.6925 2.76575 2.76575 53.686 2.76575 116.5C2.76575 154.739 21.641 188.57 50.577 209.191C69.8335 222.88 92.8738 230.235 116.5 230.235C140.126 230.235 163.167 222.88 182.423 209.191C211.366 188.57 230.238 154.739 230.238 116.5C230.238 53.686 179.319 2.76575 116.506 2.76575Z" fill="url(#paint1_linear_26_1493)"/>
<path d="M116.505 16.3685C133.744 16.3772 150.689 20.8345 165.701 29.3093C180.713 37.7841 193.283 49.9895 202.197 64.745C211.111 79.5004 216.066 96.3066 216.583 113.538C217.101 130.769 213.163 147.842 205.15 163.106C197.805 176.994 187.325 188.98 174.541 198.113C157.59 210.16 137.309 216.632 116.513 216.632C95.7166 216.632 75.436 210.16 58.4841 198.113C45.6999 188.981 35.2199 176.995 27.8756 163.106C19.8558 147.844 15.9115 130.771 16.4246 113.538C16.9376 96.3049 21.8906 79.4963 30.8042 64.7389C39.7177 49.9815 52.2899 37.775 67.3039 29.301C82.3179 20.827 99.2652 16.3725 116.505 16.3685ZM116.505 0C52.1656 0 0 52.1592 0 116.5C0 155.669 19.3344 190.322 48.9736 211.443C68.698 225.466 92.2988 233 116.5 233C140.701 233 164.302 225.466 184.026 211.443C213.673 190.308 233 155.669 233 116.5C233 52.1592 180.845 0 116.505 0Z" fill="url(#paint2_linear_26_1493)"/>
<g filter="url(#filter0_d_26_1493)">
<path d="M77.9198 111L74.4158 104.64H73.4318V111H69.3278V94.152H76.2158C77.5438 94.152 78.6718 94.384 79.5998 94.848C80.5438 95.312 81.2478 95.952 81.7118 96.768C82.1758 97.568 82.4078 98.464 82.4078 99.456C82.4078 100.576 82.0878 101.576 81.4478 102.456C80.8238 103.336 79.8958 103.96 78.6638 104.328L82.5518 111H77.9198ZM73.4318 101.736H75.9758C76.7278 101.736 77.2878 101.552 77.6558 101.184C78.0398 100.816 78.2318 100.296 78.2318 99.624C78.2318 98.984 78.0398 98.48 77.6558 98.112C77.2878 97.744 76.7278 97.56 75.9758 97.56H73.4318V101.736ZM89.0881 97.44V100.848H94.5841V104.016H89.0881V107.712H95.3041V111H84.9841V94.152H95.3041V97.44H89.0881ZM110.808 99.576C110.808 100.552 110.584 101.448 110.136 102.264C109.688 103.064 109 103.712 108.072 104.208C107.144 104.704 105.992 104.952 104.616 104.952H102.072V111H97.9685V94.152H104.616C105.96 94.152 107.096 94.384 108.024 94.848C108.952 95.312 109.648 95.952 110.112 96.768C110.576 97.584 110.808 98.52 110.808 99.576ZM104.304 101.688C105.088 101.688 105.672 101.504 106.056 101.136C106.44 100.768 106.632 100.248 106.632 99.576C106.632 98.904 106.44 98.384 106.056 98.016C105.672 97.648 105.088 97.464 104.304 97.464H102.072V101.688H104.304ZM120.913 111.168C119.329 111.168 117.873 110.8 116.545 110.064C115.233 109.328 114.185 108.304 113.401 106.992C112.633 105.664 112.249 104.176 112.249 102.528C112.249 100.88 112.633 99.4 113.401 98.088C114.185 96.776 115.233 95.752 116.545 95.016C117.873 94.28 119.329 93.912 120.913 93.912C122.497 93.912 123.945 94.28 125.257 95.016C126.585 95.752 127.625 96.776 128.377 98.088C129.145 99.4 129.529 100.88 129.529 102.528C129.529 104.176 129.145 105.664 128.377 106.992C127.609 108.304 126.569 109.328 125.257 110.064C123.945 110.8 122.497 111.168 120.913 111.168ZM120.913 107.424C122.257 107.424 123.329 106.976 124.129 106.08C124.945 105.184 125.353 104 125.353 102.528C125.353 101.04 124.945 99.856 124.129 98.976C123.329 98.08 122.257 97.632 120.913 97.632C119.553 97.632 118.465 98.072 117.649 98.952C116.849 99.832 116.449 101.024 116.449 102.528C116.449 104.016 116.849 105.208 117.649 106.104C118.465 106.984 119.553 107.424 120.913 107.424ZM140.404 111L136.9 104.64H135.916V111H131.812V94.152H138.7C140.028 94.152 141.156 94.384 142.084 94.848C143.028 95.312 143.732 95.952 144.196 96.768C144.66 97.568 144.892 98.464 144.892 99.456C144.892 100.576 144.572 101.576 143.932 102.456C143.308 103.336 142.38 103.96 141.148 104.328L145.036 111H140.404ZM135.916 101.736H138.46C139.212 101.736 139.772 101.552 140.14 101.184C140.524 100.816 140.716 100.296 140.716 99.624C140.716 98.984 140.524 98.48 140.14 98.112C139.772 97.744 139.212 97.56 138.46 97.56H135.916V101.736ZM159.588 94.152V97.44H155.124V111H151.02V97.44H146.556V94.152H159.588ZM74.6596 138.024H68.3716L67.3636 141H63.0676L69.1636 124.152H73.9156L80.0116 141H75.6676L74.6596 138.024ZM73.6036 134.856L71.5156 128.688L69.4516 134.856H73.6036ZM93.2648 124.152C95.0408 124.152 96.5928 124.504 97.9208 125.208C99.2488 125.912 100.273 126.904 100.993 128.184C101.729 129.448 102.097 130.912 102.097 132.576C102.097 134.224 101.729 135.688 100.993 136.968C100.273 138.248 99.2408 139.24 97.8968 139.944C96.5688 140.648 95.0248 141 93.2648 141H86.9528V124.152H93.2648ZM93.0008 137.448C94.5528 137.448 95.7608 137.024 96.6248 136.176C97.4888 135.328 97.9208 134.128 97.9208 132.576C97.9208 131.024 97.4888 129.816 96.6248 128.952C95.7608 128.088 94.5528 127.656 93.0008 127.656H91.0568V137.448H93.0008ZM108.494 127.44V130.848H113.99V134.016H108.494V137.712H114.71V141H104.39V124.152H114.71V127.44H108.494ZM127.863 138.024H121.575L120.567 141H116.271L122.367 124.152H127.119L133.215 141H128.871L127.863 138.024ZM126.807 134.856L124.719 128.688L122.655 134.856H126.807ZM147.19 124.152V127.44H142.726V141H138.622V127.44H134.158V124.152H147.19ZM163.842 124.152V141H159.738V134.064H153.354V141H149.25V124.152H153.354V130.752H159.738V124.152H163.842Z" fill="white"/>
</g>
</g>
<defs>
<filter id="filter0_d_26_1493" x="59.0676" y="93.912" width="108.774" height="55.088" filterUnits="userSpaceOnUse" color-interpolation-filters="sRGB">
<feFlood flood-opacity="0" result="BackgroundImageFix"/>
<feColorMatrix in="SourceAlpha" type="matrix" values="0 0 0 0 0 0 0 0 0 0 0 0 0 0 0 0 0 0 127 0" result="hardAlpha"/>
<feOffset dy="4"/>
<feGaussianBlur stdDeviation="2"/>
<feComposite in2="hardAlpha" operator="out"/>
<feColorMatrix type="matrix" values="0 0 0 0 0 0 0 0 0 0 0 0 0 0 0 0 0 0 0.25 0"/>
<feBlend mode="normal" in2="BackgroundImageFix" result="effect1_dropShadow_26_1493"/>
<feBlend mode="normal" in="SourceGraphic" in2="effect1_dropShadow_26_1493" result="shape"/>
</filter>
<linearGradient id="paint0_linear_26_1493" x1="116.502" y1="0" x2="116.502" y2="233" gradientUnits="userSpaceOnUse">
<stop stop-color="#FE1500"/>
<stop offset="0.12" stop-color="#F81400"/>
<stop offset="0.27" stop-color="#E81200"/>
<stop offset="0.44" stop-color="#CE0D00"/>
<stop offset="0.63" stop-color="#AA0800"/>
<stop offset="0.82" stop-color="#7B0000"/>
<stop offset="0.83" stop-color="#790000"/>
</linearGradient>
<linearGradient id="paint1_linear_26_1493" x1="116.502" y1="-8.49399" x2="116.502" y2="290.093" gradientUnits="userSpaceOnUse">
<stop stop-color="white"/>
<stop offset="0.02" stop-color="#F9F9F9"/>
<stop offset="0.39" stop-color="#909090"/>
<stop offset="0.69" stop-color="#434343"/>
<stop offset="0.9" stop-color="#121212"/>
<stop offset="1"/>
</linearGradient>
<linearGradient id="paint2_linear_26_1493" x1="113.27" y1="-18.4711" x2="119.399" y2="237.548" gradientUnits="userSpaceOnUse">
<stop offset="0.07" stop-color="#F1F2F2"/>
<stop offset="0.16" stop-color="#EEEFF0"/>
<stop offset="0.22" stop-color="#E6E7E8"/>
<stop offset="0.4" stop-color="#E3E4E5"/>
<stop offset="0.51" stop-color="#DBDCDD"/>
<stop offset="0.58" stop-color="#D1D3D4"/>
<stop offset="0.77" stop-color="#A7A9AC"/>
<stop offset="0.92" stop-color="#808285"/>
<stop offset="0.98" stop-color="#7D7F82"/>
<stop offset="1" stop-color="#7A7C7F"/>
</linearGradient>
<clipPath id="clip0_26_1493">
<rect width="233" height="233" fill="white"/>
</clipPath>
</defs>
</svg>
