<svg width="66" height="62" viewBox="0 0 66 62" fill="none" xmlns="http://www.w3.org/2000/svg">
<path d="M52.3359 50.3359H25.2656C22.0557 50.3359 19.4648 52.9268 19.4648 56.1367C19.4648 57.6449 20.0451 58.9984 20.973 60.0039H56.6285C57.5566 58.9984 58.1367 57.6449 58.1367 56.1367C58.1367 52.9268 55.5458 50.3359 52.3359 50.3359Z" fill="#E6F3FF"/>
<path d="M52.3359 31H25.2656C22.0557 31 19.4648 33.5909 19.4648 36.8008C19.4648 38.309 20.0451 39.6625 20.973 40.668H56.6285C57.5566 39.6625 58.1367 38.309 58.1367 36.8008C58.1367 33.5909 55.5458 31 52.3359 31Z" fill="#E6F3FF"/>
<path d="M52.3359 11.6641H25.2656C22.0557 11.6641 19.4648 14.2549 19.4648 17.4648C19.4648 18.973 20.0451 20.3266 20.973 21.332H56.6285C57.5566 20.3266 58.1367 18.973 58.1367 17.4648C58.1367 14.2549 55.5458 11.6641 52.3359 11.6641Z" fill="#E6F3FF"/>
<path d="M14.4382 58.0703C11.2396 58.0703 8.63745 55.4682 8.63745 52.2695C8.63745 49.0709 11.2396 46.4688 14.4382 46.4688C17.6369 46.4688 20.239 49.0709 20.239 52.2695C20.239 55.4682 17.6369 58.0703 14.4382 58.0703Z" fill="#FFD9B3"/>
<path d="M14.4382 38.7344C11.2396 38.7344 8.63745 36.1323 8.63745 32.9336C8.63745 29.7349 11.2396 27.1328 14.4382 27.1328C17.6369 27.1328 20.239 29.7349 20.239 32.9336C20.239 36.1323 17.6369 38.7344 14.4382 38.7344Z" fill="#FFD9B3"/>
<path d="M14.4382 19.3984C11.2396 19.3984 8.63745 16.7963 8.63745 13.5977C8.63745 10.399 11.2396 7.79688 14.4382 7.79688C17.6369 7.79688 20.239 10.399 20.239 13.5977C20.239 16.7963 17.6369 19.3984 14.4382 19.3984Z" fill="#FFD9B3"/>
<path d="M52.3359 50.3359H33V60.0039H56.6285C57.5566 58.9984 58.1367 57.6449 58.1367 56.1367C58.1367 52.9268 55.5458 50.3359 52.3359 50.3359Z" fill="#CEDBF2"/>
<path d="M52.3359 11.6641H33V21.332H56.6285C57.5566 20.3266 58.1367 18.973 58.1367 17.4648C58.1367 14.2549 55.5458 11.6641 52.3359 11.6641Z" fill="#CEDBF2"/>
<path d="M52.3359 31H33V40.668H56.6285C57.5566 39.6625 58.1367 38.309 58.1367 36.8008C58.1367 33.5909 55.5458 31 52.3359 31Z" fill="#CEDBF2"/>
<path d="M0 0.0625V61.9375H66V0.0625H0ZM62.1328 3.92969V19.3984H3.86719V3.92969H62.1328ZM62.1328 23.2656V38.7344H3.86719V23.2656H62.1328ZM3.86719 58.0703V42.6016H62.1328V58.0703H3.86719Z" fill="#4D5E80"/>
<path d="M33 3.92969H62.1328V19.3984H33V23.2656H62.1328V38.7344H33V42.6016H62.1328V58.0703H33V61.9375H66V0.0625H33V3.92969Z" fill="#3D4566"/>
</svg>
