<svg width="256" height="142" viewBox="0 0 256 142" fill="none" xmlns="http://www.w3.org/2000/svg">
<path d="M210.52 0H45.48C20.3621 0 0 20.3621 0 45.48V96.52C0 121.638 20.3621 142 45.48 142H210.52C235.638 142 256 121.638 256 96.52V45.48C256 20.3621 235.638 0 210.52 0Z" fill="url(#paint0_linear_265_2000)"/>
<path d="M210.29 1H45.71C21.5696 1 2 20.5696 2 44.71V95.29C2 119.43 21.5696 139 45.71 139H210.29C234.43 139 254 119.43 254 95.29V44.71C254 20.5696 234.43 1 210.29 1Z" fill="url(#paint1_linear_265_2000)"/>
<path d="M208.93 12H45.07C26.8059 12 12 26.8059 12 45.07V95.93C12 114.194 26.8059 129 45.07 129H208.93C227.194 129 242 114.194 242 95.93V45.07C242 26.8059 227.194 12 208.93 12Z" fill="url(#paint2_linear_265_2000)"/>
<path d="M210.36 16H45.64C29.8226 16 17 28.8226 17 44.64V95.36C17 111.177 29.8226 124 45.64 124H210.36C226.177 124 239 111.177 239 95.36V44.64C239 28.8226 226.177 16 210.36 16Z" fill="url(#paint3_linear_265_2000)"/>
<path d="M130.09 43.9201C69.2899 43.9201 37.9999 52.4701 21.9999 66.6701V47.6701C21.9761 44.1695 22.6463 40.699 23.9719 37.459C25.2975 34.219 27.2522 31.2739 29.7229 28.794C32.1935 26.314 35.1313 24.3483 38.3662 23.0105C41.6012 21.6728 45.0692 20.9895 48.5699 21.0001H207.75C222.53 21.0001 234 32.8501 234 47.6301V66.6301C217 52.4701 205.5 43.9201 130.09 43.9201Z" fill="url(#paint4_linear_265_2000)"/>
<g filter="url(#filter0_d_265_2000)">
<path d="M50.9472 65L47.4432 58.64H46.4592V65H42.3552V48.152H49.2432C50.5712 48.152 51.6992 48.384 52.6272 48.848C53.5712 49.312 54.2752 49.952 54.7392 50.768C55.2032 51.568 55.4352 52.464 55.4352 53.456C55.4352 54.576 55.1152 55.576 54.4752 56.456C53.8512 57.336 52.9232 57.96 51.6912 58.328L55.5792 65H50.9472ZM46.4592 55.736H49.0032C49.7552 55.736 50.3152 55.552 50.6832 55.184C51.0672 54.816 51.2592 54.296 51.2592 53.624C51.2592 52.984 51.0672 52.48 50.6832 52.112C50.3152 51.744 49.7552 51.56 49.0032 51.56H46.4592V55.736ZM62.1154 51.44V54.848H67.6114V58.016H62.1154V61.712H68.3314V65H58.0114V48.152H68.3314V51.44H62.1154ZM70.2998 56.552C70.2998 54.888 70.6598 53.408 71.3798 52.112C72.0998 50.8 73.0998 49.784 74.3798 49.064C75.6758 48.328 77.1398 47.96 78.7718 47.96C80.7718 47.96 82.4838 48.488 83.9078 49.544C85.3318 50.6 86.2838 52.04 86.7638 53.864H82.2518C81.9158 53.16 81.4358 52.624 80.8118 52.256C80.2038 51.888 79.5078 51.704 78.7238 51.704C77.4598 51.704 76.4358 52.144 75.6518 53.024C74.8678 53.904 74.4758 55.08 74.4758 56.552C74.4758 58.024 74.8678 59.2 75.6518 60.08C76.4358 60.96 77.4598 61.4 78.7238 61.4C79.5078 61.4 80.2038 61.216 80.8118 60.848C81.4358 60.48 81.9158 59.944 82.2518 59.24H86.7638C86.2838 61.064 85.3318 62.504 83.9078 63.56C82.4838 64.6 80.7718 65.12 78.7718 65.12C77.1398 65.12 75.6758 64.76 74.3798 64.04C73.0998 63.304 72.0998 62.288 71.3798 60.992C70.6598 59.696 70.2998 58.216 70.2998 56.552ZM93.3811 51.44V54.848H98.8771V58.016H93.3811V61.712H99.5971V65H89.2771V48.152H99.5971V51.44H93.3811ZM106.365 48.152V65H102.261V48.152H106.365ZM125.156 48.152L119.18 65H114.044L108.068 48.152H112.436L116.612 60.872L120.812 48.152H125.156ZM130.975 51.44V54.848H136.471V58.016H130.975V61.712H137.191V65H126.871V48.152H137.191V51.44H130.975ZM155.909 48.152V51.44H149.045V54.992H154.181V58.184H149.045V65H144.941V48.152H155.909ZM166.658 65L163.154 58.64H162.17V65H158.066V48.152H164.954C166.282 48.152 167.41 48.384 168.338 48.848C169.282 49.312 169.986 49.952 170.45 50.768C170.914 51.568 171.146 52.464 171.146 53.456C171.146 54.576 170.826 55.576 170.186 56.456C169.562 57.336 168.634 57.96 167.402 58.328L171.29 65H166.658ZM162.17 55.736H164.714C165.466 55.736 166.026 55.552 166.394 55.184C166.778 54.816 166.97 54.296 166.97 53.624C166.97 52.984 166.778 52.48 166.394 52.112C166.026 51.744 165.466 51.56 164.714 51.56H162.17V55.736ZM181.69 65.168C180.106 65.168 178.65 64.8 177.322 64.064C176.01 63.328 174.962 62.304 174.178 60.992C173.41 59.664 173.026 58.176 173.026 56.528C173.026 54.88 173.41 53.4 174.178 52.088C174.962 50.776 176.01 49.752 177.322 49.016C178.65 48.28 180.106 47.912 181.69 47.912C183.274 47.912 184.722 48.28 186.034 49.016C187.362 49.752 188.402 50.776 189.154 52.088C189.922 53.4 190.306 54.88 190.306 56.528C190.306 58.176 189.922 59.664 189.154 60.992C188.386 62.304 187.346 63.328 186.034 64.064C184.722 64.8 183.274 65.168 181.69 65.168ZM181.69 61.424C183.034 61.424 184.106 60.976 184.906 60.08C185.722 59.184 186.13 58 186.13 56.528C186.13 55.04 185.722 53.856 184.906 52.976C184.106 52.08 183.034 51.632 181.69 51.632C180.33 51.632 179.242 52.072 178.426 52.952C177.626 53.832 177.226 55.024 177.226 56.528C177.226 58.016 177.626 59.208 178.426 60.104C179.242 60.984 180.33 61.424 181.69 61.424ZM211.67 48.152V65H207.566V54.896L203.798 65H200.486L196.694 54.872V65H192.59V48.152H197.438L202.166 59.816L206.846 48.152H211.67ZM63.519 92.024H57.231L56.223 95H51.927L58.023 78.152H62.775L68.871 95H64.527L63.519 92.024ZM62.463 88.856L60.375 82.688L58.311 88.856H62.463ZM89.8063 78.152V95H85.7023V84.896L81.9343 95H78.6223L74.8303 84.872V95H70.7263V78.152H75.5743L80.3023 89.816L84.9823 78.152H89.8063ZM102.958 86.36C103.934 86.568 104.718 87.056 105.31 87.824C105.902 88.576 106.198 89.44 106.198 90.416C106.198 91.824 105.702 92.944 104.71 93.776C103.734 94.592 102.366 95 100.606 95H92.7575V78.152H100.342C102.054 78.152 103.39 78.544 104.35 79.328C105.326 80.112 105.814 81.176 105.814 82.52C105.814 83.512 105.55 84.336 105.022 84.992C104.51 85.648 103.822 86.104 102.958 86.36ZM96.8615 84.968H99.5495C100.222 84.968 100.734 84.824 101.086 84.536C101.454 84.232 101.638 83.792 101.638 83.216C101.638 82.64 101.454 82.2 101.086 81.896C100.734 81.592 100.222 81.44 99.5495 81.44H96.8615V84.968ZM99.8855 91.688C100.574 91.688 101.102 91.536 101.47 91.232C101.854 90.912 102.046 90.456 102.046 89.864C102.046 89.272 101.846 88.808 101.446 88.472C101.062 88.136 100.526 87.968 99.8375 87.968H96.8615V91.688H99.8855ZM112.61 78.152V88.232C112.61 89.24 112.858 90.016 113.354 90.56C113.85 91.104 114.578 91.376 115.538 91.376C116.498 91.376 117.234 91.104 117.746 90.56C118.258 90.016 118.514 89.24 118.514 88.232V78.152H122.618V88.208C122.618 89.712 122.298 90.984 121.658 92.024C121.018 93.064 120.154 93.848 119.066 94.376C117.994 94.904 116.794 95.168 115.466 95.168C114.138 95.168 112.946 94.912 111.89 94.4C110.85 93.872 110.026 93.088 109.418 92.048C108.81 90.992 108.506 89.712 108.506 88.208V78.152H112.61ZM129.604 91.832H134.98V95H125.5V78.152H129.604V91.832ZM147.425 92.024H141.137L140.129 95H135.833L141.929 78.152H146.681L152.777 95H148.433L147.425 92.024ZM146.369 88.856L144.281 82.688L142.217 88.856H146.369ZM169.705 95H165.601L158.737 84.608V95H154.633V78.152H158.737L165.601 88.592V78.152H169.705V95ZM171.983 86.552C171.983 84.888 172.343 83.408 173.063 82.112C173.783 80.8 174.783 79.784 176.063 79.064C177.359 78.328 178.823 77.96 180.455 77.96C182.455 77.96 184.167 78.488 185.591 79.544C187.015 80.6 187.967 82.04 188.447 83.864H183.935C183.599 83.16 183.119 82.624 182.495 82.256C181.887 81.888 181.191 81.704 180.407 81.704C179.143 81.704 178.119 82.144 177.335 83.024C176.551 83.904 176.159 85.08 176.159 86.552C176.159 88.024 176.551 89.2 177.335 90.08C178.119 90.96 179.143 91.4 180.407 91.4C181.191 91.4 181.887 91.216 182.495 90.848C183.119 90.48 183.599 89.944 183.935 89.24H188.447C187.967 91.064 187.015 92.504 185.591 93.56C184.167 94.6 182.455 95.12 180.455 95.12C178.823 95.12 177.359 94.76 176.063 94.04C174.783 93.304 173.783 92.288 173.063 90.992C172.343 89.696 171.983 88.216 171.983 86.552ZM195.065 81.44V84.848H200.561V88.016H195.065V91.712H201.281V95H190.961V78.152H201.281V81.44H195.065Z" fill="white"/>
</g>
<defs>
<filter id="filter0_d_265_2000" x="38.3552" y="47.9121" width="177.314" height="55.2559" filterUnits="userSpaceOnUse" color-interpolation-filters="sRGB">
<feFlood flood-opacity="0" result="BackgroundImageFix"/>
<feColorMatrix in="SourceAlpha" type="matrix" values="0 0 0 0 0 0 0 0 0 0 0 0 0 0 0 0 0 0 127 0" result="hardAlpha"/>
<feOffset dy="4"/>
<feGaussianBlur stdDeviation="2"/>
<feComposite in2="hardAlpha" operator="out"/>
<feColorMatrix type="matrix" values="0 0 0 0 0 0 0 0 0 0 0 0 0 0 0 0 0 0 0.25 0"/>
<feBlend mode="normal" in2="BackgroundImageFix" result="effect1_dropShadow_265_2000"/>
<feBlend mode="normal" in="SourceGraphic" in2="effect1_dropShadow_265_2000" result="shape"/>
</filter>
<linearGradient id="paint0_linear_265_2000" x1="186.92" y1="169.29" x2="87.22" y2="2.96001" gradientUnits="userSpaceOnUse">
<stop offset="0.02" stop-color="#A4B7B2"/>
<stop offset="0.2" stop-color="#C5D1CE"/>
<stop offset="0.38" stop-color="#DEE5E3"/>
<stop offset="0.57" stop-color="#F1F4F3"/>
<stop offset="0.77" stop-color="#FBFCFC"/>
<stop offset="0.99" stop-color="white"/>
</linearGradient>
<linearGradient id="paint1_linear_265_2000" x1="128" y1="-21.01" x2="128" y2="140.75" gradientUnits="userSpaceOnUse">
<stop offset="0.01" stop-color="#F2F2F2"/>
<stop offset="0.28" stop-color="#EEEEEE"/>
<stop offset="0.52" stop-color="#E4E4E4"/>
<stop offset="0.74" stop-color="#D1D1D1"/>
<stop offset="0.96" stop-color="#B8B8B8"/>
<stop offset="0.98" stop-color="#B5B5B5"/>
</linearGradient>
<linearGradient id="paint2_linear_265_2000" x1="127" y1="14.44" x2="127" y2="90.78" gradientUnits="userSpaceOnUse">
<stop stop-color="#CCB570"/>
<stop offset="0.96" stop-color="#6E5D29"/>
</linearGradient>
<linearGradient id="paint3_linear_265_2000" x1="128" y1="15.05" x2="128" y2="125.79" gradientUnits="userSpaceOnUse">
<stop offset="0.03" stop-color="#FF8A04"/>
<stop offset="0.42" stop-color="#FD9B01"/>
<stop offset="0.76" stop-color="#FCA500"/>
</linearGradient>
<linearGradient id="paint4_linear_265_2000" x1="128" y1="17.5701" x2="128" y2="85.6301" gradientUnits="userSpaceOnUse">
<stop stop-color="white" stop-opacity="0.3"/>
<stop offset="0.91" stop-color="white" stop-opacity="0"/>
</linearGradient>
</defs>
</svg>
