<svg width="28" height="28" viewBox="0 0 28 28" fill="none" xmlns="http://www.w3.org/2000/svg">
<g clip-path="url(#clip0_269_2263)">
<path d="M14 0C6.28009 0 0 6.28009 0 14C0 21.7199 6.28009 28 14 28C21.7199 28 28 21.7199 28 14C28 6.28009 21.7199 0 14 0ZM19.1556 17.5058C19.6117 17.9621 19.6117 18.6993 19.1556 19.1556C18.9281 19.3831 18.6294 19.4974 18.3306 19.4974C18.0319 19.4974 17.7333 19.3831 17.5058 19.1556L14 15.6496L10.4942 19.1556C10.2667 19.3831 9.96808 19.4974 9.66943 19.4974C9.37057 19.4974 9.07193 19.3831 8.84442 19.1556C8.38834 18.6993 8.38834 17.9621 8.84442 17.5058L12.3504 14L8.84442 10.4942C8.38834 10.0379 8.38834 9.30072 8.84442 8.84442C9.30072 8.38834 10.0379 8.38834 10.4942 8.84442L14 12.3504L17.5058 8.84442C17.9621 8.38834 18.6993 8.38834 19.1556 8.84442C19.6117 9.30072 19.6117 10.0379 19.1556 10.4942L15.6496 14L19.1556 17.5058Z" fill="#8B93A5"/>
</g>
<defs>
<clipPath id="clip0_269_2263">
<rect width="28" height="28" fill="white"/>
</clipPath>
</defs>
</svg>
