<svg width="256" height="142" viewBox="0 0 256 142" fill="none" xmlns="http://www.w3.org/2000/svg">
<path d="M210.52 0H45.48C20.3621 0 0 20.3621 0 45.48V96.52C0 121.638 20.3621 142 45.48 142H210.52C235.638 142 256 121.638 256 96.52V45.48C256 20.3621 235.638 0 210.52 0Z" fill="url(#paint0_linear_265_2008)"/>
<path d="M210.29 1H45.71C21.5696 1 2 20.5696 2 44.71V95.29C2 119.43 21.5696 139 45.71 139H210.29C234.43 139 254 119.43 254 95.29V44.71C254 20.5696 234.43 1 210.29 1Z" fill="url(#paint1_linear_265_2008)"/>
<path d="M208.93 12H45.07C26.8059 12 12 26.8059 12 45.07V95.93C12 114.194 26.8059 129 45.07 129H208.93C227.194 129 242 114.194 242 95.93V45.07C242 26.8059 227.194 12 208.93 12Z" fill="url(#paint2_linear_265_2008)"/>
<path d="M209.36 17H44.64C28.8226 17 16 29.8226 16 45.64V96.36C16 112.177 28.8226 125 44.64 125H209.36C225.177 125 238 112.177 238 96.36V45.64C238 29.8226 225.177 17 209.36 17Z" fill="url(#paint3_linear_265_2008)"/>
<path d="M130.09 43.9201C69.2899 43.9201 37.9999 52.4701 21.9999 66.6701V47.6701C21.9761 44.1695 22.6463 40.699 23.9719 37.459C25.2975 34.219 27.2522 31.2739 29.7229 28.794C32.1935 26.314 35.1313 24.3483 38.3662 23.0105C41.6012 21.6728 45.0692 20.9895 48.5699 21.0001H207.75C222.53 21.0001 234 32.8501 234 47.6301V66.6301C217 52.4701 205.5 43.9201 130.09 43.9201Z" fill="url(#paint4_linear_265_2008)"/>
<g filter="url(#filter0_d_265_2008)">
<path d="M79.5292 65L76.0252 58.64H75.0412V65H70.9372V48.152H77.8252C79.1532 48.152 80.2812 48.384 81.2092 48.848C82.1532 49.312 82.8572 49.952 83.3212 50.768C83.7852 51.568 84.0172 52.464 84.0172 53.456C84.0172 54.576 83.6972 55.576 83.0572 56.456C82.4332 57.336 81.5052 57.96 80.2732 58.328L84.1612 65H79.5292ZM75.0412 55.736H77.5852C78.3372 55.736 78.8972 55.552 79.2652 55.184C79.6492 54.816 79.8412 54.296 79.8412 53.624C79.8412 52.984 79.6492 52.48 79.2652 52.112C78.8972 51.744 78.3372 51.56 77.5852 51.56H75.0412V55.736ZM90.6975 51.44V54.848H96.1935V58.016H90.6975V61.712H96.9135V65H86.5935V48.152H96.9135V51.44H90.6975ZM112.418 53.576C112.418 54.552 112.194 55.448 111.746 56.264C111.298 57.064 110.61 57.712 109.682 58.208C108.754 58.704 107.602 58.952 106.226 58.952H103.682V65H99.5778V48.152H106.226C107.57 48.152 108.706 48.384 109.634 48.848C110.562 49.312 111.258 49.952 111.722 50.768C112.186 51.584 112.418 52.52 112.418 53.576ZM105.914 55.688C106.698 55.688 107.282 55.504 107.666 55.136C108.05 54.768 108.242 54.248 108.242 53.576C108.242 52.904 108.05 52.384 107.666 52.016C107.282 51.648 106.698 51.464 105.914 51.464H103.682V55.688H105.914ZM122.522 65.168C120.938 65.168 119.482 64.8 118.154 64.064C116.842 63.328 115.794 62.304 115.01 60.992C114.242 59.664 113.858 58.176 113.858 56.528C113.858 54.88 114.242 53.4 115.01 52.088C115.794 50.776 116.842 49.752 118.154 49.016C119.482 48.28 120.938 47.912 122.522 47.912C124.106 47.912 125.554 48.28 126.866 49.016C128.194 49.752 129.234 50.776 129.986 52.088C130.754 53.4 131.138 54.88 131.138 56.528C131.138 58.176 130.754 59.664 129.986 60.992C129.218 62.304 128.178 63.328 126.866 64.064C125.554 64.8 124.106 65.168 122.522 65.168ZM122.522 61.424C123.866 61.424 124.938 60.976 125.738 60.08C126.554 59.184 126.962 58 126.962 56.528C126.962 55.04 126.554 53.856 125.738 52.976C124.938 52.08 123.866 51.632 122.522 51.632C121.162 51.632 120.074 52.072 119.258 52.952C118.458 53.832 118.058 55.024 118.058 56.528C118.058 58.016 118.458 59.208 119.258 60.104C120.074 60.984 121.162 61.424 122.522 61.424ZM142.014 65L138.51 58.64H137.526V65H133.422V48.152H140.31C141.638 48.152 142.766 48.384 143.694 48.848C144.638 49.312 145.342 49.952 145.806 50.768C146.27 51.568 146.502 52.464 146.502 53.456C146.502 54.576 146.182 55.576 145.542 56.456C144.918 57.336 143.99 57.96 142.758 58.328L146.646 65H142.014ZM137.526 55.736H140.07C140.822 55.736 141.382 55.552 141.75 55.184C142.134 54.816 142.326 54.296 142.326 53.624C142.326 52.984 142.134 52.48 141.75 52.112C141.382 51.744 140.822 51.56 140.07 51.56H137.526V55.736ZM161.198 48.152V51.44H156.734V65H152.63V51.44H148.166V48.152H161.198ZM178.831 62.024H172.543L171.535 65H167.239L173.335 48.152H178.087L184.183 65H179.839L178.831 62.024ZM177.775 58.856L175.687 52.688L173.623 58.856H177.775ZM94.8742 78.152C96.6502 78.152 98.2022 78.504 99.5302 79.208C100.858 79.912 101.882 80.904 102.602 82.184C103.338 83.448 103.706 84.912 103.706 86.576C103.706 88.224 103.338 89.688 102.602 90.968C101.882 92.248 100.85 93.24 99.5062 93.944C98.1782 94.648 96.6342 95 94.8742 95H88.5622V78.152H94.8742ZM94.6102 91.448C96.1622 91.448 97.3702 91.024 98.2342 90.176C99.0982 89.328 99.5302 88.128 99.5302 86.576C99.5302 85.024 99.0982 83.816 98.2342 82.952C97.3702 82.088 96.1622 81.656 94.6102 81.656H92.6662V91.448H94.6102ZM110.104 81.44V84.848H115.6V88.016H110.104V91.712H116.32V95H106V78.152H116.32V81.44H110.104ZM129.472 92.024H123.184L122.176 95H117.88L123.976 78.152H128.728L134.824 95H130.48L129.472 92.024ZM128.416 88.856L126.328 82.688L124.264 88.856H128.416ZM148.799 78.152V81.44H144.335V95H140.231V81.44H135.767V78.152H148.799ZM165.451 78.152V95H161.347V88.064H154.963V95H150.859V78.152H154.963V84.752H161.347V78.152H165.451Z" fill="white"/>
</g>
<defs>
<filter id="filter0_d_265_2008" x="66.9373" y="47.9121" width="121.246" height="55.0879" filterUnits="userSpaceOnUse" color-interpolation-filters="sRGB">
<feFlood flood-opacity="0" result="BackgroundImageFix"/>
<feColorMatrix in="SourceAlpha" type="matrix" values="0 0 0 0 0 0 0 0 0 0 0 0 0 0 0 0 0 0 127 0" result="hardAlpha"/>
<feOffset dy="4"/>
<feGaussianBlur stdDeviation="2"/>
<feComposite in2="hardAlpha" operator="out"/>
<feColorMatrix type="matrix" values="0 0 0 0 0 0 0 0 0 0 0 0 0 0 0 0 0 0 0.25 0"/>
<feBlend mode="normal" in2="BackgroundImageFix" result="effect1_dropShadow_265_2008"/>
<feBlend mode="normal" in="SourceGraphic" in2="effect1_dropShadow_265_2008" result="shape"/>
</filter>
<linearGradient id="paint0_linear_265_2008" x1="186.92" y1="169.29" x2="87.22" y2="2.96001" gradientUnits="userSpaceOnUse">
<stop offset="0.02" stop-color="#A4B7B2"/>
<stop offset="0.2" stop-color="#C5D1CE"/>
<stop offset="0.38" stop-color="#DEE5E3"/>
<stop offset="0.57" stop-color="#F1F4F3"/>
<stop offset="0.77" stop-color="#FBFCFC"/>
<stop offset="0.99" stop-color="white"/>
</linearGradient>
<linearGradient id="paint1_linear_265_2008" x1="128" y1="-21.01" x2="128" y2="140.75" gradientUnits="userSpaceOnUse">
<stop offset="0.01" stop-color="#F2F2F2"/>
<stop offset="0.28" stop-color="#EEEEEE"/>
<stop offset="0.52" stop-color="#E4E4E4"/>
<stop offset="0.74" stop-color="#D1D1D1"/>
<stop offset="0.96" stop-color="#B8B8B8"/>
<stop offset="0.98" stop-color="#B5B5B5"/>
</linearGradient>
<linearGradient id="paint2_linear_265_2008" x1="127" y1="14.44" x2="127" y2="90.78" gradientUnits="userSpaceOnUse">
<stop stop-color="#C00C10"/>
<stop offset="0.96" stop-color="#620609"/>
</linearGradient>
<linearGradient id="paint3_linear_265_2008" x1="127" y1="16.05" x2="127" y2="126.79" gradientUnits="userSpaceOnUse">
<stop offset="0.25" stop-color="#E30E13"/>
<stop offset="0.96" stop-color="#85080C"/>
</linearGradient>
<linearGradient id="paint4_linear_265_2008" x1="128" y1="17.5701" x2="128" y2="85.6301" gradientUnits="userSpaceOnUse">
<stop stop-color="white" stop-opacity="0.3"/>
<stop offset="0.91" stop-color="white" stop-opacity="0"/>
</linearGradient>
</defs>
</svg>
