<!--?xml version="1.0" encoding="utf-8"?-->
<!-- Svg Vector Icons : http://www.onlinewebfonts.com/icon -->

<svg version="1.1" xmlns="http://www.w3.org/2000/svg" xmlns:xlink="http://www.w3.org/1999/xlink" x="0px" y="0px" viewBox="0 0 256 256" enable-background="new 0 0 256 256" xml:space="preserve">
<metadata> Svg Vector Icons : http://www.onlinewebfonts.com/icon </metadata>
<g><g><g><path fill="#000000" data-title="Layer 0" xs="0" d="M116.7,10.3C88.9,13.2,64,24.9,44.4,44.5c-18.8,18.8-29.9,41.6-33.9,69c-0.8,5.5-0.8,23.6,0,29.1c3.9,27.4,15.1,50.3,33.9,69c18.7,18.7,41.7,30,69,33.9c5.4,0.8,23.6,0.8,29.1,0c22.6-3.2,42.9-11.8,59.6-25.4c23.8-19.2,38.8-46.1,43.3-77.5c0.8-5.5,0.8-23.6,0-29.1c-3.9-27.3-15.1-50.3-33.9-69c-18.3-18.3-40.6-29.5-66.9-33.5C138.8,10.1,122.6,9.6,116.7,10.3z M142,55.5c10.2,2,20.6,6.5,28.9,12.4c5.8,4.1,14.1,12.4,14.7,14.7c0.9,3.3-1.3,6.2-4.7,6.2c-1.7,0-2.2-0.4-6.7-5c-8-8-16.2-13.2-25.9-16.4c-7-2.4-12.4-3.2-20.3-3.2c-7.5,0-12.4,0.7-19.5,3c-9.7,3-17.5,7.9-25.3,15.6c-7.1,7-11.7,13.9-14.9,22.4c-1.9,5.1-3.6,12.1-3.9,16.6c-0.3,4.9-1.2,5.2,7.4-2.4c5.4-4.8,6-5.2,7.8-5.2c1,0,2.3,0.2,2.8,0.5c1.7,0.9,2.8,4.2,1.9,6.3c-0.5,1.2-21.8,20-23.6,20.8c-2.7,1.2-3.8,0.4-14-9.9c-5.2-5.3-10.1-10.3-10.7-11.1c-2.4-2.9-1.2-6.8,2.2-7.9c2.5-0.8,4.1,0.2,10.3,6.6l5.6,5.9l0.2-1.5c0.1-0.8,0.4-2.8,0.5-4.5c1.3-13.7,8.4-29.4,18.1-40.2c12.7-14,28.9-22.4,48.2-24.6C125.2,53.9,137.2,54.5,142,55.5z M198.9,114.4c0.5,0.2,5.5,5.4,11.1,11.5c11.1,12.1,11.6,12.9,10.2,15.8c-0.8,1.5-2.8,2.8-4.3,2.8c-1.7,0-3.7-1.7-8.6-7.1c-2.7-3-5.1-5.4-5.3-5.4c-0.2,0-0.5,1.7-0.7,3.8c-0.8,10.8-5.3,23-12.1,33.4c-4.3,6.5-13.4,15.6-20.1,20c-8.5,5.7-18.2,9.6-28.3,11.5c-6.9,1.3-19.5,1.2-26.5-0.2c-7.1-1.4-12.7-3.3-19.3-6.6c-7-3.5-13.1-7.8-18.8-13.3c-4.7-4.6-6.4-6.9-6.4-8.7c0-1.8,1.3-3.8,3.1-4.5c2.6-1.1,4-0.5,7.2,3.1c9.5,10.6,22.8,18.1,36.8,20.6c5.9,1.1,16.4,1.1,21.9,0c19-3.6,34.7-14.6,44.6-31.2c4.2-7.1,7.6-17.9,8.1-25.9l0.3-4.3l-2.5,2c-1.4,1.2-4.7,3.8-7.3,5.9c-4,3.3-4.9,3.8-6.4,3.8c-2.2,0-3.7-1.1-4.6-3.1c-1.3-3.1-0.7-3.8,11.5-13.9c6.1-5,11.6-9.4,12.1-9.7C195.8,114.1,197.7,114,198.9,114.4z"/></g></g></g>
</svg>