<svg width="17" height="17" viewBox="0 0 17 17" fill="none" xmlns="http://www.w3.org/2000/svg">
<path d="M15.5319 14.0554V4.54798C15.5319 4.1441 15.2917 3.78121 14.9199 3.62343L8.9251 1.07938C8.6758 0.973541 8.38968 0.973541 8.14037 1.07938L2.14557 3.62343C1.77377 3.78121 1.53357 4.1441 1.53357 4.54798V12.7186C1.53357 12.8573 1.64599 12.9697 1.78466 12.9697C1.92333 12.9697 2.03575 12.8573 2.03575 12.7186V4.54798C2.03575 4.34604 2.15587 4.1646 2.34174 4.08569L8.33654 1.54164C8.46124 1.48872 8.60423 1.48872 8.72893 1.54164L14.7237 4.08569C14.9096 4.1646 15.0297 4.34604 15.0297 4.54798V14.0227H14.2623C14.1236 14.0227 14.0112 14.1351 14.0112 14.2737C14.0112 14.4124 14.1236 14.5248 14.2623 14.5248H15.3122C15.4506 14.5248 15.5633 14.6375 15.5633 14.7759V15.2467C15.5633 15.3852 15.4506 15.4978 15.3122 15.4978H1.75327C1.61483 15.4978 1.50218 15.3852 1.50218 15.2467V14.7759C1.50218 14.6375 1.61483 14.5248 1.75327 14.5248H12.2049C12.7415 14.5248 13.1779 14.0883 13.1779 13.5519V11.2592C13.5931 11.1482 13.8998 10.7688 13.8998 10.3191V8.68697C13.8998 8.5516 13.8783 8.41824 13.8359 8.29065C13.7922 8.15905 13.65 8.08777 13.5184 8.13156C13.3869 8.17531 13.3156 8.31743 13.3594 8.44903C13.3848 8.52545 13.3977 8.60552 13.3977 8.68697V10.3191C13.3977 10.5787 13.1865 10.7899 12.9269 10.7899C12.7882 10.7899 12.6758 10.9023 12.6758 11.0409V13.5519C12.6758 13.8115 12.4646 14.0227 12.205 14.0227H12.0167V11.4804C12.0167 11.3417 11.9042 11.2293 11.7656 11.2293C11.6269 11.2293 11.5145 11.3417 11.5145 11.4804V14.0227H11.3262C11.0666 14.0227 10.8554 13.8115 10.8554 13.5519V11.0409C10.8554 10.9023 10.7429 10.7899 10.6043 10.7899C10.3447 10.7899 10.1335 10.5787 10.1335 10.3191V8.68697C10.1335 8.27163 10.4714 7.9337 10.8867 7.9337H10.961C11.197 7.9337 11.3023 7.63556 11.1181 7.48675C10.8713 7.2888 10.7298 6.99411 10.7298 6.67824C10.7298 6.10713 11.1944 5.64249 11.7655 5.64249C12.3366 5.64249 12.8013 6.10713 12.8013 6.67824C12.8013 7.13686 12.5069 7.53499 12.0689 7.66892C11.9362 7.70947 11.8616 7.84983 11.9022 7.98244C11.9428 8.11527 12.0833 8.18962 12.2157 8.14916C12.8663 7.95027 13.3035 7.35914 13.3035 6.67824C13.3035 5.83021 12.6136 5.14031 11.7655 5.14031C10.9175 5.14031 10.2276 5.83021 10.2276 6.67824C10.2276 6.97569 10.3123 7.26027 10.4676 7.50373C9.98081 7.67667 9.63126 8.14166 9.63126 8.68697V10.3191C9.63126 10.7688 9.93794 11.1482 10.3531 11.2592V13.5519C10.3531 13.7226 10.3975 13.8831 10.475 14.0227H6.59045C6.66798 13.8831 6.71233 13.7226 6.71233 13.5519V11.2592C7.12754 11.1482 7.43421 10.7688 7.43421 10.3191V8.68697C7.43421 7.99471 6.87101 7.43151 6.17876 7.43151C6.10594 7.43151 6.02707 7.42285 5.94744 7.48672C5.27621 8.02506 4.26419 7.54927 4.26419 6.67824C4.26419 6.10713 4.72883 5.64249 5.29994 5.64249C5.87104 5.64249 6.33569 6.10713 6.33569 6.67824C6.33569 6.8169 6.44811 6.92933 6.58678 6.92933C6.72544 6.92933 6.83787 6.8169 6.83787 6.67824C6.83787 5.83021 6.14797 5.14031 5.29994 5.14031C4.45191 5.14031 3.762 5.83021 3.762 6.67824C3.762 7.52627 4.45191 8.21617 5.29994 8.21617C5.61757 8.21617 5.92917 8.11633 6.18742 7.93392C6.59877 7.93859 6.93203 8.27455 6.93203 8.68697V10.3191C6.93203 10.5787 6.72083 10.7899 6.46123 10.7899C6.32257 10.7899 6.21014 10.9023 6.21014 11.0409V13.5519C6.21014 13.8115 5.99894 14.0227 5.73935 14.0227H5.55103V11.4804C5.55103 11.3417 5.4386 11.2293 5.29994 11.2293C5.16127 11.2293 5.04885 11.3417 5.04885 11.4804V14.0227H4.86053C4.60093 14.0227 4.38973 13.8115 4.38973 13.5519V11.0409C4.38973 10.9023 4.27731 10.7899 4.13864 10.7899C3.87904 10.7899 3.66784 10.5787 3.66784 10.3191V8.68697C3.66784 8.58518 3.68774 8.48654 3.72694 8.39382C3.78096 8.26611 3.7212 8.11875 3.59349 8.06476C3.46575 8.01075 3.31845 8.07051 3.26443 8.19822C3.1989 8.35317 3.16566 8.51761 3.16566 8.68697V10.3191C3.16566 10.7688 3.47234 11.1482 3.88755 11.2592V13.5519C3.88755 13.7226 3.93187 13.8831 4.00942 14.0227H1.75327C1.33794 14.0227 1 14.3606 1 14.7759V15.2467C1 15.6621 1.33794 16 1.75327 16H15.3122C15.7275 16 16.0655 15.6621 16.0655 15.2467V14.7759C16.0655 14.437 15.8404 14.1497 15.5319 14.0554Z" fill="#667085" stroke="#667085" stroke-width="0.25"/>
<path d="M5.58138 3.94174C5.59971 3.9752 5.57573 3.9429 6.11228 4.58011C6.20179 4.68642 6.36023 4.69954 6.46606 4.61043C6.57212 4.52111 6.58571 4.3627 6.49638 4.25664L6.34184 4.07313H7.59117C7.72984 4.07313 7.84226 3.9607 7.84226 3.82204C7.84226 3.68337 7.72984 3.57094 7.59117 3.57094H6.34187L6.49642 3.38743C6.58574 3.28134 6.57215 3.12293 6.4661 3.03364C6.35998 2.94431 6.2016 2.95791 6.11231 3.06396C5.57733 3.69935 5.58339 3.67954 5.56229 3.74768C5.54164 3.81526 5.55065 3.88456 5.58138 3.94174Z" fill="#667085" stroke="#667085" stroke-width="0.25"/>
<path d="M9.22339 3.82207C9.22339 3.96073 9.33581 4.07316 9.47448 4.07316H10.7238L10.5692 4.25667C10.4799 4.36276 10.4935 4.52117 10.5996 4.61046C10.7052 4.69941 10.8637 4.68664 10.9533 4.58014C11.6426 3.76162 11.4048 4.04384 11.4563 3.98283C11.5232 3.90292 11.5343 3.78767 11.4799 3.6952C11.4625 3.66548 11.4903 3.70167 10.9534 3.06396C10.864 2.95791 10.7057 2.94431 10.5996 3.03364C10.4935 3.12297 10.4799 3.28137 10.5693 3.38743L10.7238 3.57094H9.47448C9.33581 3.57098 9.22339 3.6834 9.22339 3.82207Z" fill="#667085" stroke="#667085" stroke-width="0.25"/>
</svg>
