<svg width="35" height="35" viewBox="0 0 35 35" fill="none" xmlns="http://www.w3.org/2000/svg">
<g clip-path="url(#clip0_17_4700)">
<path d="M17.5 34.4167C26.8429 34.4167 34.4167 26.8429 34.4167 17.5C34.4167 8.15722 26.8429 0.583374 17.5 0.583374C8.15722 0.583374 0.583374 8.15722 0.583374 17.5C0.583374 26.8429 8.15722 34.4167 17.5 34.4167Z" fill="#5EDD60"/>
<path d="M14.1528 24.5408L10.1862 20.6663C10.1004 20.5829 10.0322 20.4832 9.98561 20.3729C9.93903 20.2627 9.91504 20.1443 9.91504 20.0246C9.91504 19.905 9.93903 19.7866 9.98561 19.6763C10.0322 19.5661 10.1004 19.4664 10.1862 19.383L11.5016 18.0996C11.678 17.9287 11.914 17.8332 12.1596 17.8332C12.4052 17.8332 12.6412 17.9287 12.8176 18.0996L15.1789 20.4079L21.8015 10.3396C21.9382 10.1364 22.1485 9.99432 22.3879 9.94338C22.6274 9.89243 22.8773 9.93661 23.0848 10.0666L24.6505 11.0501C24.7528 11.1129 24.8414 11.1957 24.911 11.2935C24.9807 11.3912 25.03 11.502 25.0561 11.6192C25.0822 11.7364 25.0844 11.8576 25.0627 11.9757C25.0411 12.0937 24.9959 12.2063 24.9299 12.3066L17.0882 24.2322C16.931 24.4657 16.7246 24.6618 16.4835 24.8068C16.2424 24.9519 15.9724 25.0423 15.6925 25.0717C15.4127 25.1011 15.1298 25.0688 14.8638 24.9771C14.5978 24.8854 14.3551 24.7365 14.1528 24.5408Z" fill="white"/>
</g>
<defs>
<clipPath id="clip0_17_4700">
<rect width="35" height="35" fill="white"/>
</clipPath>
</defs>
</svg>
