<svg width="14" height="14" viewBox="0 0 14 14" fill="none" xmlns="http://www.w3.org/2000/svg">
<g clip-path="url(#clip0_679_74)">
<path d="M9.05359 8.69928C8.94742 8.59183 8.77557 8.58868 8.66386 8.69216C8.66386 8.69216 7.86645 9.47248 7.81365 9.52131C7.80059 9.53426 7.78618 9.54447 7.76979 9.55275C6.94052 9.97275 3.94732 6.76821 4.51835 6.16563L5.37159 5.32953C5.48213 5.22074 5.4826 5.043 5.37544 4.93462L2.5829 2.08708C2.53122 2.03411 2.46023 2.00401 2.3862 2.00343C2.31189 2.00284 2.24119 2.03207 2.18787 2.08369C0.789503 3.45645 -1.45219 4.83697 3.78475 10.1785C8.95325 15.4494 10.435 13.4518 11.8615 11.9177C11.964 11.808 11.9612 11.6374 11.8566 11.5306L9.05359 8.69928Z" stroke="#667085" stroke-miterlimit="10" stroke-linecap="round" stroke-linejoin="round"/>
<path d="M11.4792 6.61736C11.5545 4.32422 9.68992 2.46333 7.40039 2.53858" stroke="#667085" stroke-miterlimit="10" stroke-linecap="round" stroke-linejoin="round"/>
<path d="M13.4565 6.61727C13.5306 3.23429 10.7869 0.487083 7.40051 0.561283" stroke="#667085" stroke-miterlimit="10" stroke-linecap="round" stroke-linejoin="round"/>
<path d="M7.40051 4.51564C8.59664 4.43695 9.58072 5.42179 9.50203 6.61716" stroke="#667085" stroke-miterlimit="10" stroke-linecap="round" stroke-linejoin="round"/>
</g>
<defs>
<clipPath id="clip0_679_74">
<rect width="14" height="14" fill="white"/>
</clipPath>
</defs>
</svg>
