<svg width="13" height="13" viewBox="0 0 13 13" fill="none" xmlns="http://www.w3.org/2000/svg">
<g clip-path="url(#clip0_658_7295)">
<path d="M9.53336 9.31641C9.17438 9.31641 8.88336 9.60742 8.88336 9.96641C8.88336 10.3254 9.17438 10.6164 9.53336 10.6164C9.89235 10.6164 10.1834 10.3254 10.1834 9.96641C10.1834 9.60742 9.89235 9.31641 9.53336 9.31641ZM9.53336 10.1831C9.4137 10.1831 9.3167 10.0861 9.3167 9.96641C9.3167 9.84674 9.4137 9.74974 9.53336 9.74974C9.65302 9.74974 9.75003 9.84674 9.75003 9.96641C9.75003 10.0861 9.65302 10.1831 9.53336 10.1831Z" fill="#667085"/>
<path d="M2.38334 9.31641C2.02435 9.31641 1.73334 9.60742 1.73334 9.96641C1.73334 10.3254 2.02435 10.6164 2.38334 10.6164C2.74232 10.6164 3.03334 10.3254 3.03334 9.96641C3.03334 9.60742 2.74232 9.31641 2.38334 9.31641ZM2.38334 10.1831C2.26368 10.1831 2.16667 10.0861 2.16667 9.96641C2.16667 9.84674 2.26368 9.74974 2.38334 9.74974C2.503 9.74974 2.6 9.84674 2.6 9.96641C2.6 10.0861 2.503 10.1831 2.38334 10.1831Z" fill="#667085"/>
<path d="M11.5776 3.43562C11.4776 3.1917 11.2399 3.03262 10.9763 3.03327H8.45V2.1666C8.45 1.80762 8.15899 1.5166 7.8 1.5166H0.65C0.291015 1.5166 0 1.80762 0 2.1666V8.23327C0.00065702 8.42491 0.0863823 8.60636 0.234 8.72857C-0.000774964 8.98043 -0.0638074 9.34755 0.0735139 9.66329C0.210835 9.97904 0.522353 10.1833 0.866667 10.1833H0.884C0.991097 10.929 1.62996 11.4827 2.38333 11.4827C3.13671 11.4827 3.77557 10.929 3.88267 10.1833H8.034C8.1411 10.929 8.77996 11.4827 9.53333 11.4827C10.2867 11.4827 10.9256 10.929 11.0327 10.1833H12.35C12.709 10.1833 13 9.89225 13 9.53327V7.19045C13.0002 6.99229 12.9614 6.79602 12.8858 6.61282L11.5776 3.43562ZM11.1768 3.60072L12.485 6.77814C12.5045 6.8286 12.5202 6.88046 12.532 6.93327H9.96667C9.847 6.93327 9.75 6.83626 9.75 6.7166V3.4666H10.9763C11.0641 3.46656 11.1433 3.51953 11.1768 3.60072ZM3.44283 8.88327H8.47383C8.23586 9.1159 8.08126 9.42052 8.034 9.74994H3.88267C3.8354 9.42052 3.68081 9.1159 3.44283 8.88327ZM0.433333 2.1666C0.433333 2.04694 0.530338 1.94993 0.65 1.94993H7.8C7.91966 1.94993 8.01667 2.04694 8.01667 2.1666V8.44994H0.65C0.530338 8.44994 0.433333 8.35293 0.433333 8.23327V2.1666ZM0.560517 9.62275C0.436806 9.49883 0.399834 9.31263 0.466815 9.15084C0.533795 8.98906 0.691563 8.88348 0.866667 8.88327H1.32383C1.08586 9.1159 0.931264 9.42052 0.884 9.74994H0.866667C0.751712 9.7502 0.641443 9.7044 0.560517 9.62275ZM2.38333 11.0499C1.78502 11.0499 1.3 10.5649 1.3 9.9666C1.3 9.36829 1.78502 8.88327 2.38333 8.88327C2.98164 8.88327 3.46667 9.36829 3.46667 9.9666C3.46595 10.5646 2.98134 11.0492 2.38333 11.0499ZM9.53333 11.0499C8.93503 11.0499 8.45 10.5649 8.45 9.9666C8.45 9.36829 8.93503 8.88327 9.53333 8.88327C10.1316 8.88327 10.6167 9.36829 10.6167 9.9666C10.616 10.5646 10.1313 11.0492 9.53333 11.0499ZM12.35 9.74994H11.0327C10.9251 9.0044 10.2866 8.45082 9.53333 8.44994H8.45V3.4666H9.31667V6.7166C9.31667 7.07559 9.60768 7.3666 9.96667 7.3666H12.5667V7.79994H12.35C12.2303 7.79994 12.1333 7.89694 12.1333 8.0166C12.1333 8.13626 12.2303 8.23327 12.35 8.23327H12.5667V8.6666H12.35C12.2303 8.6666 12.1333 8.76361 12.1333 8.88327C12.1333 9.00293 12.2303 9.09994 12.35 9.09994H12.5667V9.53327C12.5667 9.65293 12.4697 9.74994 12.35 9.74994Z" fill="#667085"/>
<path d="M1.0833 2.81663H1.7333C1.85297 2.81663 1.94997 2.71963 1.94997 2.59997C1.94997 2.48031 1.85297 2.3833 1.7333 2.3833H1.0833C0.963643 2.3833 0.866638 2.48031 0.866638 2.59997C0.866638 2.71963 0.963643 2.81663 1.0833 2.81663Z" fill="#667085"/>
<path d="M2.60003 2.81663H7.3667C7.48636 2.81663 7.58336 2.71963 7.58336 2.59997C7.58336 2.48031 7.48636 2.3833 7.3667 2.3833H2.60003C2.48037 2.3833 2.38336 2.48031 2.38336 2.59997C2.38336 2.71963 2.48037 2.81663 2.60003 2.81663Z" fill="#667085"/>
</g>
<defs>
<clipPath id="clip0_658_7295">
<rect width="13" height="13" fill="white"/>
</clipPath>
</defs>
</svg>
