<svg width="30" height="30" viewBox="0 0 30 30" fill="none" xmlns="http://www.w3.org/2000/svg">
<path d="M15 29C22.732 29 29 22.732 29 15C29 7.26801 22.732 1 15 1C7.26801 1 1 7.26801 1 15C1 22.732 7.26801 29 15 29Z" fill="white"/>
<path d="M14.7882 21.2813C17.5169 21.2813 19.729 20.8058 19.729 20.2192C19.729 19.6326 17.5169 19.157 14.7882 19.157C12.0594 19.157 9.84729 19.6326 9.84729 20.2192C9.84729 20.8058 12.0594 21.2813 14.7882 21.2813Z" fill="url(#paint0_linear_27_5194)"/>
<path d="M19.7284 20.2192C19.7284 19.6324 17.5166 19.157 14.7875 19.157C14.3367 19.157 13.8942 19.1706 13.4768 19.195L14.4017 20.5554C14.4266 20.592 14.4565 20.625 14.4906 20.6533L15.1167 21.2794C17.6918 21.2433 19.7284 20.7828 19.7284 20.2192Z" fill="url(#paint1_linear_27_5194)"/>
<path d="M20.2031 13.498C20.2028 12.5213 19.9383 11.5629 19.4376 10.7243C18.9369 9.88565 18.2188 9.19806 17.3592 8.73433C16.4996 8.27061 15.5306 8.04801 14.5548 8.09012C13.579 8.13223 12.6327 8.43748 11.8163 8.97353C10.9998 9.50959 10.3436 10.2565 9.917 11.1351C9.49044 12.0138 9.30947 12.9914 9.39325 13.9645C9.47703 14.9376 9.82245 15.8699 10.3929 16.6627C10.9634 17.4555 11.7377 18.0792 12.6337 18.4679C12.9575 18.6084 13.2347 18.8381 13.433 19.13L14.3992 20.5554C14.442 20.6185 14.4996 20.6701 14.5669 20.7058C14.6343 20.7415 14.7094 20.7602 14.7856 20.7602C14.8619 20.7602 14.937 20.7415 15.0043 20.7058C15.0717 20.6701 15.1293 20.6185 15.1721 20.5554L16.1382 19.13C16.3362 18.8385 16.613 18.6092 16.9363 18.4691C17.9065 18.0497 18.7328 17.3555 19.3132 16.4722C19.8937 15.5889 20.2031 14.555 20.2031 13.498Z" fill="url(#paint2_linear_27_5194)"/>
<path d="M14.7875 20.4897C14.7553 20.49 14.7235 20.4823 14.6951 20.4672C14.6666 20.4522 14.6424 20.4302 14.6246 20.4034L13.6584 18.978C13.4316 18.6437 13.1144 18.3808 12.7438 18.2199C11.6568 17.7503 10.7651 16.9201 10.2191 15.8694C9.67318 14.8187 9.50638 13.6118 9.74691 12.4524C9.98743 11.293 10.6205 10.2521 11.5394 9.50523C12.4583 8.75841 13.6067 8.35143 14.7907 8.35297C15.9743 8.35292 17.1217 8.76089 18.0396 9.50812C18.9575 10.2553 19.5897 11.2961 19.8297 12.4551C20.0697 13.6141 19.9029 14.8204 19.3573 15.8707C18.8117 16.921 17.9207 17.7512 16.8345 18.2212C16.4648 18.3819 16.1485 18.6444 15.9224 18.978L14.9563 20.4034C14.9385 20.4302 14.9142 20.4522 14.8858 20.4672C14.8573 20.4823 14.8255 20.49 14.7933 20.4897H14.7875Z" fill="url(#paint3_linear_27_5194)"/>
<path d="M14.7882 16.9027C16.6682 16.9027 18.1923 15.3786 18.1923 13.4986C18.1923 11.6186 16.6682 10.0945 14.7882 10.0945C12.9082 10.0945 11.3842 11.6186 11.3842 13.4986C11.3842 15.3786 12.9082 16.9027 14.7882 16.9027Z" fill="url(#paint4_linear_27_5194)"/>
<path d="M20.0338 14.8461L16.7997 11.6121C16.547 11.3422 16.2426 11.126 15.9046 10.9761C15.5666 10.8263 15.202 10.746 14.8323 10.7399C14.4627 10.7339 14.0956 10.8022 13.7529 10.9409C13.4102 11.0796 13.0988 11.2858 12.8374 11.5472C12.576 11.8086 12.3698 12.1199 12.2311 12.4626C12.0924 12.8054 12.0241 13.1724 12.0302 13.5421C12.0362 13.9118 12.1165 14.2764 12.2664 14.6144C12.4162 14.9524 12.6325 15.2568 12.9023 15.5095L16.3109 18.9181C16.4863 18.7251 16.7005 18.5715 16.9395 18.4672C17.6967 18.1387 18.3689 17.6417 18.9051 17.0142C19.4413 16.3868 19.8273 15.6452 20.0338 14.8461Z" fill="url(#paint5_linear_27_5194)"/>
<path d="M14.7875 16.2554C16.3104 16.2554 17.5449 15.0209 17.5449 13.498C17.5449 11.9752 16.3104 10.7407 14.7875 10.7407C13.2647 10.7407 12.0302 11.9752 12.0302 13.498C12.0302 15.0209 13.2647 16.2554 14.7875 16.2554Z" fill="url(#paint6_linear_27_5194)"/>
<path d="M14.9999 28.2222C22.3024 28.2222 28.2222 22.3024 28.2222 15C28.2222 7.69756 22.3024 1.77777 14.9999 1.77777C7.6975 1.77777 1.77771 7.69756 1.77771 15C1.77771 22.3024 7.6975 28.2222 14.9999 28.2222Z" stroke="#E94444" stroke-width="2"/>
<defs>
<linearGradient id="paint0_linear_27_5194" x1="14.6795" y1="19.7603" x2="14.7078" y2="22.3519" gradientUnits="userSpaceOnUse">
<stop stop-color="#FFDA45"/>
<stop offset="1" stop-color="#FFA425"/>
</linearGradient>
<linearGradient id="paint1_linear_27_5194" x1="17.3528" y1="20.7106" x2="17.1531" y2="18.4973" gradientUnits="userSpaceOnUse">
<stop stop-color="#FFDA45" stop-opacity="0"/>
<stop offset="1" stop-color="#B53759"/>
</linearGradient>
<linearGradient id="paint2_linear_27_5194" x1="11.5176" y1="10.2272" x2="23.716" y2="19.1354" gradientUnits="userSpaceOnUse">
<stop stop-color="#FF7044"/>
<stop offset="1" stop-color="#F92814"/>
</linearGradient>
<linearGradient id="paint3_linear_27_5194" x1="13.6246" y1="12.346" x2="9.32036" y2="9.24837" gradientUnits="userSpaceOnUse">
<stop stop-color="#FF7044" stop-opacity="0"/>
<stop offset="1" stop-color="#FFA425"/>
</linearGradient>
<linearGradient id="paint4_linear_27_5194" x1="12.739" y1="13.8118" x2="19.5267" y2="20.6063" gradientUnits="userSpaceOnUse">
<stop stop-color="#FF7044"/>
<stop offset="1" stop-color="#F92814"/>
</linearGradient>
<linearGradient id="paint5_linear_27_5194" x1="18.3289" y1="17.037" x2="15.2559" y2="14.0936" gradientUnits="userSpaceOnUse">
<stop stop-color="#F92814" stop-opacity="0"/>
<stop offset="1" stop-color="#C1272D"/>
</linearGradient>
<linearGradient id="paint6_linear_27_5194" x1="14.1147" y1="12.4668" x2="15.7416" y2="14.9539" gradientUnits="userSpaceOnUse">
<stop stop-color="#F9F7FC"/>
<stop offset="1" stop-color="#F0DDFC"/>
</linearGradient>
</defs>
</svg>
