<svg width="25" height="24" viewBox="0 0 25 24" fill="none" xmlns="http://www.w3.org/2000/svg">
<path d="M4.72115 21.2632L5.11303 20.6237L4.72115 21.2632ZM3.07045 19.6125L3.70993 19.2206H3.70993L3.07045 19.6125ZM21.5968 19.6125L20.9574 19.2206L21.5968 19.6125ZM19.9461 21.2632L19.5543 20.6237L19.9461 21.2632ZM19.9461 5.7368L19.5543 6.37628L19.9461 5.7368ZM21.5968 7.38751L20.9574 7.77938L21.5968 7.38751ZM4.72115 5.7368L5.11303 6.37628H5.11303L4.72115 5.7368ZM3.07045 7.38751L3.70993 7.77938H3.70993L3.07045 7.38751ZM18.8104 2.54645L19.3517 2.02728V2.02728L18.8104 2.54645ZM4.17787 2.89079L4.63071 3.48865V3.48865L4.17787 2.89079ZM3.18809 3.92267L3.80341 4.35148L3.18809 3.92267ZM19.3336 5.13032H20.0837L20.0836 5.12662L19.3336 5.13032ZM18.6973 13.6137C19.1115 13.6137 19.4473 13.2779 19.4473 12.8637C19.4473 12.4494 19.1115 12.1137 18.6973 12.1137V13.6137ZM15.97 12.1137C15.5558 12.1137 15.22 12.4494 15.22 12.8637C15.22 13.2779 15.5558 13.6137 15.97 13.6137V12.1137ZM10.8336 5.75H13.8336V4.25H10.8336V5.75ZM13.8336 21.25H10.8336V22.75H13.8336V21.25ZM10.8336 21.25C9.18241 21.25 7.99665 21.2492 7.07173 21.1613C6.15798 21.0744 5.57655 20.9078 5.11303 20.6237L4.32928 21.9027C5.0681 22.3554 5.9062 22.5572 6.92975 22.6545C7.94214 22.7508 9.21145 22.75 10.8336 22.75V21.25ZM1.58365 13.5C1.58365 15.1222 1.58286 16.3915 1.67911 17.4039C1.77643 18.4274 1.97822 19.2655 2.43097 20.0044L3.70993 19.2206C3.42588 18.7571 3.25926 18.1757 3.17238 17.2619C3.08444 16.337 3.08365 15.1512 3.08365 13.5H1.58365ZM5.11303 20.6237C4.54117 20.2733 4.06036 19.7925 3.70993 19.2206L2.43097 20.0044C2.90509 20.7781 3.55559 21.4286 4.32928 21.9027L5.11303 20.6237ZM13.8336 22.75C15.4558 22.75 16.7252 22.7508 17.7375 22.6545C18.7611 22.5572 19.5992 22.3554 20.338 21.9027L19.5543 20.6237C19.0907 20.9078 18.5093 21.0744 17.5956 21.1613C16.6706 21.2492 15.4849 21.25 13.8336 21.25V22.75ZM20.9574 19.2206C20.6069 19.7925 20.1261 20.2733 19.5543 20.6237L20.338 21.9027C21.1117 21.4286 21.7622 20.7781 22.2363 20.0044L20.9574 19.2206ZM19.5543 6.37628C20.1261 6.72672 20.6069 7.20752 20.9574 7.77938L22.2363 6.99563C21.7622 6.22194 21.1117 5.57144 20.338 5.09732L19.5543 6.37628ZM10.8336 4.25C9.21145 4.25 7.94214 4.24921 6.92975 4.34547C5.9062 4.44279 5.0681 4.64457 4.32928 5.09732L5.11303 6.37628C5.57655 6.09223 6.15798 5.92561 7.07173 5.83873C7.99665 5.75079 9.18241 5.75 10.8336 5.75V4.25ZM3.08365 13.5C3.08365 11.8488 3.08444 10.663 3.17238 9.73809C3.25926 8.82434 3.42588 8.24291 3.70993 7.77938L2.43097 6.99563C1.97822 7.73445 1.77643 8.57256 1.67911 9.59611C1.58286 10.6085 1.58365 11.8778 1.58365 13.5H3.08365ZM4.32928 5.09732C3.55559 5.57144 2.90509 6.22194 2.43097 6.99563L3.70993 7.77938C4.06036 7.20752 4.54117 6.72672 5.11303 6.37628L4.32928 5.09732ZM10.3867 2.75H15.7554V1.25H10.3867V2.75ZM15.7554 2.75C16.6211 2.75 17.1918 2.75173 17.615 2.81105C18.0133 2.86687 18.1682 2.96039 18.2692 3.06562L19.3517 2.02728C18.9285 1.58606 18.3995 1.40635 17.8232 1.32557C17.2717 1.24827 16.577 1.25 15.7554 1.25V2.75ZM10.3867 1.25C8.72652 1.25 7.41859 1.24888 6.38093 1.36609C5.32731 1.4851 4.46333 1.7337 3.72502 2.29293L4.63071 3.48865C5.06844 3.15709 5.63129 2.9603 6.54928 2.85661C7.48324 2.75112 8.69171 2.75 10.3867 2.75V1.25ZM3.08365 10.3956C3.08365 8.63063 3.08459 7.36468 3.18643 6.38472C3.287 5.41704 3.47914 4.81679 3.80341 4.35148L2.57277 3.49385C2.0426 4.25462 1.80752 5.14188 1.69447 6.22968C1.5827 7.3052 1.58365 8.6627 1.58365 10.3956H3.08365ZM3.72502 2.29293C3.2817 2.62872 2.89309 3.03422 2.57277 3.49385L3.80341 4.35148C4.03499 4.01918 4.3144 3.72823 4.63071 3.48865L3.72502 2.29293ZM20.0836 5.12662C20.0803 4.44995 20.0659 3.86358 19.9811 3.37747C19.8931 2.87228 19.719 2.41025 19.3517 2.02728L18.2692 3.06562C18.3625 3.16295 18.4467 3.30988 18.5034 3.63506C18.5634 3.97932 18.5802 4.44473 18.5837 5.13403L20.0836 5.12662ZM1.58365 10.3956C1.58365 11.3713 1.56349 12.2642 1.5839 13.0202L3.08336 12.9798C3.0636 12.2482 3.08365 11.424 3.08365 10.3956H1.58365ZM21.8336 14.8409H15.97V16.3409H21.8336V14.8409ZM12.4927 12.8637C12.4927 14.7841 14.0496 16.3409 15.97 16.3409V14.8409C14.878 14.8409 13.9927 13.9557 13.9927 12.8637H12.4927ZM13.9927 12.8637C13.9927 11.7716 14.878 10.8864 15.97 10.8864V9.38638C14.0496 9.38638 12.4927 10.9432 12.4927 12.8637H13.9927ZM18.6973 12.1137H15.97V13.6137H18.6973V12.1137ZM13.8336 5.75C15.2183 5.75 16.2786 5.75032 17.1372 5.8033C17.9949 5.85623 18.5946 5.95942 19.0674 6.13895L19.5999 4.73667C18.9198 4.47839 18.1456 4.36267 17.2295 4.30615C16.3143 4.24968 15.201 4.25 13.8336 4.25V5.75ZM19.0674 6.13895C19.2444 6.20619 19.4047 6.2846 19.5543 6.37628L20.338 5.09732C20.1046 4.95427 19.8597 4.83534 19.5999 4.73667L19.0674 6.13895ZM18.5836 5.13032V5.43781H20.0836V5.13032H18.5836ZM15.97 10.8864H22.2781V9.38638H15.97V10.8864ZM23.0836 13.5C23.0836 12.1255 23.084 11.0077 23.0266 10.0896L21.5295 10.1832C21.5833 11.0439 21.5836 12.108 21.5836 13.5H23.0836ZM23.0266 10.0896C22.9482 8.83476 22.7583 7.84749 22.2363 6.99563L20.9574 7.77938C21.2863 8.3161 21.456 9.00707 21.5295 10.1832L23.0266 10.0896ZM21.5836 13.5C21.5836 14.2875 21.5836 14.9722 21.5736 15.5785L23.0734 15.6034C23.0837 14.9821 23.0836 14.2839 23.0836 13.5H21.5836ZM21.5736 15.5785C21.541 17.537 21.3971 18.5031 20.9574 19.2206L22.2363 20.0044C22.9165 18.8944 23.0413 17.5313 23.0734 15.6034L21.5736 15.5785ZM21.8336 16.3409H22.3235V14.8409H21.8336V16.3409Z" fill="white"/>
</svg>
