<svg width="58" height="57" viewBox="0 0 58 57" fill="none" xmlns="http://www.w3.org/2000/svg">
<path d="M44.56 0H13.44C6.3 0 0.5 5.8 0.5 12.94C0.5 20.08 6.3 25.88 13.44 25.88H44.56C51.7 25.88 57.5 20.08 57.5 12.94C57.5 5.8 51.7 0 44.56 0ZM44.56 21.44C39.86 21.44 36.06 17.64 36.06 12.94C36.06 8.26 39.86 4.44 44.56 4.44C49.24 4.44 53.06 8.26 53.06 12.94C53.06 17.64 49.24 21.44 44.56 21.44Z" fill="#FE85A3"/>
<path d="M44.56 31.1201H13.44C6.3 31.1201 0.5 36.9201 0.5 44.0601C0.5 51.2001 6.3 57.0001 13.44 57.0001H44.56C51.7 57.0001 57.5 51.2001 57.5 44.0601C57.5 36.9201 51.7 31.1201 44.56 31.1201ZM13.44 52.5601C8.76 52.5601 4.94 48.7401 4.94 44.0601C4.94 39.3601 8.76 35.5601 13.44 35.5601C18.14 35.5601 21.94 39.3601 21.94 44.0601C21.94 48.7401 18.14 52.5601 13.44 52.5601Z" fill="#8C91A3"/>
</svg>
