<svg width="43" height="44" viewBox="0 0 43 44" fill="none" xmlns="http://www.w3.org/2000/svg">
<g filter="url(#filter0_d_655_49575)">
<rect width="40" height="40" rx="8" fill="white"/>
<rect x="0.5" y="0.5" width="39" height="39" rx="7.5" stroke="#F4F4F6"/>
<path d="M10.375 12.5312C10.375 11.9727 10.8047 11.5 11.4062 11.5H28.5938C29.1523 11.5 29.625 11.9727 29.625 12.5312C29.625 13.1328 29.1523 13.5625 28.5938 13.5625H11.4062C10.8047 13.5625 10.375 13.1328 10.375 12.5312ZM10.375 19.4062C10.375 18.8477 10.8047 18.375 11.4062 18.375H28.5938C29.1523 18.375 29.625 18.8477 29.625 19.4062C29.625 20.0078 29.1523 20.4375 28.5938 20.4375H11.4062C10.8047 20.4375 10.375 20.0078 10.375 19.4062ZM29.625 26.2812C29.625 26.8828 29.1523 27.3125 28.5938 27.3125H11.4062C10.8047 27.3125 10.375 26.8828 10.375 26.2812C10.375 25.7227 10.8047 25.25 11.4062 25.25H28.5938C29.1523 25.25 29.625 25.7227 29.625 26.2812Z" fill="black"/>
</g>
<defs>
<filter id="filter0_d_655_49575" x="0" y="0" width="43" height="44" filterUnits="userSpaceOnUse" color-interpolation-filters="sRGB">
<feFlood flood-opacity="0" result="BackgroundImageFix"/>
<feColorMatrix in="SourceAlpha" type="matrix" values="0 0 0 0 0 0 0 0 0 0 0 0 0 0 0 0 0 0 127 0" result="hardAlpha"/>
<feMorphology radius="3" operator="erode" in="SourceAlpha" result="effect1_dropShadow_655_49575"/>
<feOffset dx="2" dy="3"/>
<feGaussianBlur stdDeviation="2"/>
<feComposite in2="hardAlpha" operator="out"/>
<feColorMatrix type="matrix" values="0 0 0 0 0 0 0 0 0 0 0 0 0 0 0 0 0 0 0.05 0"/>
<feBlend mode="normal" in2="BackgroundImageFix" result="effect1_dropShadow_655_49575"/>
<feBlend mode="normal" in="SourceGraphic" in2="effect1_dropShadow_655_49575" result="shape"/>
</filter>
</defs>
</svg>
